<svg width="125" height="38" viewBox="0 0 125 38" fill="none" xmlns="http://www.w3.org/2000/svg">
<path d="M115.046 0.0372069H9.95984C9.57679 0.0372069 9.19833 0.0372069 8.81629 0.0390587C8.49649 0.0409106 8.17924 0.0462902 7.85637 0.050818C7.15494 0.0581345 6.45516 0.112833 5.76311 0.214438C5.07204 0.318256 4.40261 0.513981 3.77747 0.794994C3.1531 1.07838 2.58259 1.44662 2.08664 1.88635C1.58809 2.32483 1.17251 2.83167 0.855886 3.38736C0.538382 3.94194 0.318225 4.53622 0.203016 5.14969C0.0867125 5.76238 0.0241284 6.38213 0.0158256 7.00339C0.00613175 7.28728 0.00510805 7.57212 0 7.85604V29.2581C0.00510805 29.5456 0.00613175 29.8242 0.0158256 30.1117C0.0241309 30.733 0.086715 31.3527 0.203016 31.9654C0.317907 32.5792 0.538077 33.1738 0.855886 33.7286C1.17237 34.2825 1.58801 34.7873 2.08664 35.2233C2.58071 35.665 3.15159 36.0335 3.77747 36.3147C4.4026 36.5965 5.07196 36.7934 5.76311 36.8988C6.45528 36.9996 7.15498 37.0543 7.85637 37.0625C8.17924 37.0688 8.49649 37.0724 8.81629 37.0724C9.19832 37.0743 9.57681 37.0743 9.95984 37.0743H115.046C115.421 37.0743 115.803 37.0743 116.178 37.0724C116.496 37.0724 116.823 37.0688 117.141 37.0625C117.841 37.0547 118.54 37 119.23 36.8988C119.924 36.7926 120.595 36.5958 121.224 36.3147C121.849 36.0333 122.419 35.6649 122.913 35.2233C123.41 34.7856 123.827 34.2812 124.147 33.7286C124.463 33.1734 124.681 32.5788 124.794 31.9654C124.91 31.3526 124.975 30.733 124.988 30.1117C124.992 29.8242 124.992 29.5456 124.992 29.2581C125 28.9217 125 28.5872 125 28.2454V8.86696C125 8.52787 125 8.1915 124.992 7.85604C124.992 7.57212 124.992 7.28728 124.988 7.00336C124.975 6.38204 124.91 5.76243 124.794 5.14965C124.68 4.53654 124.462 3.9423 124.147 3.38732C123.502 2.2735 122.48 1.36686 121.224 0.794911C120.595 0.514584 119.924 0.318911 119.23 0.214355C118.54 0.112302 117.841 0.0575844 117.141 0.0506883C116.823 0.0461698 116.496 0.0407439 116.178 0.0389383C115.803 0.0370865 115.421 0.0370865 115.046 0.0370865V0.0372069Z" fill="#A6A6A6"/>
<path d="M8.73146 36.2669C8.41265 36.2669 8.10153 36.2632 7.78522 36.2569C7.12995 36.2494 6.47621 36.1989 5.82936 36.1059C5.22621 36.014 4.64192 35.8429 4.09576 35.5985C3.5546 35.356 3.06103 35.0381 2.63394 34.657C2.20067 34.2803 1.83996 33.8434 1.56609 33.3637C1.2892 32.8808 1.09758 32.3632 0.997894 31.8289C0.890245 31.2548 0.832003 30.6743 0.823669 30.0924C0.817035 29.8971 0.80835 29.2468 0.80835 29.2468V7.85289C0.80835 7.85289 0.8176 7.21257 0.823721 7.02444C0.831701 6.44347 0.889605 5.86388 0.996931 5.29068C1.0968 4.75494 1.28857 4.23585 1.5656 3.75138C1.83847 3.27194 2.19718 2.83474 2.62784 2.45671C3.05802 2.0751 3.55317 1.75557 4.09524 1.50978C4.64015 1.2661 5.22334 1.09629 5.82527 1.00603C6.47424 0.912088 7.13025 0.8613 7.78779 0.854089L8.73198 0.842781H116.268L117.224 0.854543C117.876 0.861395 118.526 0.911731 119.169 1.00512C119.777 1.09651 120.366 1.26751 120.917 1.5125C122.003 2.00783 122.887 2.79149 123.444 3.75364C123.717 4.23477 123.905 4.74962 124.004 5.28074C124.113 5.85864 124.173 6.44278 124.186 7.02852C124.189 7.2908 124.189 7.57252 124.189 7.85289C124.197 8.20019 124.197 8.53075 124.197 8.86402V28.2465C124.197 28.5829 124.197 28.9112 124.189 29.2422C124.189 29.5434 124.189 29.8193 124.185 30.1033C124.173 30.6785 124.113 31.2523 124.006 31.8198C123.908 32.3579 123.718 32.8796 123.441 33.3664C123.165 33.841 122.807 34.2741 122.378 34.6498C121.951 35.033 121.456 35.3527 120.914 35.5967C120.364 35.8431 119.776 36.0147 119.169 36.1059C118.522 36.1994 117.868 36.2499 117.213 36.2569C116.906 36.2632 116.585 36.2669 116.274 36.2669L115.139 36.2687L8.73146 36.2669Z" fill="black"/>
<path d="M30.3678 18.8341C30.3778 18.0613 30.5831 17.3036 30.9646 16.6314C31.3461 15.9592 31.8914 15.3944 32.5498 14.9896C32.1316 14.3923 31.5798 13.9007 30.9383 13.5539C30.2967 13.207 29.5832 13.0146 28.8543 12.9918C27.2995 12.8286 25.7921 13.9222 24.9998 13.9222C24.1921 13.9222 22.9722 13.008 21.6586 13.035C20.8089 13.0625 19.9808 13.3096 19.255 13.7522C18.5292 14.1949 17.9304 14.818 17.517 15.5608C15.7262 18.6612 17.062 23.2177 18.7774 25.7239C19.6356 26.951 20.6386 28.3218 21.9511 28.2732C23.2354 28.22 23.7151 27.4543 25.2653 27.4543C26.8012 27.4543 27.2513 28.2732 28.5903 28.2423C29.9685 28.2199 30.8368 27.0097 31.6649 25.7709C32.2815 24.8965 32.756 23.9301 33.0708 22.9075C32.2702 22.5688 31.5869 22.002 31.1063 21.2776C30.6256 20.5533 30.3688 19.7035 30.3678 18.8341V18.8341Z" fill="white"/>
<path d="M27.8386 11.3436C28.59 10.4416 28.9602 9.28213 28.8706 8.11154C27.7226 8.23212 26.6621 8.78078 25.9006 9.64822C25.5282 10.072 25.243 10.565 25.0613 11.099C24.8796 11.6331 24.8049 12.1977 24.8416 12.7606C25.4158 12.7665 25.9838 12.6421 26.503 12.3966C27.0221 12.1512 27.4788 11.7911 27.8386 11.3436Z" fill="white"/>
<path d="M46.6025 25.1665H42.2197L41.1672 28.2744H39.3108L43.4621 16.7762H45.3908L49.5421 28.2744H47.6541L46.6025 25.1665ZM42.6736 23.7324H46.1477L44.4351 18.6887H44.3871L42.6736 23.7324Z" fill="white"/>
<path d="M58.5075 24.0833C58.5075 26.6883 57.1131 28.3621 55.009 28.3621C54.476 28.3899 53.9459 28.2672 53.4794 28.0078C53.013 27.7484 52.629 27.3629 52.3714 26.8954H52.3316V31.0476H50.6108V19.8913H52.2764V21.2856H52.3081C52.5775 20.8203 52.968 20.4368 53.438 20.1759C53.908 19.9149 54.44 19.7862 54.9774 19.8036C57.105 19.8036 58.5075 21.4854 58.5075 24.0833ZM56.7388 24.0833C56.7388 22.386 55.8617 21.2702 54.5234 21.2702C53.2087 21.2702 52.3244 22.4095 52.3244 24.0833C52.3244 25.7724 53.2087 26.9035 54.5234 26.9035C55.8617 26.9035 56.7388 25.7959 56.7388 24.0833Z" fill="white"/>
<path d="M67.7341 24.0833C67.7341 26.6883 66.3398 28.3621 64.2357 28.3621C63.7027 28.3899 63.1726 28.2672 62.7061 28.0078C62.2396 27.7484 61.8556 27.3629 61.5981 26.8954H61.5583V31.0476H59.8375V19.8913H61.5031V21.2856H61.5347C61.8042 20.8203 62.1946 20.4368 62.6647 20.1759C63.1347 19.9149 63.6667 19.7862 64.204 19.8036C66.3317 19.8036 67.7341 21.4854 67.7341 24.0833ZM65.9655 24.0833C65.9655 22.386 65.0884 21.2702 63.7501 21.2702C62.4354 21.2702 61.5511 22.4095 61.5511 24.0833C61.5511 25.7724 62.4354 26.9035 63.7501 26.9035C65.0884 26.9035 65.9655 25.7959 65.9655 24.0833H65.9655Z" fill="white"/>
<path d="M73.8323 25.0707C73.9598 26.2109 75.0674 26.9596 76.5811 26.9596C78.0315 26.9596 79.0749 26.2109 79.0749 25.1828C79.0749 24.2903 78.4456 23.7559 76.9554 23.3897L75.4653 23.0307C73.3539 22.5207 72.3737 21.5333 72.3737 19.931C72.3737 17.9471 74.1026 16.5845 76.5576 16.5845C78.9872 16.5845 80.6528 17.9471 80.7089 19.931H78.9718C78.8679 18.7836 77.9193 18.0909 76.5332 18.0909C75.147 18.0909 74.1984 18.7917 74.1984 19.8117C74.1984 20.6246 74.8043 21.1029 76.2863 21.4691L77.5531 21.7801C79.9122 22.338 80.8924 23.2857 80.8924 24.9675C80.8924 27.1187 79.1789 28.466 76.4536 28.466C73.9037 28.466 72.182 27.1503 72.0708 25.0706L73.8323 25.0707Z" fill="white"/>
<path d="M84.6061 17.9074V19.8913H86.2002V21.2539H84.6061V25.8754C84.6061 26.5934 84.9253 26.928 85.6261 26.928C85.8153 26.9247 86.0042 26.9114 86.1921 26.8881V28.2427C85.877 28.3015 85.5568 28.3282 85.2363 28.3222C83.5391 28.3222 82.8772 27.6848 82.8772 26.059V21.2539H81.6583V19.8913H82.8772V17.9074H84.6061Z" fill="white"/>
<path d="M87.1235 24.0833C87.1235 21.4456 88.677 19.7882 91.0994 19.7882C93.53 19.7882 95.0762 21.4456 95.0762 24.0833C95.0762 26.7281 93.5381 28.3783 91.0994 28.3783C88.6616 28.3783 87.1235 26.7281 87.1235 24.0833ZM93.3229 24.0833C93.3229 22.2739 92.4937 21.206 91.0994 21.206C89.7051 21.206 88.8768 22.2821 88.8768 24.0833C88.8768 25.8998 89.7051 26.9596 91.0994 26.9596C92.4937 26.9596 93.3229 25.8998 93.3229 24.0833H93.3229Z" fill="white"/>
<path d="M96.4949 19.8913H98.1361V21.3181H98.1759C98.2869 20.8725 98.548 20.4787 98.9152 20.2028C99.2824 19.927 99.7334 19.786 100.192 19.8036C100.391 19.8029 100.588 19.8244 100.782 19.8678V21.4773C100.532 21.4008 100.27 21.3657 100.009 21.3733C99.7587 21.3632 99.5095 21.4072 99.2782 21.5025C99.0468 21.5978 98.8388 21.742 98.6685 21.9252C98.4982 22.1084 98.3695 22.3263 98.2913 22.564C98.2131 22.8017 98.1873 23.0534 98.2156 23.302V28.2743H96.4949L96.4949 19.8913Z" fill="white"/>
<path d="M108.715 25.8121C108.484 27.3339 107.002 28.3783 105.106 28.3783C102.667 28.3783 101.153 26.7444 101.153 24.123C101.153 21.4936 102.675 19.7882 105.033 19.7882C107.353 19.7882 108.811 21.3814 108.811 23.9232V24.5128H102.89V24.6167C102.863 24.9253 102.902 25.2361 103.004 25.5285C103.106 25.821 103.269 26.0884 103.482 26.3129C103.695 26.5375 103.954 26.7141 104.241 26.8311C104.528 26.948 104.836 27.0026 105.146 26.9912C105.552 27.0293 105.96 26.9352 106.309 26.7227C106.658 26.5103 106.929 26.1909 107.082 25.8121L108.715 25.8121ZM102.899 23.3101H107.09C107.105 23.0327 107.063 22.7551 106.966 22.4948C106.869 22.2344 106.72 21.9968 106.526 21.7971C106.333 21.5973 106.101 21.4396 105.844 21.3338C105.587 21.228 105.311 21.1765 105.033 21.1825C104.753 21.1808 104.475 21.2347 104.216 21.3409C103.957 21.4472 103.721 21.6037 103.523 21.8015C103.324 21.9993 103.167 22.2345 103.06 22.4934C102.953 22.7523 102.898 23.0299 102.899 23.3102V23.3101Z" fill="white"/>
<path d="M42.4579 8.12148C42.8187 8.09559 43.1807 8.15009 43.5178 8.28105C43.8549 8.41201 44.1588 8.61615 44.4075 8.87877C44.6562 9.14139 44.8435 9.45592 44.9559 9.79969C45.0683 10.1435 45.103 10.5079 45.0575 10.8667C45.0575 12.6317 44.1036 13.6463 42.4579 13.6463H40.4623V8.12148H42.4579ZM41.3204 12.865H42.362C42.6198 12.8804 42.8778 12.8381 43.1172 12.7413C43.3566 12.6444 43.5714 12.4954 43.7459 12.305C43.9204 12.1147 44.0503 11.8878 44.1261 11.641C44.2019 11.3941 44.2217 11.1334 44.1841 10.878C44.219 10.6235 44.1972 10.3644 44.1202 10.1194C44.0432 9.87432 43.913 9.64932 43.7389 9.46049C43.5648 9.27167 43.351 9.1237 43.113 9.02718C42.8749 8.93067 42.6185 8.888 42.362 8.90223H41.3204V12.865Z" fill="white"/>
<path d="M46.0269 11.5598C46.0007 11.2858 46.032 11.0093 46.1189 10.7481C46.2058 10.487 46.3463 10.2468 46.5314 10.0431C46.7166 9.83945 46.9422 9.67671 47.1939 9.56534C47.4457 9.45397 47.7179 9.39645 47.9931 9.39645C48.2684 9.39645 48.5406 9.45397 48.7923 9.56534C49.044 9.67671 49.2697 9.83945 49.4548 10.0431C49.6399 10.2468 49.7804 10.487 49.8673 10.7481C49.9542 11.0093 49.9856 11.2858 49.9593 11.5598C49.9861 11.834 49.9551 12.1109 49.8684 12.3725C49.7818 12.6341 49.6413 12.8746 49.4562 13.0787C49.271 13.2828 49.0451 13.4459 48.7932 13.5575C48.5412 13.6691 48.2687 13.7268 47.9931 13.7268C47.7175 13.7268 47.445 13.6691 47.193 13.5575C46.9411 13.4459 46.7152 13.2828 46.5301 13.0787C46.3449 12.8746 46.2045 12.6341 46.1178 12.3725C46.0311 12.1109 46.0002 11.834 46.0269 11.5598V11.5598ZM49.113 11.5598C49.113 10.656 48.707 10.1275 47.9945 10.1275C47.2792 10.1275 46.8769 10.656 46.8769 11.5598C46.8769 12.4708 47.2793 12.9952 47.9945 12.9952C48.707 12.9952 49.113 12.4671 49.113 11.5598H49.113Z" fill="white"/>
<path d="M55.1867 13.6462H54.3331L53.4714 10.5755H53.4063L52.5482 13.6462H51.7027L50.5535 9.47687H51.3881L52.135 12.6584H52.1965L53.0537 9.47687H53.843L54.7002 12.6584H54.7653L55.5086 9.47687H56.3315L55.1867 13.6462Z" fill="white"/>
<path d="M57.298 9.47687H58.0901V10.1392H58.1516C58.2559 9.90133 58.4318 9.70191 58.6548 9.56875C58.8779 9.4356 59.1369 9.37535 59.3958 9.39639C59.5987 9.38114 59.8024 9.41173 59.9918 9.48589C60.1812 9.56005 60.3516 9.67589 60.4902 9.82482C60.6288 9.97375 60.7321 10.152 60.7924 10.3462C60.8528 10.5405 60.8687 10.7459 60.8389 10.9471V13.6462H60.0161V11.1538C60.0161 10.4837 59.7249 10.1505 59.1164 10.1505C58.9786 10.1441 58.8411 10.1676 58.7133 10.2192C58.5855 10.2709 58.4703 10.3497 58.3758 10.45C58.2812 10.5504 58.2095 10.67 58.1655 10.8007C58.1215 10.9313 58.1062 11.07 58.1208 11.2071V13.6463H57.298L57.298 9.47687Z" fill="white"/>
<path d="M62.1501 7.84926H62.973V13.6462H62.1501V7.84926Z" fill="white"/>
<path d="M64.1168 11.5598C64.0906 11.2857 64.122 11.0093 64.2089 10.7481C64.2958 10.4869 64.4364 10.2468 64.6215 10.0431C64.8067 9.83938 65.0323 9.67663 65.2841 9.56527C65.5358 9.4539 65.808 9.39637 66.0833 9.39637C66.3586 9.39637 66.6308 9.4539 66.8825 9.56527C67.1342 9.67663 67.3599 9.83938 67.5451 10.0431C67.7302 10.2468 67.8708 10.4869 67.9577 10.7481C68.0446 11.0093 68.0759 11.2857 68.0497 11.5598C68.0764 11.8341 68.0454 12.1109 67.9587 12.3725C67.872 12.6341 67.7316 12.8746 67.5464 13.0787C67.3612 13.2828 67.1354 13.4459 66.8834 13.5575C66.6314 13.6691 66.3589 13.7267 66.0833 13.7267C65.8077 13.7267 65.5352 13.6691 65.2832 13.5575C65.0312 13.4459 64.8054 13.2828 64.6202 13.0787C64.435 12.8746 64.2945 12.6341 64.2078 12.3725C64.1211 12.1109 64.0901 11.8341 64.1168 11.5598V11.5598ZM67.2029 11.5598C67.2029 10.656 66.7969 10.1275 66.0844 10.1275C65.3692 10.1275 64.9668 10.656 64.9668 11.5598C64.9668 12.4708 65.3692 12.9952 66.0844 12.9952C66.7969 12.9952 67.2029 12.4671 67.2029 11.5598H67.2029Z" fill="white"/>
<path d="M68.916 12.4671C68.916 11.7166 69.4748 11.284 70.4668 11.2225L71.5961 11.1574V10.7975C71.5961 10.3571 71.305 10.1085 70.7426 10.1085C70.2832 10.1085 69.9649 10.2771 69.8736 10.5719H69.077C69.1611 9.85575 69.8347 9.39641 70.7805 9.39641C71.8258 9.39641 72.4154 9.91678 72.4154 10.7975V13.6463H71.6233V13.0603H71.5582C71.426 13.2705 71.2405 13.4418 71.0204 13.5569C70.8004 13.6719 70.5538 13.7264 70.3058 13.715C70.1308 13.7332 69.9539 13.7145 69.7865 13.6601C69.6191 13.6058 69.465 13.517 69.3341 13.3994C69.2031 13.2818 69.0983 13.1381 69.0263 12.9776C68.9543 12.817 68.9167 12.6431 68.916 12.4671V12.4671ZM71.5961 12.1109V11.7623L70.578 11.8274C70.0038 11.8658 69.7434 12.0611 69.7434 12.4287C69.7434 12.804 70.0689 13.0223 70.5165 13.0223C70.6477 13.0356 70.7802 13.0224 70.9061 12.9834C71.032 12.9444 71.1488 12.8805 71.2496 12.7955C71.3503 12.7104 71.4329 12.606 71.4924 12.4884C71.552 12.3708 71.5872 12.2424 71.5961 12.1109V12.1109Z" fill="white"/>
<path d="M73.4967 11.5598C73.4967 10.2423 74.174 9.4077 75.2274 9.4077C75.488 9.3957 75.7466 9.45811 75.973 9.58764C76.1994 9.71717 76.3843 9.90847 76.506 10.1392H76.5675V7.84926H77.3903V13.6462H76.6018V12.9875H76.5367C76.4056 13.2167 76.2143 13.4056 75.9835 13.5338C75.7527 13.662 75.4912 13.7247 75.2274 13.715C74.1667 13.715 73.4967 12.8804 73.4967 11.5598ZM74.3467 11.5598C74.3467 12.4441 74.7636 12.9762 75.4607 12.9762C76.1542 12.9762 76.5829 12.4364 76.5829 11.5634C76.5829 10.6944 76.1497 10.1469 75.4607 10.1469C74.768 10.1469 74.3467 10.6827 74.3467 11.5598H74.3467Z" fill="white"/>
<path d="M80.7947 11.5598C80.7685 11.2858 80.7998 11.0093 80.8867 10.7481C80.9736 10.487 81.1141 10.2468 81.2993 10.0431C81.4844 9.83945 81.71 9.67671 81.9618 9.56534C82.2135 9.45397 82.4857 9.39645 82.7609 9.39645C83.0362 9.39645 83.3084 9.45397 83.5601 9.56534C83.8118 9.67671 84.0375 9.83945 84.2226 10.0431C84.4077 10.2468 84.5483 10.487 84.6351 10.7481C84.722 11.0093 84.7534 11.2858 84.7272 11.5598C84.7539 11.834 84.7229 12.1109 84.6362 12.3725C84.5496 12.6341 84.4092 12.8746 84.224 13.0787C84.0388 13.2828 83.813 13.4459 83.561 13.5575C83.309 13.6691 83.0365 13.7268 82.7609 13.7268C82.4854 13.7268 82.2128 13.6691 81.9609 13.5575C81.7089 13.4459 81.4831 13.2828 81.2979 13.0787C81.1127 12.8746 80.9723 12.6341 80.8856 12.3725C80.799 12.1109 80.768 11.834 80.7947 11.5598V11.5598ZM83.8808 11.5598C83.8808 10.656 83.4748 10.1275 82.7623 10.1275C82.0471 10.1275 81.6447 10.656 81.6447 11.5598C81.6447 12.4708 82.0471 12.9952 82.7623 12.9952C83.4748 12.9952 83.8808 12.4671 83.8808 11.5598Z" fill="white"/>
<path d="M85.8313 9.47687H86.6234V10.1392H86.6849C86.7892 9.90133 86.9651 9.70191 87.1882 9.56875C87.4112 9.4356 87.6702 9.37535 87.9291 9.39639C88.132 9.38114 88.3357 9.41173 88.5251 9.48589C88.7146 9.56005 88.8849 9.67589 89.0235 9.82482C89.1621 9.97375 89.2654 10.152 89.3258 10.3462C89.3861 10.5405 89.402 10.7459 89.3722 10.9471V13.6462H88.5494V11.1538C88.5494 10.4837 88.2582 10.1505 87.6497 10.1505C87.512 10.1441 87.3745 10.1676 87.2466 10.2192C87.1188 10.2709 87.0037 10.3497 86.9091 10.45C86.8145 10.5504 86.7428 10.67 86.6988 10.8007C86.6548 10.9313 86.6396 11.07 86.6541 11.2071V13.6463H85.8313V9.47687Z" fill="white"/>
<path d="M94.0218 8.43883V9.49586H94.9251V10.189H94.0218V12.3329C94.0218 12.7696 94.2017 12.9609 94.6113 12.9609C94.7162 12.9605 94.821 12.9542 94.9251 12.9419V13.6273C94.7773 13.6537 94.6276 13.6678 94.4775 13.6693C93.5624 13.6693 93.198 13.3474 93.198 12.5435V10.1889H92.5361V9.49583H93.198V8.43883H94.0218Z" fill="white"/>
<path d="M96.0491 7.84926H96.8647V10.1469H96.9298C97.0392 9.90679 97.2199 9.70624 97.4474 9.57258C97.6749 9.43893 97.9381 9.37867 98.2011 9.40001C98.4029 9.38903 98.6046 9.42272 98.7919 9.49869C98.9792 9.57465 99.1475 9.69101 99.2846 9.83947C99.4218 9.98794 99.5244 10.1648 99.5854 10.3576C99.6463 10.5503 99.6639 10.7541 99.637 10.9544V13.6463H98.8133V11.1574C98.8133 10.4914 98.5031 10.1541 97.9218 10.1541C97.7803 10.1425 97.6381 10.162 97.505 10.2111C97.3718 10.2602 97.251 10.3378 97.151 10.4385C97.0511 10.5392 96.9743 10.6605 96.9261 10.794C96.8778 10.9274 96.8594 11.0698 96.872 11.2112V13.6462H96.0491L96.0491 7.84926Z" fill="white"/>
<path d="M104.435 12.5205C104.323 12.9015 104.081 13.2312 103.751 13.4517C103.42 13.6722 103.023 13.7695 102.628 13.7267C102.354 13.734 102.081 13.6814 101.828 13.5725C101.576 13.4637 101.35 13.3013 101.167 13.0965C100.984 12.8918 100.847 12.6496 100.767 12.3868C100.687 12.124 100.665 11.8469 100.702 11.5747C100.666 11.3016 100.688 11.0239 100.768 10.7603C100.848 10.4967 100.984 10.2534 101.166 10.0469C101.349 9.84034 101.573 9.67537 101.825 9.56314C102.076 9.45091 102.349 9.39405 102.625 9.39639C103.785 9.39639 104.485 10.189 104.485 11.4982V11.7854H101.54V11.8315C101.528 11.9845 101.547 12.1385 101.597 12.2836C101.647 12.4288 101.727 12.5618 101.831 12.6743C101.936 12.7868 102.063 12.8761 102.204 12.9367C102.345 12.9972 102.497 13.0276 102.651 13.0259C102.848 13.0496 103.047 13.0141 103.224 12.9241C103.4 12.8341 103.546 12.6936 103.643 12.5205L104.435 12.5205ZM101.54 11.1768H103.646C103.657 11.0369 103.638 10.8963 103.591 10.7642C103.543 10.632 103.469 10.5112 103.372 10.4095C103.276 10.3078 103.159 10.2274 103.029 10.1735C102.9 10.1197 102.76 10.0935 102.62 10.0967C102.478 10.0949 102.337 10.1216 102.205 10.1753C102.073 10.229 101.953 10.3085 101.853 10.4091C101.752 10.5098 101.672 10.6296 101.619 10.7614C101.565 10.8933 101.539 11.0345 101.54 11.1768H101.54Z" fill="white"/>
</svg>
