<svg width="1440" height="1024" viewBox="0 0 1440 1024" fill="none" xmlns="http://www.w3.org/2000/svg">
<rect width="1440" height="1024" fill="#F5D9A8"/>
<path fill-rule="evenodd" clip-rule="evenodd" d="M1158.29 -41.7837C1154.84 -40.859 1152.14 -38.1635 1151.22 -34.7126L1128.32 50.7264C1127.4 54.1774 1128.38 57.8594 1130.91 60.3857L1193.46 122.931C1195.98 125.458 1199.66 126.444 1203.12 125.52L1288.55 102.626C1292.01 101.702 1294.7 99.0061 1295.63 95.5552L1318.52 10.1162C1319.44 6.66526 1318.46 2.98318 1315.93 0.456924L1253.39 -62.0888C1250.86 -64.615 1247.18 -65.6016 1243.73 -64.677L1158.29 -41.7837ZM941.933 71.8611C938.482 72.7857 935.786 75.4812 934.862 78.9321L924.909 116.075C923.985 119.526 924.971 123.208 927.498 125.734L954.688 152.924C957.214 155.451 960.896 156.437 964.347 155.513L1001.49 145.56C1004.94 144.636 1007.64 141.94 1008.56 138.489L1018.51 101.346C1019.44 97.8956 1018.45 94.2135 1015.93 91.6872L988.735 64.4969C986.208 61.9706 982.526 60.984 979.076 61.9087L941.933 71.8611ZM867.696 367.355C875.155 369.26 881.878 362.375 879.797 354.964L865.755 304.936C863.674 297.524 854.351 295.144 848.972 300.652L812.668 337.827C807.29 343.334 809.89 352.599 817.349 354.503L867.696 367.355ZM1233 378C1233 447.036 1177.04 503 1108 503C1038.96 503 983 447.036 983 378C983 308.964 1038.96 253 1108 253C1177.04 253 1233 308.964 1233 378ZM-40.4933 454.78C-41.8606 447.204 -34.5144 440.989 -27.2701 443.593L143.877 505.104C151.122 507.707 152.831 517.177 146.954 522.149L8.11041 639.611C2.23343 644.583 -6.82199 641.329 -8.18935 633.753L-40.4933 454.78ZM1330.47 202.152C1323.23 199.548 1315.88 205.763 1317.25 213.339L1326.48 264.474C1327.85 272.05 1336.9 275.304 1342.78 270.332L1382.45 236.772C1388.32 231.8 1386.62 222.33 1379.37 219.727L1330.47 202.152ZM477 243C477 262.33 461.33 278 442 278C422.67 278 407 262.33 407 243C407 223.67 422.67 208 442 208C461.33 208 477 223.67 477 243ZM1404.8 425.381C1401.29 424.733 1397.7 426.008 1395.38 428.726L1337.98 496.028C1335.66 498.746 1334.97 502.495 1336.17 505.862L1365.75 589.22C1366.95 592.587 1369.85 595.06 1373.36 595.709L1460.34 611.765C1463.86 612.414 1467.45 611.138 1469.77 608.42L1527.17 541.118C1529.48 538.4 1530.18 534.651 1528.98 531.284L1499.39 447.926C1498.2 444.56 1495.3 442.086 1491.79 441.437L1404.8 425.381ZM773.071 547.355C769.166 543.45 769.166 537.118 773.071 533.213L787.213 519.071C791.118 515.166 797.45 515.166 801.355 519.071L815.497 533.213C819.403 537.118 819.403 543.45 815.497 547.355L801.355 561.497C797.45 565.403 791.118 565.403 787.213 561.497L773.071 547.355ZM498.287 380.216C494.837 381.141 492.141 383.837 491.216 387.287L468.323 472.727C467.398 476.177 468.385 479.859 470.911 482.386L533.457 544.931C535.983 547.458 539.665 548.444 543.116 547.52L628.555 524.626C632.006 523.702 634.702 521.006 635.626 517.555L658.52 432.116C659.444 428.665 658.458 424.983 655.931 422.457L593.386 359.911C590.859 357.385 587.177 356.398 583.727 357.323L498.287 380.216ZM591.072 211.493C587.167 207.587 587.167 201.256 591.072 197.351L718.351 70.0714C722.256 66.1661 728.588 66.1661 732.493 70.0714L859.772 197.351C863.678 201.256 863.678 207.587 859.772 211.493L732.493 338.772C728.588 342.677 722.256 342.677 718.351 338.772L591.072 211.493ZM812.072 790.213C808.167 794.118 808.167 800.45 812.072 804.355L847.427 839.711C851.332 843.616 857.664 843.616 861.569 839.711L896.925 804.355C900.83 800.45 900.83 794.118 896.925 790.213L861.569 754.858C857.664 750.953 851.332 750.953 847.427 754.858L812.072 790.213ZM500 55C500 49.4771 504.477 45 510 45H540C545.523 45 550 49.4771 550 55V85C550 90.5228 545.523 95 540 95H510C504.477 95 500 90.5228 500 85V55ZM1346 702C1357.05 702 1366 693.046 1366 682C1366 670.954 1357.05 662 1346 662C1334.95 662 1326 670.954 1326 682C1326 693.046 1334.95 702 1346 702ZM773.517 1013.17C766.507 1009.99 765.569 1000.41 771.829 995.931L884.508 915.286C890.767 910.806 899.53 914.782 900.28 922.444L913.782 1060.35C914.532 1068.01 906.707 1073.61 899.697 1070.43L773.517 1013.17ZM800.72 68.8609C797.269 69.7856 794.573 72.4811 793.649 75.932L791.461 84.097C790.536 87.5479 791.523 91.23 794.049 93.7562L800.026 99.7334C802.552 102.26 806.234 103.246 809.685 102.322L817.85 100.134C821.301 99.2091 823.997 96.5136 824.921 93.0627L827.109 84.8978C828.034 81.4468 827.047 77.7647 824.521 75.2385L818.544 69.2613C816.018 66.7351 812.336 65.7485 808.885 66.6731L800.72 68.8609ZM1118 945C1118 964.33 1102.33 980 1083 980C1063.67 980 1048 964.33 1048 945C1048 925.67 1063.67 910 1083 910C1102.33 910 1118 925.67 1118 945ZM73.0202 897.464C65.7759 894.86 58.4296 901.075 59.797 908.651L64.4119 934.218C65.7792 941.794 74.8346 945.049 80.7116 940.077L100.546 923.296C106.423 918.324 104.714 908.855 97.4698 906.251L73.0202 897.464ZM1433 901C1433 942.421 1399.42 976 1358 976C1316.58 976 1283 942.421 1283 901C1283 859.579 1316.58 826 1358 826C1399.42 826 1433 859.579 1433 901ZM315.472 357.152C308.228 354.548 300.882 360.763 302.249 368.339L311.479 419.474C312.846 427.05 321.901 430.304 327.778 425.332L367.448 391.772C373.325 386.8 371.616 377.33 364.371 374.727L315.472 357.152ZM40.0712 217.492C36.166 213.587 36.166 207.256 40.0712 203.35L167.35 76.0711C171.256 72.1658 177.587 72.1658 181.493 76.0711L308.772 203.35C312.677 207.256 312.677 213.587 308.772 217.492L181.493 344.772C177.587 348.677 171.256 348.677 167.35 344.772L40.0712 217.492ZM288 743C329.422 743 363 709.421 363 668C363 626.579 329.422 593 288 593C246.579 593 213 626.579 213 668C213 709.421 246.579 743 288 743ZM333.071 958.492C329.166 954.587 329.166 948.256 333.071 944.35L460.35 817.071C464.256 813.166 470.587 813.166 474.492 817.071L601.772 944.35C605.677 948.256 605.677 954.587 601.772 958.492L474.492 1085.77C470.587 1089.68 464.256 1089.68 460.35 1085.77L333.071 958.492ZM1012.92 564.497C1009.4 563.848 1005.81 565.123 1003.49 567.842L946.097 635.144C943.778 637.862 943.086 641.611 944.281 644.977L973.868 728.336C975.063 731.702 977.963 734.176 981.477 734.824L1068.46 750.881C1071.97 751.529 1075.57 750.254 1077.88 747.536L1135.28 680.234C1137.6 677.516 1138.29 673.767 1137.1 670.4L1107.51 587.042C1106.31 583.675 1103.41 581.202 1099.9 580.553L1012.92 564.497ZM568.507 650.78C567.139 643.204 574.486 636.989 581.73 639.593L752.877 701.104C760.122 703.707 761.831 713.177 755.954 718.149L617.11 835.611C611.233 840.583 602.178 837.329 600.811 829.753L568.507 650.78ZM238 859C249.046 859 258 850.046 258 839C258 827.954 249.046 819 238 819C226.954 819 218 827.954 218 839C218 850.046 226.954 859 238 859ZM352 0C352 19.33 336.33 35 317 35C297.67 35 282 19.33 282 0C282 -19.33 297.67 -35 317 -35C336.33 -35 352 -19.33 352 0ZM461.719 611.648C458.268 612.573 455.573 615.268 454.648 618.719L452.46 626.884C451.535 630.335 452.522 634.017 455.048 636.543L461.025 642.52C463.552 645.047 467.234 646.033 470.685 645.108L478.85 642.921C482.301 641.996 484.996 639.301 485.921 635.85L488.109 627.685C489.033 624.234 488.047 620.552 485.52 618.025L479.543 612.048C477.017 609.522 473.335 608.535 469.884 609.46L461.719 611.648Z" fill="#F5D9A8" fill-opacity="0.2"/>
<path d="M1151.22 -34.7126L1150.73 -34.842L1150.73 -34.842L1151.22 -34.7126ZM1158.29 -41.7837L1158.42 -41.3007L1158.42 -41.3007L1158.29 -41.7837ZM1128.32 50.7264L1128.81 50.8559L1128.81 50.8558L1128.32 50.7264ZM1130.91 60.3857L1130.56 60.7392L1130.56 60.7392L1130.91 60.3857ZM1193.46 122.931L1193.81 122.578L1193.81 122.578L1193.46 122.931ZM1203.12 125.52L1203.25 126.003L1203.25 126.003L1203.12 125.52ZM1288.55 102.626L1288.43 102.143L1288.43 102.143L1288.55 102.626ZM1295.63 95.5552L1296.11 95.6846L1296.11 95.6846L1295.63 95.5552ZM1318.52 10.1162L1318.04 9.98677L1318.04 9.98677L1318.52 10.1162ZM1315.93 0.456924L1315.58 0.810478L1315.58 0.810485L1315.93 0.456924ZM1253.39 -62.0888L1253.03 -61.7352L1253.03 -61.7352L1253.39 -62.0888ZM1243.73 -64.677L1243.6 -65.1599L1243.6 -65.1599L1243.73 -64.677ZM934.862 78.9321L934.379 78.8027L934.379 78.8027L934.862 78.9321ZM941.933 71.8611L942.062 72.344L942.062 72.344L941.933 71.8611ZM924.909 116.075L925.392 116.204L925.392 116.204L924.909 116.075ZM964.347 155.513L964.477 155.996L964.477 155.996L964.347 155.513ZM1001.49 145.56L1001.36 145.077L1001.36 145.077L1001.49 145.56ZM1008.56 138.489L1009.04 138.619L1009.04 138.619L1008.56 138.489ZM1018.51 101.346L1018.03 101.217L1018.03 101.217L1018.51 101.346ZM1015.93 91.6872L1016.28 91.3337L1016.28 91.3337L1015.93 91.6872ZM988.735 64.4969L988.381 64.8504L988.381 64.8504L988.735 64.4969ZM979.076 61.9087L979.205 62.3916L979.205 62.3916L979.076 61.9087ZM879.797 354.964L879.316 355.099L879.316 355.099L879.797 354.964ZM867.696 367.355L867.82 366.871L867.82 366.871L867.696 367.355ZM865.755 304.936L865.273 305.071L865.273 305.071L865.755 304.936ZM848.972 300.652L849.33 301.001L849.33 301.001L848.972 300.652ZM812.668 337.827L813.026 338.176L813.026 338.176L812.668 337.827ZM817.349 354.503L817.226 354.987L817.226 354.987L817.349 354.503ZM-27.2701 443.593L-27.4392 444.063L-27.4392 444.063L-27.2701 443.593ZM-40.4933 454.78L-40.0012 454.691L-40.0012 454.691L-40.4933 454.78ZM143.877 505.104L143.708 505.574L143.708 505.574L143.877 505.104ZM146.954 522.149L146.631 521.767L146.631 521.767L146.954 522.149ZM8.11041 639.611L7.78747 639.23L7.78747 639.23L8.11041 639.611ZM-8.18935 633.753L-8.6814 633.842L-8.6814 633.842L-8.18935 633.753ZM1317.25 213.339L1317.74 213.25L1317.74 213.25L1317.25 213.339ZM1330.47 202.152L1330.3 202.623L1330.3 202.623L1330.47 202.152ZM1326.48 264.474L1325.99 264.563L1325.99 264.563L1326.48 264.474ZM1342.78 270.332L1342.46 269.951L1342.46 269.951L1342.78 270.332ZM1382.45 236.772L1382.77 237.153L1382.77 237.153L1382.45 236.772ZM1379.37 219.727L1379.54 219.256L1379.54 219.256L1379.37 219.727ZM1395.38 428.726L1395 428.402L1395 428.402L1395.38 428.726ZM1404.8 425.381L1404.89 424.889L1404.89 424.889L1404.8 425.381ZM1337.98 496.028L1338.36 496.352L1338.36 496.352L1337.98 496.028ZM1336.17 505.862L1335.69 506.029L1335.69 506.029L1336.17 505.862ZM1365.75 589.22L1365.28 589.387L1365.28 589.387L1365.75 589.22ZM1373.36 595.709L1373.45 595.217L1373.45 595.217L1373.36 595.709ZM1460.34 611.765L1460.25 612.257L1460.25 612.257L1460.34 611.765ZM1469.77 608.42L1469.39 608.096L1469.39 608.096L1469.77 608.42ZM1527.17 541.118L1527.55 541.443L1527.55 541.443L1527.17 541.118ZM1528.98 531.284L1528.51 531.452L1528.51 531.452L1528.98 531.284ZM1499.39 447.926L1498.92 448.094L1498.92 448.094L1499.39 447.926ZM1491.79 441.437L1491.69 441.929L1491.69 441.929L1491.79 441.437ZM491.216 387.287L490.733 387.158L490.733 387.158L491.216 387.287ZM498.287 380.216L498.417 380.699L498.417 380.699L498.287 380.216ZM468.323 472.727L467.84 472.597L467.84 472.597L468.323 472.727ZM543.116 547.52L542.987 547.037L542.987 547.037L543.116 547.52ZM628.555 524.626L628.685 525.109L628.685 525.109L628.555 524.626ZM635.626 517.555L636.109 517.685L636.109 517.685L635.626 517.555ZM658.52 432.116L658.037 431.987L658.037 431.987L658.52 432.116ZM583.727 357.323L583.597 356.84L583.597 356.84L583.727 357.323ZM591.072 197.351L590.718 196.997L590.718 196.997L591.072 197.351ZM591.072 211.493L590.718 211.846L590.718 211.846L591.072 211.493ZM718.351 70.0714L717.997 69.7178L717.997 69.7178L718.351 70.0714ZM732.493 70.0714L732.847 69.7178L732.847 69.7178L732.493 70.0714ZM859.772 197.351L860.126 196.997L860.126 196.997L859.772 197.351ZM859.772 211.493L860.126 211.846L860.126 211.846L859.772 211.493ZM732.493 338.772L732.847 339.125L732.847 339.125L732.493 338.772ZM718.351 338.772L717.997 339.125L717.997 339.125L718.351 338.772ZM771.829 995.931L772.12 996.338L772.12 996.338L771.829 995.931ZM773.517 1013.17L773.724 1012.71L773.724 1012.71L773.517 1013.17ZM884.508 915.286L884.799 915.693L884.799 915.693L884.508 915.286ZM900.28 922.444L899.782 922.492L899.782 922.492L900.28 922.444ZM913.782 1060.35L913.284 1060.4L913.284 1060.4L913.782 1060.35ZM899.697 1070.43L899.903 1069.97L899.903 1069.97L899.697 1070.43ZM793.649 75.932L793.166 75.8026L793.166 75.8026L793.649 75.932ZM800.72 68.8609L800.849 69.3439L800.849 69.3439L800.72 68.8609ZM791.461 84.097L790.978 83.9676L790.978 83.9676L791.461 84.097ZM809.685 102.322L809.556 101.839L809.556 101.839L809.685 102.322ZM817.85 100.134L817.721 99.6508L817.721 99.6508L817.85 100.134ZM824.921 93.0627L825.404 93.1921L825.404 93.1921L824.921 93.0627ZM827.109 84.8978L827.592 85.0272L827.592 85.0272L827.109 84.8978ZM808.885 66.6731L809.014 67.1561L809.014 67.1561L808.885 66.6731ZM59.797 908.651L60.2891 908.562L60.2891 908.562L59.797 908.651ZM73.0202 897.464L72.8511 897.934L72.8511 897.934L73.0202 897.464ZM64.4119 934.218L63.9198 934.307L63.9198 934.307L64.4119 934.218ZM80.7116 940.077L81.0345 940.458L81.0345 940.458L80.7116 940.077ZM100.546 923.296L100.869 923.678L100.869 923.678L100.546 923.296ZM97.4698 906.251L97.6389 905.781L97.6389 905.781L97.4698 906.251ZM302.249 368.339L302.741 368.25L302.741 368.25L302.249 368.339ZM315.472 357.152L315.303 357.623L315.303 357.623L315.472 357.152ZM311.479 419.474L311.971 419.385L311.971 419.385L311.479 419.474ZM327.778 425.332L327.455 424.951L327.455 424.951L327.778 425.332ZM367.448 391.772L367.125 391.39L367.125 391.39L367.448 391.772ZM364.371 374.727L364.202 375.197L364.202 375.197L364.371 374.727ZM40.0712 203.35L39.7177 202.997L39.7177 202.997L40.0712 203.35ZM40.0712 217.492L39.7177 217.846L39.7177 217.846L40.0712 217.492ZM167.35 76.0711L167.704 76.4246L167.704 76.4246L167.35 76.0711ZM181.493 76.0711L181.139 76.4246L181.139 76.4246L181.493 76.0711ZM308.772 203.35L309.125 202.997L309.125 202.997L308.772 203.35ZM308.772 217.492L309.125 217.846L309.125 217.846L308.772 217.492ZM181.493 344.772L181.139 344.418L181.139 344.418L181.493 344.772ZM167.35 344.772L167.704 344.418L167.704 344.418L167.35 344.772ZM333.071 944.35L333.425 944.704L333.425 944.704L333.071 944.35ZM333.071 958.492L333.425 958.139L333.425 958.139L333.071 958.492ZM460.35 817.071L460.704 817.425L460.704 817.425L460.35 817.071ZM474.492 817.071L474.139 817.425L474.139 817.425L474.492 817.071ZM601.772 958.492L601.418 958.139L601.418 958.139L601.772 958.492ZM474.492 1085.77L474.846 1086.13L474.846 1086.13L474.492 1085.77ZM460.35 1085.77L459.997 1086.13L459.997 1086.13L460.35 1085.77ZM1003.49 567.842L1003.11 567.517L1003.11 567.517L1003.49 567.842ZM1012.92 564.497L1012.83 564.989L1012.83 564.989L1012.92 564.497ZM946.097 635.144L945.716 634.819L945.716 634.819L946.097 635.144ZM944.281 644.977L944.753 644.81L944.753 644.81L944.281 644.977ZM973.868 728.336L974.339 728.168L974.339 728.168L973.868 728.336ZM981.477 734.824L981.568 734.333L981.568 734.333L981.477 734.824ZM1068.46 750.881L1068.37 751.372L1068.37 751.372L1068.46 750.881ZM1077.88 747.536L1077.5 747.211L1077.5 747.211L1077.88 747.536ZM1135.28 680.234L1135.66 680.559L1135.66 680.559L1135.28 680.234ZM1137.1 670.4L1136.63 670.568L1136.63 670.568L1137.1 670.4ZM1107.51 587.042L1107.04 587.209L1107.04 587.209L1107.51 587.042ZM1099.9 580.553L1099.99 580.062L1099.99 580.062L1099.9 580.553ZM581.73 639.593L581.899 639.122L581.899 639.122L581.73 639.593ZM568.507 650.78L568.999 650.691L568.999 650.691L568.507 650.78ZM752.877 701.104L752.708 701.574L752.708 701.574L752.877 701.104ZM755.954 718.149L755.631 717.767L755.631 717.767L755.954 718.149ZM617.11 835.611L616.787 835.23L616.787 835.23L617.11 835.611ZM600.811 829.753L601.303 829.664L601.303 829.664L600.811 829.753ZM454.648 618.719L455.131 618.848L455.131 618.848L454.648 618.719ZM461.719 611.648L461.589 611.165L461.589 611.165L461.719 611.648ZM452.46 626.884L452.943 627.013L452.943 627.013L452.46 626.884ZM455.048 636.543L455.402 636.19L455.402 636.19L455.048 636.543ZM470.685 645.108L470.555 644.625L470.555 644.625L470.685 645.108ZM478.85 642.921L478.979 643.404L478.979 643.404L478.85 642.921ZM485.921 635.85L486.404 635.979L486.404 635.979L485.921 635.85ZM488.109 627.685L488.591 627.814L488.591 627.814L488.109 627.685ZM469.884 609.46L470.013 609.943L470.013 609.943L469.884 609.46ZM1151.7 -34.5832C1152.58 -37.8616 1155.14 -40.4223 1158.42 -41.3007L1158.16 -42.2666C1154.53 -41.2957 1151.7 -38.4655 1150.73 -34.842L1151.7 -34.5832ZM1128.81 50.8558L1151.7 -34.5832L1150.73 -34.842L1127.84 50.597L1128.81 50.8558ZM1131.26 60.0321C1128.86 57.6322 1127.93 54.1342 1128.81 50.8559L1127.84 50.597C1126.87 54.2205 1127.9 58.0867 1130.56 60.7392L1131.26 60.0321ZM1193.81 122.578L1131.26 60.0321L1130.56 60.7392L1193.1 123.285L1193.81 122.578ZM1202.99 125.037C1199.71 125.915 1196.21 124.978 1193.81 122.578L1193.1 123.285C1195.76 125.938 1199.62 126.973 1203.25 126.003L1202.99 125.037ZM1288.43 102.143L1202.99 125.037L1203.25 126.003L1288.68 103.109L1288.43 102.143ZM1295.14 95.4258C1294.26 98.7042 1291.7 101.265 1288.43 102.143L1288.68 103.109C1292.31 102.138 1295.14 99.3081 1296.11 95.6846L1295.14 95.4258ZM1318.04 9.98677L1295.14 95.4258L1296.11 95.6846L1319 10.2456L1318.04 9.98677ZM1315.58 0.810485C1317.98 3.21043 1318.91 6.70839 1318.04 9.98677L1319 10.2456C1319.97 6.62213 1318.94 2.75594 1316.28 0.103364L1315.58 0.810485ZM1253.03 -61.7352L1315.58 0.810478L1316.28 0.103371L1253.74 -62.4423L1253.03 -61.7352ZM1243.86 -64.194C1247.13 -65.0725 1250.63 -64.1352 1253.03 -61.7352L1253.74 -62.4423C1251.09 -65.0949 1247.22 -66.1308 1243.6 -65.1599L1243.86 -64.194ZM1158.42 -41.3007L1243.86 -64.194L1243.6 -65.1599L1158.16 -42.2666L1158.42 -41.3007ZM935.345 79.0615C936.223 75.7832 938.784 73.2225 942.062 72.344L941.803 71.3781C938.18 72.349 935.35 75.1792 934.379 78.8027L935.345 79.0615ZM925.392 116.204L935.345 79.0615L934.379 78.8027L924.426 115.945L925.392 116.204ZM927.851 125.381C925.451 122.981 924.514 119.483 925.392 116.204L924.426 115.945C923.455 119.569 924.491 123.435 927.144 126.088L927.851 125.381ZM955.041 152.571L927.851 125.381L927.144 126.088L954.334 153.278L955.041 152.571ZM964.218 155.03C960.939 155.908 957.441 154.971 955.041 152.571L954.334 153.278C956.987 155.931 960.853 156.967 964.477 155.996L964.218 155.03ZM1001.36 145.077L964.218 155.03L964.477 155.996L1001.62 146.043L1001.36 145.077ZM1008.08 138.36C1007.2 141.638 1004.64 144.199 1001.36 145.077L1001.62 146.043C1005.24 145.072 1008.07 142.242 1009.04 138.619L1008.08 138.36ZM1018.03 101.217L1008.08 138.36L1009.04 138.619L1019 101.476L1018.03 101.217ZM1015.57 92.0408C1017.97 94.4407 1018.91 97.9387 1018.03 101.217L1019 101.476C1019.97 97.8525 1018.93 93.9862 1016.28 91.3337L1015.57 92.0408ZM988.381 64.8504L1015.57 92.0408L1016.28 91.3337L989.088 64.1433L988.381 64.8504ZM979.205 62.3916C982.483 61.5132 985.981 62.4505 988.381 64.8504L989.088 64.1433C986.436 61.4908 982.57 60.4548 978.946 61.4257L979.205 62.3916ZM942.062 72.344L979.205 62.3916L978.946 61.4257L941.803 71.3781L942.062 72.344ZM879.316 355.099C881.293 362.14 874.906 368.68 867.82 366.871L867.572 367.84C875.404 369.839 882.463 362.611 880.279 354.829L879.316 355.099ZM865.273 305.071L879.316 355.099L880.279 354.829L866.236 304.801L865.273 305.071ZM849.33 301.001C854.44 295.769 863.297 298.03 865.273 305.071L866.236 304.801C864.052 297.018 854.262 294.519 848.615 300.302L849.33 301.001ZM813.026 338.176L849.33 301.001L848.615 300.302L812.311 337.478L813.026 338.176ZM817.473 354.018C810.387 352.21 807.917 343.408 813.026 338.176L812.311 337.478C806.663 343.26 809.394 352.988 817.226 354.987L817.473 354.018ZM867.82 366.871L817.473 354.018L817.226 354.987L867.572 367.84L867.82 366.871ZM1108 503.5C1177.31 503.5 1233.5 447.312 1233.5 378H1232.5C1232.5 446.759 1176.76 502.5 1108 502.5V503.5ZM982.5 378C982.5 447.312 1038.69 503.5 1108 503.5V502.5C1039.24 502.5 983.5 446.759 983.5 378H982.5ZM1108 252.5C1038.69 252.5 982.5 308.688 982.5 378H983.5C983.5 309.241 1039.24 253.5 1108 253.5V252.5ZM1233.5 378C1233.5 308.688 1177.31 252.5 1108 252.5V253.5C1176.76 253.5 1232.5 309.241 1232.5 378H1233.5ZM-27.101 443.122C-34.7075 440.389 -42.4211 446.914 -40.9853 454.869L-40.0012 454.691C-41.3002 447.494 -34.3213 441.59 -27.4392 444.063L-27.101 443.122ZM144.046 504.633L-27.101 443.122L-27.4392 444.063L143.708 505.574L144.046 504.633ZM147.277 522.53C153.448 517.31 151.653 507.367 144.046 504.633L143.708 505.574C150.59 508.047 152.214 517.044 146.631 521.767L147.277 522.53ZM8.43335 639.993L147.277 522.53L146.631 521.767L7.78747 639.23L8.43335 639.993ZM-8.6814 633.842C-7.24567 641.796 2.26252 645.214 8.43335 639.993L7.78747 639.23C2.20434 643.953 -6.39831 640.861 -7.6973 633.664L-8.6814 633.842ZM-40.9853 454.869L-8.6814 633.842L-7.6973 633.664L-40.0012 454.691L-40.9853 454.869ZM1317.74 213.25C1316.44 206.053 1323.42 200.149 1330.3 202.623L1330.64 201.682C1323.03 198.948 1315.32 205.473 1316.76 213.428L1317.74 213.25ZM1326.97 264.385L1317.74 213.25L1316.76 213.428L1325.99 264.563L1326.97 264.385ZM1342.46 269.951C1336.87 274.674 1328.27 271.582 1326.97 264.385L1325.99 264.563C1327.42 272.517 1336.93 275.935 1343.1 270.714L1342.46 269.951ZM1382.12 236.39L1342.46 269.951L1343.1 270.714L1382.77 237.153L1382.12 236.39ZM1379.2 220.197C1386.08 222.67 1387.71 231.666 1382.12 236.39L1382.77 237.153C1388.94 231.933 1387.15 221.99 1379.54 219.256L1379.2 220.197ZM1330.3 202.623L1379.2 220.197L1379.54 219.256L1330.64 201.682L1330.3 202.623ZM442 278.5C461.606 278.5 477.5 262.606 477.5 243H476.5C476.5 262.054 461.054 277.5 442 277.5V278.5ZM406.5 243C406.5 262.606 422.394 278.5 442 278.5V277.5C422.946 277.5 407.5 262.054 407.5 243H406.5ZM442 207.5C422.394 207.5 406.5 223.394 406.5 243H407.5C407.5 223.946 422.946 208.5 442 208.5V207.5ZM477.5 243C477.5 223.394 461.606 207.5 442 207.5V208.5C461.054 208.5 476.5 223.946 476.5 243H477.5ZM1395.76 429.05C1397.96 426.468 1401.37 425.257 1404.71 425.873L1404.89 424.889C1401.2 424.209 1397.43 425.547 1395 428.402L1395.76 429.05ZM1338.36 496.352L1395.76 429.05L1395 428.402L1337.6 495.703L1338.36 496.352ZM1336.64 505.694C1335.5 502.496 1336.16 498.935 1338.36 496.352L1337.6 495.703C1335.17 498.558 1334.44 502.494 1335.69 506.029L1336.64 505.694ZM1366.22 589.052L1336.64 505.694L1335.69 506.029L1365.28 589.387L1366.22 589.052ZM1373.45 595.217C1370.11 594.601 1367.36 592.251 1366.22 589.052L1365.28 589.387C1366.54 592.922 1369.58 595.519 1373.27 596.2L1373.45 595.217ZM1460.44 611.273L1373.45 595.217L1373.27 596.2L1460.25 612.257L1460.44 611.273ZM1469.39 608.096C1467.19 610.678 1463.77 611.889 1460.44 611.273L1460.25 612.257C1463.94 612.938 1467.71 611.599 1470.15 608.745L1469.39 608.096ZM1526.79 540.794L1469.39 608.096L1470.15 608.745L1527.55 541.443L1526.79 540.794ZM1528.51 531.452C1529.64 534.65 1528.99 538.211 1526.79 540.794L1527.55 541.443C1529.98 538.589 1530.71 534.652 1529.45 531.117L1528.51 531.452ZM1498.92 448.094L1528.51 531.452L1529.45 531.117L1499.87 447.759L1498.92 448.094ZM1491.69 441.929C1495.03 442.545 1497.79 444.895 1498.92 448.094L1499.87 447.759C1498.61 444.224 1495.57 441.627 1491.88 440.946L1491.69 441.929ZM1404.71 425.873L1491.69 441.929L1491.88 440.946L1404.89 424.889L1404.71 425.873ZM772.717 532.86C768.617 536.96 768.617 543.608 772.717 547.709L773.425 547.002C769.715 543.292 769.715 537.277 773.425 533.567L772.717 532.86ZM786.86 518.718L772.717 532.86L773.425 533.567L787.567 519.425L786.86 518.718ZM801.709 518.718C797.608 514.617 790.96 514.617 786.86 518.718L787.567 519.425C791.277 515.715 797.292 515.715 801.002 519.425L801.709 518.718ZM815.851 532.86L801.709 518.718L801.002 519.425L815.144 533.567L815.851 532.86ZM815.851 547.709C819.952 543.608 819.952 536.96 815.851 532.86L815.144 533.567C818.854 537.277 818.854 543.292 815.144 547.002L815.851 547.709ZM801.709 561.851L815.851 547.709L815.144 547.002L801.002 561.144L801.709 561.851ZM786.86 561.851C790.96 565.952 797.608 565.952 801.709 561.851L801.002 561.144C797.292 564.854 791.277 564.854 787.567 561.144L786.86 561.851ZM772.717 547.709L786.86 561.851L787.567 561.144L773.425 547.002L772.717 547.709ZM491.699 387.417C492.578 384.139 495.139 381.578 498.417 380.699L498.158 379.733C494.535 380.704 491.704 383.535 490.733 387.158L491.699 387.417ZM468.806 472.856L491.699 387.417L490.733 387.158L467.84 472.597L468.806 472.856ZM471.265 482.032C468.865 479.632 467.928 476.134 468.806 472.856L467.84 472.597C466.869 476.221 467.905 480.087 470.558 482.739L471.265 482.032ZM533.811 544.578L471.265 482.032L470.558 482.739L533.103 545.285L533.811 544.578ZM542.987 547.037C539.708 547.915 536.21 546.978 533.811 544.578L533.103 545.285C535.756 547.938 539.622 548.974 543.246 548.003L542.987 547.037ZM628.426 524.143L542.987 547.037L543.246 548.003L628.685 525.109L628.426 524.143ZM635.143 517.426C634.265 520.704 631.704 523.265 628.426 524.143L628.685 525.109C632.308 524.138 635.138 521.308 636.109 517.685L635.143 517.426ZM658.037 431.987L635.143 517.426L636.109 517.685L659.003 432.246L658.037 431.987ZM655.578 422.811C657.978 425.21 658.915 428.708 658.037 431.987L659.003 432.246C659.974 428.622 658.938 424.756 656.285 422.103L655.578 422.811ZM593.032 360.265L655.578 422.811L656.285 422.103L593.739 359.558L593.032 360.265ZM583.856 357.806C587.134 356.928 590.632 357.865 593.032 360.265L593.739 359.558C591.087 356.905 587.221 355.869 583.597 356.84L583.856 357.806ZM498.417 380.699L583.856 357.806L583.597 356.84L498.158 379.733L498.417 380.699ZM590.718 196.997C586.618 201.098 586.618 207.746 590.718 211.846L591.425 211.139C587.715 207.429 587.715 201.414 591.425 197.704L590.718 196.997ZM717.997 69.7178L590.718 196.997L591.425 197.704L718.705 70.4249L717.997 69.7178ZM732.847 69.7178C728.746 65.6173 722.098 65.6173 717.997 69.7178L718.705 70.4249C722.415 66.7149 728.43 66.7149 732.14 70.4249L732.847 69.7178ZM860.126 196.997L732.847 69.7178L732.14 70.4249L859.419 197.704L860.126 196.997ZM860.126 211.846C864.226 207.746 864.226 201.098 860.126 196.997L859.419 197.704C863.129 201.414 863.129 207.429 859.419 211.139L860.126 211.846ZM732.847 339.125L860.126 211.846L859.419 211.139L732.14 338.418L732.847 339.125ZM717.997 339.125C722.098 343.226 728.746 343.226 732.847 339.125L732.14 338.418C728.43 342.128 722.415 342.128 718.705 338.418L717.997 339.125ZM590.718 211.846L717.997 339.125L718.705 338.418L591.425 211.139L590.718 211.846ZM812.425 804.002C808.715 800.292 808.715 794.277 812.425 790.567L811.718 789.86C807.618 793.96 807.618 800.608 811.718 804.709L812.425 804.002ZM847.781 839.357L812.425 804.002L811.718 804.709L847.074 840.064L847.781 839.357ZM861.216 839.357C857.506 843.067 851.491 843.067 847.781 839.357L847.074 840.064C851.174 844.165 857.822 844.165 861.923 840.064L861.216 839.357ZM896.571 804.002L861.216 839.357L861.923 840.064L897.278 804.709L896.571 804.002ZM896.571 790.567C900.281 794.277 900.281 800.292 896.571 804.002L897.278 804.709C901.379 800.608 901.379 793.96 897.278 789.86L896.571 790.567ZM861.216 755.211L896.571 790.567L897.278 789.86L861.923 754.504L861.216 755.211ZM847.781 755.211C851.491 751.501 857.506 751.501 861.216 755.211L861.923 754.504C857.822 750.404 851.174 750.404 847.074 754.504L847.781 755.211ZM812.425 790.567L847.781 755.211L847.074 754.504L811.718 789.86L812.425 790.567ZM510 44.5C504.201 44.5 499.5 49.201 499.5 55H500.5C500.5 49.7533 504.753 45.5 510 45.5V44.5ZM540 44.5H510V45.5H540V44.5ZM550.5 55C550.5 49.201 545.799 44.5 540 44.5V45.5C545.247 45.5 549.5 49.7533 549.5 55H550.5ZM550.5 85V55H549.5V85H550.5ZM540 95.5C545.799 95.5 550.5 90.799 550.5 85H549.5C549.5 90.2467 545.247 94.5 540 94.5V95.5ZM510 95.5H540V94.5H510V95.5ZM499.5 85C499.5 90.799 504.201 95.5 510 95.5V94.5C504.753 94.5 500.5 90.2467 500.5 85H499.5ZM499.5 55V85H500.5V55H499.5ZM1365.5 682C1365.5 692.77 1356.77 701.5 1346 701.5V702.5C1357.32 702.5 1366.5 693.322 1366.5 682H1365.5ZM1346 662.5C1356.77 662.5 1365.5 671.23 1365.5 682H1366.5C1366.5 670.678 1357.32 661.5 1346 661.5V662.5ZM1326.5 682C1326.5 671.23 1335.23 662.5 1346 662.5V661.5C1334.68 661.5 1325.5 670.678 1325.5 682H1326.5ZM1346 701.5C1335.23 701.5 1326.5 692.77 1326.5 682H1325.5C1325.5 693.322 1334.68 702.5 1346 702.5V701.5ZM771.538 995.525C764.965 1000.23 765.95 1010.28 773.31 1013.62L773.724 1012.71C767.064 1009.69 766.173 1000.59 772.12 996.338L771.538 995.525ZM884.217 914.88L771.538 995.525L772.12 996.338L884.799 915.693L884.217 914.88ZM900.778 922.395C899.99 914.35 890.789 910.175 884.217 914.88L884.799 915.693C890.745 911.437 899.07 915.214 899.782 922.492L900.778 922.395ZM914.279 1060.3L900.778 922.395L899.782 922.492L913.284 1060.4L914.279 1060.3ZM899.49 1070.88C906.851 1074.22 915.067 1068.34 914.279 1060.3L913.284 1060.4C913.997 1067.68 906.563 1073 899.903 1069.97L899.49 1070.88ZM773.31 1013.62L899.49 1070.88L899.903 1069.97L773.724 1012.71L773.31 1013.62ZM794.132 76.0614C795.01 72.783 797.571 70.2223 800.849 69.3439L800.59 68.378C796.967 69.3489 794.137 72.1791 793.166 75.8026L794.132 76.0614ZM791.944 84.2264L794.132 76.0614L793.166 75.8026L790.978 83.9676L791.944 84.2264ZM794.403 93.4027C792.003 91.0027 791.065 87.5047 791.944 84.2264L790.978 83.9676C790.007 87.591 791.043 91.4572 793.695 94.1098L794.403 93.4027ZM800.38 99.3798L794.403 93.4027L793.695 94.1098L799.673 100.087L800.38 99.3798ZM809.556 101.839C806.278 102.717 802.78 101.78 800.38 99.3798L799.673 100.087C802.325 102.74 806.191 103.775 809.815 102.805L809.556 101.839ZM817.721 99.6508L809.556 101.839L809.815 102.805L817.98 100.617L817.721 99.6508ZM824.438 92.9333C823.56 96.2117 820.999 98.7724 817.721 99.6508L817.98 100.617C821.603 99.6459 824.433 96.8156 825.404 93.1921L824.438 92.9333ZM826.626 84.7683L824.438 92.9333L825.404 93.1921L827.592 85.0272L826.626 84.7683ZM824.168 75.592C826.567 77.992 827.505 81.49 826.626 84.7683L827.592 85.0272C828.563 81.4037 827.527 77.5375 824.875 74.8849L824.168 75.592ZM818.19 69.6149L824.168 75.592L824.875 74.8849L818.897 68.9078L818.19 69.6149ZM809.014 67.1561C812.292 66.2777 815.79 67.2149 818.19 69.6149L818.897 68.9078C816.245 66.2552 812.379 65.2193 808.755 66.1902L809.014 67.1561ZM800.849 69.3439L809.014 67.1561L808.755 66.1902L800.59 68.378L800.849 69.3439ZM1083 980.5C1102.61 980.5 1118.5 964.606 1118.5 945H1117.5C1117.5 964.054 1102.05 979.5 1083 979.5V980.5ZM1047.5 945C1047.5 964.606 1063.39 980.5 1083 980.5V979.5C1063.95 979.5 1048.5 964.054 1048.5 945H1047.5ZM1083 909.5C1063.39 909.5 1047.5 925.394 1047.5 945H1048.5C1048.5 925.946 1063.95 910.5 1083 910.5V909.5ZM1118.5 945C1118.5 925.394 1102.61 909.5 1083 909.5V910.5C1102.05 910.5 1117.5 925.946 1117.5 945H1118.5ZM60.2891 908.562C58.9901 901.365 65.969 895.461 72.8511 897.934L73.1893 896.993C65.5828 894.26 57.8692 900.785 59.305 908.74L60.2891 908.562ZM64.9039 934.13L60.2891 908.562L59.305 908.74L63.9198 934.307L64.9039 934.13ZM80.3887 939.695C74.8055 944.418 66.2029 941.326 64.9039 934.13L63.9198 934.307C65.3555 942.262 74.8637 945.679 81.0345 940.458L80.3887 939.695ZM100.223 922.914L80.3887 939.695L81.0345 940.458L100.869 923.678L100.223 922.914ZM97.3007 906.722C104.183 909.195 105.807 918.191 100.223 922.914L100.869 923.678C107.04 918.457 105.246 908.514 97.6389 905.781L97.3007 906.722ZM72.8511 897.934L97.3007 906.722L97.6389 905.781L73.1893 896.993L72.8511 897.934ZM1358 976.5C1399.7 976.5 1433.5 942.698 1433.5 901H1432.5C1432.5 942.145 1399.15 975.5 1358 975.5V976.5ZM1282.5 901C1282.5 942.698 1316.3 976.5 1358 976.5V975.5C1316.85 975.5 1283.5 942.145 1283.5 901H1282.5ZM1358 825.5C1316.3 825.5 1282.5 859.302 1282.5 901H1283.5C1283.5 859.855 1316.85 826.5 1358 826.5V825.5ZM1433.5 901C1433.5 859.302 1399.7 825.5 1358 825.5V826.5C1399.15 826.5 1432.5 859.855 1432.5 901H1433.5ZM302.741 368.25C301.442 361.053 308.421 355.149 315.303 357.623L315.641 356.682C308.035 353.948 300.321 360.473 301.757 368.428L302.741 368.25ZM311.971 419.385L302.741 368.25L301.757 368.428L310.987 419.563L311.971 419.385ZM327.455 424.951C321.872 429.674 313.27 426.582 311.971 419.385L310.987 419.563C312.422 427.517 321.93 430.935 328.101 425.714L327.455 424.951ZM367.125 391.39L327.455 424.951L328.101 425.714L367.771 392.153L367.125 391.39ZM364.202 375.197C371.084 377.67 372.708 386.666 367.125 391.39L367.771 392.153C373.942 386.933 372.147 376.99 364.54 374.256L364.202 375.197ZM315.303 357.623L364.202 375.197L364.54 374.256L315.641 356.682L315.303 357.623ZM39.7177 202.997C35.6172 207.097 35.6172 213.745 39.7177 217.846L40.4248 217.139C36.7148 213.429 36.7148 207.414 40.4248 203.704L39.7177 202.997ZM166.997 75.7175L39.7177 202.997L40.4248 203.704L167.704 76.4246L166.997 75.7175ZM181.846 75.7175C177.746 71.617 171.097 71.617 166.997 75.7175L167.704 76.4246C171.414 72.7146 177.429 72.7146 181.139 76.4246L181.846 75.7175ZM309.125 202.997L181.846 75.7175L181.139 76.4246L308.418 203.704L309.125 202.997ZM309.125 217.846C313.226 213.745 313.226 207.097 309.125 202.997L308.418 203.704C312.128 207.414 312.128 213.429 308.418 217.139L309.125 217.846ZM181.846 345.125L309.125 217.846L308.418 217.139L181.139 344.418L181.846 345.125ZM166.997 345.125C171.097 349.226 177.746 349.226 181.846 345.125L181.139 344.418C177.429 348.128 171.414 348.128 167.704 344.418L166.997 345.125ZM39.7177 217.846L166.997 345.125L167.704 344.418L40.4248 217.139L39.7177 217.846ZM362.5 668C362.5 709.145 329.145 742.5 288 742.5V743.5C329.698 743.5 363.5 709.698 363.5 668H362.5ZM288 593.5C329.145 593.5 362.5 626.855 362.5 668H363.5C363.5 626.302 329.698 592.5 288 592.5V593.5ZM213.5 668C213.5 626.855 246.855 593.5 288 593.5V592.5C246.303 592.5 212.5 626.302 212.5 668H213.5ZM288 742.5C246.855 742.5 213.5 709.145 213.5 668H212.5C212.5 709.698 246.303 743.5 288 743.5V742.5ZM332.718 943.997C328.617 948.097 328.617 954.746 332.718 958.846L333.425 958.139C329.715 954.429 329.715 948.414 333.425 944.704L332.718 943.997ZM459.997 816.718L332.718 943.997L333.425 944.704L460.704 817.425L459.997 816.718ZM474.846 816.718C470.745 812.617 464.097 812.617 459.997 816.718L460.704 817.425C464.414 813.715 470.429 813.715 474.139 817.425L474.846 816.718ZM602.125 943.997L474.846 816.718L474.139 817.425L601.418 944.704L602.125 943.997ZM602.125 958.846C606.226 954.746 606.226 948.097 602.125 943.997L601.418 944.704C605.128 948.414 605.128 954.429 601.418 958.139L602.125 958.846ZM474.846 1086.13L602.125 958.846L601.418 958.139L474.139 1085.42L474.846 1086.13ZM459.997 1086.13C464.097 1090.23 470.745 1090.23 474.846 1086.13L474.139 1085.42C470.429 1089.13 464.414 1089.13 460.704 1085.42L459.997 1086.13ZM332.718 958.846L459.997 1086.13L460.704 1085.42L333.425 958.139L332.718 958.846ZM1003.87 568.166C1006.08 565.584 1009.49 564.373 1012.83 564.989L1013.01 564.005C1009.32 563.324 1005.55 564.663 1003.11 567.517L1003.87 568.166ZM946.477 635.468L1003.87 568.166L1003.11 567.517L945.716 634.819L946.477 635.468ZM944.753 644.81C943.617 641.612 944.275 638.05 946.477 635.468L945.716 634.819C943.282 637.673 942.555 641.609 943.81 645.145L944.753 644.81ZM974.339 728.168L944.753 644.81L943.81 645.145L973.397 728.503L974.339 728.168ZM981.568 734.333C978.23 733.717 975.474 731.367 974.339 728.168L973.397 728.503C974.652 732.038 977.697 734.635 981.386 735.316L981.568 734.333ZM1068.55 750.389L981.568 734.333L981.386 735.316L1068.37 751.372L1068.55 750.389ZM1077.5 747.211C1075.3 749.794 1071.89 751.005 1068.55 750.389L1068.37 751.372C1072.06 752.053 1075.83 750.715 1078.26 747.86L1077.5 747.211ZM1134.9 679.91L1077.5 747.211L1078.26 747.86L1135.66 680.559L1134.9 679.91ZM1136.63 670.568C1137.76 673.766 1137.1 677.327 1134.9 679.91L1135.66 680.559C1138.1 677.704 1138.82 673.768 1137.57 670.233L1136.63 670.568ZM1107.04 587.209L1136.63 670.568L1137.57 670.233L1107.98 586.875L1107.04 587.209ZM1099.81 581.045C1103.15 581.661 1105.9 584.011 1107.04 587.209L1107.98 586.875C1106.73 583.34 1103.68 580.743 1099.99 580.062L1099.81 581.045ZM1012.83 564.989L1099.81 581.045L1099.99 580.062L1013.01 564.005L1012.83 564.989ZM581.899 639.122C574.292 636.389 566.579 642.914 568.015 650.869L568.999 650.691C567.7 643.494 574.679 637.59 581.561 640.063L581.899 639.122ZM753.046 700.633L581.899 639.122L581.561 640.063L752.708 701.574L753.046 700.633ZM756.277 718.53C762.448 713.31 760.653 703.367 753.046 700.633L752.708 701.574C759.59 704.047 761.214 713.044 755.631 717.767L756.277 718.53ZM617.433 835.993L756.277 718.53L755.631 717.767L616.787 835.23L617.433 835.993ZM600.319 829.842C601.754 837.796 611.263 841.214 617.433 835.993L616.787 835.23C611.204 839.953 602.602 836.861 601.303 829.664L600.319 829.842ZM568.015 650.869L600.319 829.842L601.303 829.664L568.999 650.691L568.015 650.869ZM257.5 839C257.5 849.77 248.77 858.5 238 858.5V859.5C249.322 859.5 258.5 850.322 258.5 839H257.5ZM238 819.5C248.77 819.5 257.5 828.23 257.5 839H258.5C258.5 827.678 249.322 818.5 238 818.5V819.5ZM218.5 839C218.5 828.23 227.23 819.5 238 819.5V818.5C226.678 818.5 217.5 827.678 217.5 839H218.5ZM238 858.5C227.23 858.5 218.5 849.77 218.5 839H217.5C217.5 850.322 226.678 859.5 238 859.5V858.5ZM317 35.5C336.606 35.5 352.5 19.6061 352.5 0H351.5C351.5 19.0538 336.054 34.5 317 34.5V35.5ZM281.5 0C281.5 19.6061 297.394 35.5 317 35.5V34.5C297.946 34.5 282.5 19.0538 282.5 0H281.5ZM317 -35.5C297.394 -35.5 281.5 -19.6061 281.5 0H282.5C282.5 -19.0538 297.946 -34.5 317 -34.5V-35.5ZM352.5 0C352.5 -19.6061 336.606 -35.5 317 -35.5V-34.5C336.054 -34.5 351.5 -19.0538 351.5 0H352.5ZM455.131 618.848C456.009 615.57 458.57 613.009 461.848 612.131L461.589 611.165C457.966 612.136 455.136 614.966 454.165 618.589L455.131 618.848ZM452.943 627.013L455.131 618.848L454.165 618.589L451.977 626.754L452.943 627.013ZM455.402 636.19C453.002 633.79 452.065 630.292 452.943 627.013L451.977 626.754C451.006 630.378 452.042 634.244 454.695 636.897L455.402 636.19ZM461.379 642.167L455.402 636.19L454.695 636.897L460.672 642.874L461.379 642.167ZM470.555 644.625C467.277 645.504 463.779 644.567 461.379 642.167L460.672 642.874C463.324 645.526 467.191 646.562 470.814 645.591L470.555 644.625ZM478.72 642.438L470.555 644.625L470.814 645.591L478.979 643.404L478.72 642.438ZM485.438 635.72C484.559 638.999 481.999 641.559 478.72 642.438L478.979 643.404C482.602 642.433 485.433 639.602 486.404 635.979L485.438 635.72ZM487.626 627.555L485.438 635.72L486.404 635.979L488.591 627.814L487.626 627.555ZM485.167 618.379C487.567 620.779 488.504 624.277 487.626 627.555L488.591 627.814C489.562 624.191 488.526 620.324 485.874 617.672L485.167 618.379ZM479.19 612.402L485.167 618.379L485.874 617.672L479.897 611.695L479.19 612.402ZM470.013 609.943C473.292 609.065 476.79 610.002 479.19 612.402L479.897 611.695C477.244 609.042 473.378 608.006 469.754 608.977L470.013 609.943ZM461.848 612.131L470.013 609.943L469.754 608.977L461.589 611.165L461.848 612.131Z" fill="#04101C" fill-opacity="0.2"/>
</svg>
