<svg width="25" height="25" viewBox="0 0 25 25" fill="none" xmlns="http://www.w3.org/2000/svg">
<circle cx="12.5" cy="12.5" r="12.5" fill="#52B87A"/>
<path d="M8.15984 11.533L11.7712 7.19193C11.8743 7.06802 12.0117 7 12.1582 7C12.3048 7 12.4422 7.06811 12.5452 7.19193L12.8731 7.58615C12.9761 7.70987 13.0329 7.87513 13.0329 8.05133C13.0329 8.22743 12.9761 8.39825 12.8731 8.52197L10.7663 11.06H17.4598C17.7615 11.06 18 11.344 18 11.7068V12.2642C18 12.627 17.7615 12.9396 17.4598 12.9396H10.7424L12.8731 15.4918C12.9761 15.6157 13.0328 15.7765 13.0328 15.9527C13.0328 16.1287 12.9761 16.2918 12.8731 16.4156L12.5452 16.8086C12.4421 16.9325 12.3048 17 12.1581 17C12.0116 17 11.8742 16.9316 11.7711 16.8077L8.15976 12.4667C8.05642 12.3424 7.9996 12.1765 8 12.0001C7.99968 11.8231 8.05642 11.6571 8.15984 11.533Z" fill="white"/>
</svg>
