<svg width="21" height="20" viewBox="0 0 21 20" fill="none" xmlns="http://www.w3.org/2000/svg">
<g clip-path="url(#clip0)">
<path d="M10.1168 0C15.6952 0 20.2335 4.48594 20.2335 10C20.2335 15.5141 15.6952 20 10.1168 20C4.53836 20 5.72205e-05 15.5141 5.72205e-05 10C5.72205e-05 4.48594 4.53836 0 10.1168 0ZM10.1168 18.5714C14.8984 18.5714 18.7883 14.7264 18.7883 10C18.7883 5.27355 14.8984 1.42855 10.1168 1.42855C5.33517 1.42855 1.44529 5.27355 1.44529 10C1.44529 14.7264 5.33517 18.5714 10.1168 18.5714Z" fill="black"/>
<path d="M10.1168 5.23809C10.516 5.23809 10.8395 5.55785 10.8395 5.95238V14.0476C10.8395 14.4421 10.516 14.7619 10.1168 14.7619C9.71771 14.7619 9.39421 14.4421 9.39421 14.0476V5.95238C9.39421 5.55785 9.71771 5.23809 10.1168 5.23809Z" fill="black"/>
<path d="M6.02196 9.28571H14.2117C14.6108 9.28571 14.9343 9.60547 14.9343 10C14.9343 10.3945 14.6108 10.7143 14.2117 10.7143H6.02196C5.62282 10.7143 5.29932 10.3945 5.29932 10C5.29932 9.60547 5.62282 9.28571 6.02196 9.28571Z" fill="black"/>
</g>
<defs>
<clipPath id="clip0">
<rect width="20.2335" height="20" fill="white" transform="matrix(-1 0 0 1 20.2335 0)"/>
</clipPath>
</defs>
</svg>
