<svg width="133" height="46" viewBox="0 0 133 46" fill="none" xmlns="http://www.w3.org/2000/svg">
<g clip-path="url(#clip0)" filter="url(#filter0_d)">
<path d="M124.37 0H8.62963C6.07276 0 4 2.07276 4 4.62963V32.4074C4 34.9643 6.07276 37.037 8.62963 37.037H124.37C126.927 37.037 129 34.9643 129 32.4074V4.62963C129 2.07276 126.927 0 124.37 0Z" fill="black"/>
<path d="M124.37 0.740756C125.401 0.741947 126.39 1.15208 127.119 1.88117C127.848 2.61026 128.258 3.59877 128.259 4.62983V32.4076C128.258 33.4387 127.848 34.4272 127.119 35.1562C126.39 35.8853 125.401 36.2955 124.37 36.2967H8.62963C7.59856 36.2955 6.61007 35.8854 5.88102 35.1563C5.15196 34.4272 4.74188 33.4387 4.74074 32.4076V4.62983C4.74186 3.59876 5.15194 2.61024 5.881 1.88114C6.61006 1.15205 7.59856 0.741927 8.62963 0.740756H124.37ZM124.37 0.000200272H8.62963C7.40288 0.0037911 6.2274 0.492707 5.35995 1.36015C4.49251 2.2276 4.00359 3.40308 4 4.62983V32.4076C4.00359 33.6344 4.49251 34.8098 5.35995 35.6773C6.2274 36.5447 7.40288 37.0336 8.62963 37.0372H124.37C125.597 37.0336 126.773 36.5447 127.64 35.6773C128.507 34.8098 128.996 33.6344 129 32.4076V4.62983C128.996 3.40308 128.507 2.2276 127.64 1.36015C126.773 0.492707 125.597 0.0037911 124.37 0.000200272Z" fill="#A6A6A6"/>
<path d="M47.9059 9.48454C47.9227 9.8243 47.8702 10.1639 47.7516 10.4828C47.633 10.8016 47.4507 11.0929 47.2159 11.3391C46.9527 11.612 46.6349 11.8263 46.2832 11.9679C45.9316 12.1096 45.5539 12.1754 45.1751 12.161C44.7938 12.1644 44.4157 12.0916 44.0629 11.9468C43.7102 11.802 43.39 11.5881 43.1211 11.3178C42.8522 11.0475 42.6401 10.7261 42.4972 10.3726C42.3542 10.0191 42.2834 9.64061 42.2889 9.25935C42.2835 8.87809 42.3543 8.49959 42.4972 8.14609C42.6402 7.79258 42.8523 7.47121 43.1212 7.20085C43.3901 6.93049 43.7103 6.71658 44.063 6.57171C44.4157 6.42684 44.7938 6.35391 45.1751 6.35722C45.5671 6.35604 45.9552 6.4353 46.3153 6.59009C46.6498 6.72569 46.9476 6.93838 47.1843 7.21084L46.696 7.69954C46.5099 7.48051 46.276 7.30717 46.0123 7.19288C45.7486 7.07859 45.4621 7.02641 45.1751 7.04037C44.8861 7.03888 44.5998 7.09572 44.3333 7.20749C44.0669 7.31926 43.8257 7.48366 43.6242 7.69084C43.4228 7.89803 43.2653 8.14374 43.161 8.41325C43.0568 8.68277 43.008 8.97055 43.0177 9.25935C43.0108 9.69194 43.1325 10.1168 43.3674 10.4802C43.6023 10.8435 43.9398 11.1288 44.3371 11.3001C44.7344 11.4713 45.1736 11.5208 45.5991 11.4421C46.0245 11.3634 46.417 11.1601 46.7267 10.8581C47.0118 10.5509 47.1771 10.1515 47.1924 9.73269H45.1751V9.06537H47.867C47.8925 9.20365 47.9055 9.34394 47.9059 9.48454Z" fill="white" stroke="white" stroke-width="0.2" stroke-miterlimit="10"/>
<path d="M52.1738 7.16426H49.6438V8.92564H51.9252V9.59305H49.6438V11.3544H52.1738V12.0371H48.9304V6.48157H52.1738V7.16426Z" fill="white" stroke="white" stroke-width="0.2" stroke-miterlimit="10"/>
<path d="M55.184 12.0371H54.4696V7.16426H52.918V6.48157H56.7356V7.16426H55.184V12.0371Z" fill="white" stroke="white" stroke-width="0.2" stroke-miterlimit="10"/>
<path d="M59.498 12.0371V6.48157H60.2115V12.0371H59.498Z" fill="white" stroke="white" stroke-width="0.2" stroke-miterlimit="10"/>
<path d="M63.3781 12.0371H62.6638V7.16426H61.1122V6.48157H64.9298V7.16426H63.3781V12.0371Z" fill="white" stroke="white" stroke-width="0.2" stroke-miterlimit="10"/>
<path d="M72.1567 11.3192C71.616 11.8583 70.8836 12.161 70.12 12.161C69.3564 12.161 68.624 11.8583 68.0832 11.3192C67.8157 11.0482 67.6054 10.7262 67.4648 10.3724C67.3242 10.0185 67.2563 9.64001 67.2649 9.25935C67.2563 8.87869 67.3242 8.50018 67.4648 8.14632C67.6054 7.79247 67.8157 7.47049 68.0832 7.19954C68.3505 6.93219 68.6679 6.72018 69.0172 6.57565C69.3665 6.43111 69.7409 6.35689 70.1189 6.35722C70.497 6.35756 70.8712 6.43245 71.2203 6.5776C71.5693 6.72276 71.8863 6.93533 72.1531 7.20315C72.4208 7.47339 72.6315 7.79464 72.7727 8.14785C72.9139 8.50107 72.9827 8.87904 72.9751 9.25935C72.9835 9.63998 72.9154 10.0184 72.7748 10.3723C72.6342 10.7261 72.4241 11.0481 72.1567 11.3192ZM68.6103 10.854C69.0108 11.2538 69.5536 11.4783 70.1195 11.4783C70.6854 11.4783 71.2282 11.2538 71.6287 10.854C71.8341 10.6437 71.9947 10.394 72.1008 10.1199C72.207 9.84585 72.2564 9.55309 72.2463 9.25935C72.2564 8.96561 72.207 8.67286 72.1008 8.39878C71.9947 8.1247 71.8341 7.87498 71.6287 7.66472C71.2282 7.26491 70.6854 7.04036 70.1195 7.04036C69.5536 7.04036 69.0108 7.26491 68.6103 7.66472C68.4053 7.87515 68.2449 8.12491 68.1389 8.39897C68.0329 8.67302 67.9835 8.96569 67.9937 9.25935C67.9835 9.55301 68.0329 9.84568 68.1389 10.1197C68.2449 10.3938 68.4053 10.6436 68.6103 10.854Z" fill="white" stroke="white" stroke-width="0.2" stroke-miterlimit="10"/>
<path d="M73.9769 12.0371V6.48157H74.8459L77.5459 10.8033H77.5766L77.5459 9.73268V6.48157H78.2603V12.0371H77.5152L74.6903 7.50601H74.6596L74.6903 8.57666V12.0371H73.9769Z" fill="white" stroke="white" stroke-width="0.2" stroke-miterlimit="10"/>
<path d="M67.0887 20.1405C66.3105 20.1434 65.5505 20.3769 64.9049 20.8114C64.2592 21.2459 63.7568 21.862 63.461 22.5819C63.1652 23.3017 63.0894 24.0931 63.243 24.856C63.3967 25.619 63.7729 26.3193 64.3243 26.8685C64.8756 27.4178 65.5774 27.7914 66.3409 27.9421C67.1044 28.0929 67.8954 28.014 68.6142 27.7155C69.3329 27.417 69.9471 26.9122 70.3791 26.2649C70.8112 25.6176 71.0418 24.8568 71.0418 24.0785C71.0494 23.558 70.9523 23.0412 70.7561 22.559C70.56 22.0768 70.2689 21.6389 69.9001 21.2715C69.5312 20.9041 69.0923 20.6146 68.6093 20.4203C68.1263 20.226 67.6092 20.1308 67.0887 20.1405ZM67.0887 26.4653C66.6094 26.4994 66.131 26.3885 65.7156 26.147C65.3002 25.9054 64.9672 25.5444 64.7599 25.1109C64.5526 24.6774 64.4806 24.1916 64.5533 23.7166C64.626 23.2416 64.84 22.7996 65.1674 22.4479C65.4949 22.0963 65.9206 21.8514 66.3892 21.7451C66.8578 21.6388 67.3476 21.676 67.7947 21.852C68.2418 22.0279 68.6256 22.3344 68.8961 22.7315C69.1666 23.1287 69.3113 23.598 69.3113 24.0785C69.3259 24.3821 69.2795 24.6855 69.175 24.9708C69.0706 25.2562 68.91 25.5178 68.7029 25.7402C68.4958 25.9626 68.2463 26.1413 67.9691 26.2659C67.6919 26.3904 67.3925 26.4582 67.0887 26.4653ZM58.4652 20.1405C57.6869 20.1434 56.927 20.3768 56.2813 20.8114C55.6357 21.2459 55.1332 21.8619 54.8374 22.5818C54.5416 23.3017 54.4658 24.093 54.6194 24.856C54.773 25.6189 55.1493 26.3192 55.7006 26.8685C56.252 27.4178 56.9537 27.7914 57.7172 27.9421C58.4807 28.0929 59.2718 28.014 59.9905 27.7155C60.7093 27.417 61.3235 26.9122 61.7555 26.2649C62.1876 25.6176 62.4182 24.8568 62.4182 24.0785C62.4258 23.558 62.3287 23.0412 62.1325 22.559C61.9364 22.0768 61.6453 21.6389 61.2765 21.2715C60.9077 20.9041 60.4687 20.6146 59.9858 20.4203C59.5028 20.226 58.9857 20.1308 58.4652 20.1405ZM58.4652 26.4653C57.9859 26.4994 57.5074 26.3885 57.0921 26.147C56.6767 25.9054 56.3437 25.5444 56.1364 25.1109C55.9291 24.6774 55.8571 24.1916 55.9298 23.7166C56.0025 23.2416 56.2165 22.7996 56.5439 22.4479C56.8714 22.0963 57.2971 21.8514 57.7657 21.7451C58.2343 21.6388 58.7241 21.676 59.1712 21.852C59.6183 22.0279 60.0021 22.3344 60.2726 22.7315C60.5431 23.1287 60.6878 23.598 60.6878 24.0785C60.7023 24.3821 60.656 24.6855 60.5515 24.9709C60.4471 25.2562 60.2865 25.5178 60.0794 25.7402C59.8723 25.9626 59.6228 26.1414 59.3456 26.2659C59.0684 26.3904 58.769 26.4582 58.4652 26.4653ZM48.207 21.3488V23.0194H52.2049C52.1472 23.8031 51.8266 24.5442 51.2949 25.1228C50.8943 25.5311 50.4125 25.851 49.8806 26.0617C49.3488 26.2723 48.7786 26.3692 48.207 26.3459C47.0385 26.3301 45.9232 25.8548 45.1025 25.0229C44.2817 24.1909 43.8216 23.0693 43.8216 21.9006C43.8216 20.732 44.2817 19.6104 45.1025 18.7784C45.9232 17.9465 47.0385 17.4712 48.207 17.4554C49.3295 17.4407 50.4123 17.8695 51.2204 18.6487L52.3988 17.4703C51.8475 16.9245 51.1927 16.4942 50.4729 16.2047C49.7531 15.9153 48.9828 15.7725 48.207 15.7846C47.3964 15.7728 46.5915 15.9223 45.8391 16.2244C45.0867 16.5264 44.4019 16.975 43.8245 17.5441C43.247 18.1132 42.7885 18.7914 42.4755 19.5393C42.1625 20.2872 42.0013 21.0899 42.0013 21.9006C42.0013 22.7114 42.1625 23.514 42.4755 24.2619C42.7885 25.0098 43.247 25.6881 43.8245 26.2571C44.4019 26.8262 45.0867 27.2749 45.8391 27.5769C46.5915 27.879 47.3964 28.0285 48.207 28.0167C48.9991 28.0495 49.7892 27.9135 50.5247 27.6178C51.2602 27.322 51.9245 26.8732 52.4733 26.3012C53.4478 25.2376 53.9672 23.8347 53.9204 22.393C53.9242 22.0428 53.8942 21.6931 53.8308 21.3488H48.207ZM90.1592 22.6465C89.9225 21.9332 89.472 21.31 88.8688 20.8617C88.2657 20.4133 87.5391 20.1615 86.7879 20.1405C86.2819 20.1436 85.7818 20.2493 85.3178 20.4512C84.8539 20.6531 84.4356 20.947 84.0885 21.3151C83.7413 21.6832 83.4723 22.1178 83.2979 22.5928C83.1235 23.0678 83.0472 23.5732 83.0736 24.0785C83.0622 24.5963 83.1553 25.111 83.3473 25.592C83.5393 26.073 83.8262 26.5103 84.191 26.8779C84.5558 27.2455 84.991 27.5358 85.4705 27.7315C85.95 27.9271 86.464 28.0241 86.9819 28.0167C87.6306 28.0203 88.2701 27.8627 88.8429 27.558C89.4157 27.2534 89.9038 26.8113 90.2635 26.2714L88.921 25.3764C88.7199 25.7104 88.4354 25.9864 88.0955 26.1773C87.7555 26.3682 87.3717 26.4674 86.9819 26.4653C86.5807 26.4806 86.1841 26.375 85.8436 26.1623C85.5031 25.9495 85.2345 25.6393 85.0724 25.2719L90.3383 23.0941L90.1592 22.6465ZM84.7891 23.9593C84.7705 23.6726 84.8093 23.3852 84.9032 23.1137C84.9971 22.8423 85.1442 22.5923 85.3359 22.3784C85.5276 22.1645 85.76 21.9909 86.0195 21.8679C86.2791 21.7449 86.5606 21.6749 86.8475 21.662C87.1463 21.6424 87.4442 21.7111 87.7042 21.8597C87.9642 22.0082 88.1747 22.23 88.3095 22.4974L84.7891 23.9593ZM80.5078 27.778H82.2382V16.2024H80.5078V27.778ZM77.6735 21.0206H77.6139C77.3508 20.7347 77.0298 20.5084 76.6722 20.3566C76.3146 20.2048 75.9287 20.1311 75.5404 20.1405C74.5249 20.1837 73.5654 20.6175 72.8622 21.3513C72.1589 22.0851 71.7663 23.0622 71.7663 24.0786C71.7663 25.0949 72.1589 26.072 72.8622 26.8058C73.5654 27.5396 74.5249 27.9734 75.5404 28.0167C75.9303 28.027 76.3177 27.9523 76.6758 27.7978C77.0339 27.6432 77.354 27.4125 77.6139 27.1217H77.6735V27.6885C77.6735 29.1952 76.8681 30.0006 75.5702 30.0006C75.1377 29.9903 74.718 29.8514 74.3647 29.6017C74.0114 29.352 73.7404 29.0027 73.5863 28.5984L72.0796 29.225C72.3636 29.9164 72.8475 30.5072 73.4694 30.9218C74.0913 31.3364 74.8228 31.5558 75.5702 31.552C77.599 31.552 79.3145 30.3587 79.3145 27.4498V20.3791H77.6735V21.0206ZM75.6896 26.4653C75.0916 26.4146 74.5343 26.1411 74.1282 25.6991C73.7221 25.2572 73.4967 24.6788 73.4967 24.0786C73.4967 23.4783 73.7221 22.9 74.1282 22.458C74.5343 22.016 75.0916 21.7426 75.6896 21.6918C75.9872 21.7064 76.2788 21.7807 76.547 21.9103C76.8152 22.0399 77.0546 22.2222 77.2509 22.4463C77.4472 22.6704 77.5963 22.9318 77.6894 23.2147C77.7825 23.4977 77.8177 23.7966 77.7929 24.0934C77.8161 24.3885 77.7797 24.6851 77.6856 24.9657C77.5916 25.2464 77.4419 25.5051 77.2456 25.7265C77.0492 25.948 76.8102 26.1275 76.5429 26.2544C76.2755 26.3814 75.9853 26.4531 75.6896 26.4653ZM98.2646 16.2026H94.1246V27.778H95.8521V23.3924H98.2646C98.7533 23.4192 99.2423 23.3461 99.7017 23.1775C100.161 23.009 100.581 22.7485 100.937 22.412C101.292 22.0756 101.575 21.6702 101.769 21.2207C101.962 20.7711 102.062 20.2869 102.062 19.7975C102.062 19.3081 101.962 18.8238 101.769 18.3743C101.575 17.9248 101.292 17.5194 100.937 17.1829C100.581 16.8465 100.161 16.586 99.7017 16.4175C99.2423 16.2489 98.7533 16.1758 98.2646 16.2026ZM98.3093 21.7815H95.8521V17.8136H98.3093C98.5733 17.8081 98.8357 17.8554 99.0812 17.9527C99.3267 18.0499 99.5503 18.1952 99.7389 18.3799C99.9276 18.5647 100.077 18.7853 100.18 19.0287C100.282 19.2721 100.335 19.5335 100.335 19.7975C100.335 20.0616 100.282 20.323 100.18 20.5664C100.077 20.8098 99.9276 21.0304 99.7389 21.2152C99.5503 21.3999 99.3267 21.5452 99.0812 21.6424C98.8357 21.7397 98.5733 21.7869 98.3093 21.7815ZM108.987 20.1192C108.356 20.0823 107.729 20.2304 107.181 20.5452C106.633 20.86 106.19 21.3279 105.904 21.8913L107.438 22.5317C107.59 22.252 107.82 22.0228 108.101 21.872C108.381 21.7212 108.699 21.6555 109.016 21.6828C109.455 21.64 109.892 21.7727 110.233 22.0519C110.573 22.331 110.789 22.7338 110.833 23.1719V23.2911C110.279 22.9964 109.66 22.8429 109.031 22.8443C107.378 22.8443 105.696 23.7528 105.696 25.4505C105.712 25.8082 105.799 26.1592 105.954 26.4824C106.108 26.8056 106.326 27.0945 106.594 27.332C106.862 27.5695 107.175 27.7508 107.514 27.865C107.854 27.9792 108.213 28.0241 108.57 27.9969C109.005 28.0225 109.439 27.9311 109.826 27.732C110.214 27.533 110.541 27.2336 110.774 26.8652H110.833V27.7587H112.501V23.3209C112.501 21.2658 110.967 20.1192 108.987 20.1192ZM108.778 26.463C108.212 26.463 107.423 26.1802 107.423 25.4802C107.423 24.5868 108.406 24.2442 109.255 24.2442C109.806 24.2295 110.351 24.3632 110.833 24.6314C110.77 25.1335 110.527 25.5956 110.149 25.9323C109.771 26.269 109.284 26.4575 108.778 26.463ZM118.577 20.3723L116.596 25.3908H116.537L114.482 20.3723H112.62L115.703 27.3864L113.946 31.288H115.748L120.498 20.3723H118.577ZM103.015 27.778H104.743V16.2026H103.015V27.778Z" fill="white"/>
<path d="M13.6624 6.97972C13.3587 7.34275 13.2054 7.80814 13.2338 8.28055V28.7584C13.2053 29.2308 13.3587 29.6963 13.6624 30.0593L13.7309 30.126L25.2022 18.6548V18.3842L13.7309 6.9125L13.6624 6.97972Z" fill="url(#paint0_linear)"/>
<path d="M29.0257 22.4802L25.2021 18.6548V18.3842L29.0266 14.5597L29.1128 14.6089L33.6432 17.1831C34.9372 17.9182 34.9372 19.1212 33.6432 19.8568L29.1128 22.431L29.0257 22.4802Z" fill="url(#paint1_linear)"/>
<path d="M29.1128 22.4305L25.2022 18.5195L13.6624 30.0593C13.926 30.2918 14.2627 30.4248 14.6142 30.4352C14.9656 30.4456 15.3096 30.3327 15.5865 30.1161L29.1128 22.4305Z" fill="url(#paint2_linear)"/>
<path d="M29.1128 14.6084L15.5865 6.92287C15.3096 6.70629 14.9656 6.59341 14.6142 6.6038C14.2627 6.61418 13.926 6.74717 13.6624 6.97972L25.2022 18.5195L29.1128 14.6084Z" fill="url(#paint3_linear)"/>
<path opacity="0.2" d="M29.0266 22.3444L15.5865 29.9808C15.3202 30.1835 14.9952 30.2941 14.6606 30.2959C14.3259 30.2977 13.9998 30.1906 13.7313 29.9907L13.6624 30.0597L13.7309 30.1265L13.7313 30.126C13.9997 30.326 14.3259 30.4332 14.6606 30.4314C14.9953 30.4296 15.3203 30.3189 15.5865 30.1161L29.1128 22.4305L29.0266 22.3444Z" fill="black"/>
<path opacity="0.12" d="M13.6623 29.9244C13.3587 29.5614 13.2054 29.096 13.2338 28.6236V28.7589C13.2054 29.2313 13.3587 29.6967 13.6623 30.0597L13.7313 29.9907L13.6623 29.9244Z" fill="black"/>
<path opacity="0.12" d="M33.6432 19.7211L29.0266 22.3444L29.1128 22.4305L33.6432 19.8564C33.9097 19.7407 34.1403 19.5557 34.311 19.3207C34.4817 19.0856 34.5863 18.8091 34.6138 18.5199C34.5566 18.7818 34.439 19.0267 34.2705 19.2352C34.102 19.4438 33.8872 19.6101 33.6432 19.7211Z" fill="black"/>
<path opacity="0.25" d="M15.5865 7.05861L33.6431 17.3179C33.8872 17.4288 34.1021 17.5952 34.2706 17.8039C34.4391 18.0125 34.5566 18.2575 34.6138 18.5195C34.5864 18.2302 34.4819 17.9535 34.3112 17.7184C34.1405 17.4832 33.9097 17.2982 33.6431 17.1826L15.5865 6.92333C14.2924 6.18805 13.2338 6.79879 13.2338 8.28102V8.41629C13.2338 6.93417 14.2924 6.32342 15.5865 7.05861Z" fill="white"/>
</g>
<defs>
<filter id="filter0_d" x="0" y="0" width="133" height="45.0372" filterUnits="userSpaceOnUse" color-interpolation-filters="sRGB">
<feFlood flood-opacity="0" result="BackgroundImageFix"/>
<feColorMatrix in="SourceAlpha" type="matrix" values="0 0 0 0 0 0 0 0 0 0 0 0 0 0 0 0 0 0 127 0"/>
<feOffset dy="4"/>
<feGaussianBlur stdDeviation="2"/>
<feColorMatrix type="matrix" values="0 0 0 0 0 0 0 0 0 0 0 0 0 0 0 0 0 0 0.25 0"/>
<feBlend mode="normal" in2="BackgroundImageFix" result="effect1_dropShadow"/>
<feBlend mode="normal" in="SourceGraphic" in2="effect1_dropShadow" result="shape"/>
</filter>
<linearGradient id="paint0_linear" x1="24.1849" y1="8.06464" x2="8.64562" y2="23.6039" gradientUnits="userSpaceOnUse">
<stop stop-color="#00A0FF"/>
<stop offset="0.00657" stop-color="#00A1FF"/>
<stop offset="0.2601" stop-color="#00BEFF"/>
<stop offset="0.5122" stop-color="#00D2FF"/>
<stop offset="0.7604" stop-color="#00DFFF"/>
<stop offset="1" stop-color="#00E3FF"/>
</linearGradient>
<linearGradient id="paint1_linear" x1="35.3281" y1="18.52" x2="12.9235" y2="18.52" gradientUnits="userSpaceOnUse">
<stop stop-color="#FFE000"/>
<stop offset="0.4087" stop-color="#FFBD00"/>
<stop offset="0.7754" stop-color="#FFA500"/>
<stop offset="1" stop-color="#FF9C00"/>
</linearGradient>
<linearGradient id="paint2_linear" x1="26.9879" y1="20.6446" x2="5.91538" y2="41.7171" gradientUnits="userSpaceOnUse">
<stop stop-color="#FF3A44"/>
<stop offset="1" stop-color="#C31162"/>
</linearGradient>
<linearGradient id="paint3_linear" x1="10.7567" y1="0.163222" x2="20.1665" y2="9.57296" gradientUnits="userSpaceOnUse">
<stop stop-color="#32A071"/>
<stop offset="0.0685" stop-color="#2DA771"/>
<stop offset="0.4762" stop-color="#15CF74"/>
<stop offset="0.8009" stop-color="#06E775"/>
<stop offset="1" stop-color="#00F076"/>
</linearGradient>
<clipPath id="clip0">
<rect width="125" height="37.0372" fill="white" transform="translate(4)"/>
</clipPath>
</defs>
</svg>
