<svg width="1440" height="1024" viewBox="0 0 1440 1024" fill="none" xmlns="http://www.w3.org/2000/svg">
<rect width="895" height="1024" transform="translate(545)" fill="#FDF1DD"/>
<path fill-rule="evenodd" clip-rule="evenodd" d="M1302.22 30.2878C1303.14 26.8369 1305.84 24.1414 1309.29 23.2167L1394.73 0.323391C1398.18 -0.60128 1401.86 0.385334 1404.39 2.91158L1466.93 65.4573C1469.46 67.9835 1470.44 71.6656 1469.52 75.1166L1446.63 160.556C1445.7 164.007 1443.01 166.702 1439.56 167.627L1354.12 190.52C1350.67 191.445 1346.98 190.458 1344.46 187.932L1281.91 125.386C1279.38 122.86 1278.4 119.178 1279.32 115.727L1302.22 30.2878ZM472.071 148.492C468.166 144.587 468.166 138.255 472.071 134.35L599.35 7.07104C603.256 3.1658 609.587 3.1658 613.492 7.07104L740.772 134.35C744.677 138.255 744.677 144.587 740.772 148.492L613.492 275.772C609.587 279.677 603.256 279.677 599.35 275.772L472.071 148.492ZM648.216 556.287C649.141 552.837 651.837 550.141 655.287 549.216L740.727 526.323C744.177 525.398 747.859 526.385 750.386 528.911L812.931 591.457C815.458 593.983 816.444 597.665 815.52 601.116L792.626 686.555C791.702 690.006 789.006 692.702 785.555 693.626L700.116 716.52C696.665 717.444 692.983 716.458 690.457 713.931L627.911 651.386C625.385 648.86 624.398 645.177 625.323 641.727L648.216 556.287ZM946.763 88.5159C939.328 86.5235 932.523 93.3276 934.516 100.763L959.172 192.78C961.164 200.216 970.459 202.706 975.902 197.263L1043.26 129.902C1048.71 124.459 1046.22 115.164 1038.78 113.172L946.763 88.5159ZM1225.07 783.495C1221.17 779.59 1221.17 773.258 1225.07 769.353L1352.35 642.074C1356.26 638.169 1362.59 638.169 1366.49 642.074L1493.77 769.353C1497.68 773.258 1497.68 779.59 1493.77 783.495L1366.49 910.775C1362.59 914.68 1356.26 914.68 1352.35 910.775L1225.07 783.495ZM1092 698.998C1207.43 698.998 1301 599.605 1301 476.998C1301 354.391 1207.43 254.998 1092 254.998C976.572 254.998 883 354.391 883 476.998C883 599.605 976.572 698.998 1092 698.998ZM624.122 763.874C616.686 761.882 609.882 768.686 611.874 776.122L658.944 951.79C660.937 959.226 670.231 961.716 675.675 956.273L804.273 827.675C809.716 822.231 807.226 812.937 799.79 810.944L624.122 763.874Z" fill="#F5D9A8"/>
<rect width="545" height="1024" fill="#04101C"/>
</svg>
