<svg width="80" height="80" viewBox="0 0 80 80" fill="none" xmlns="http://www.w3.org/2000/svg">
<g clip-path="url(#clip0)">
<path d="M53.4974 42.3987C49.8975 36.7828 43.7665 33.4296 37.0966 33.4296C30.4273 33.4296 24.2957 36.7828 20.6965 42.3987L12.0221 55.9308C10.5829 58.1763 9.91888 60.7696 10.1014 63.4302C10.2839 66.0913 11.2964 68.5693 13.0292 70.5975C14.7632 72.6251 17.0545 74.0106 19.6552 74.6051C22.2559 75.199 24.9219 74.9457 27.3646 73.8721L27.5239 73.8013C33.6707 71.1517 40.6965 71.1755 46.8281 73.8721C48.4095 74.5672 50.0849 74.9188 51.7756 74.9188C52.6948 74.9188 53.6194 74.8144 54.5356 74.6057C57.1363 74.0118 59.4276 72.6263 61.1622 70.5987C62.8956 68.5712 63.9088 66.0925 64.0919 63.4314C64.275 60.7696 63.6109 58.1763 62.1717 55.9302L53.4974 42.3987ZM57.5983 67.5506C55.3919 70.13 51.8226 70.9454 48.7159 69.5795C45.0233 67.9553 41.0596 67.1435 37.0948 67.1435C33.1336 67.1435 29.1706 67.9547 25.4804 69.577L25.3754 69.6234C22.2925 70.9271 18.7757 70.1013 16.5937 67.5506C14.3897 64.9707 14.1388 61.3184 15.9699 58.4613L24.6448 44.9292C27.378 40.6653 32.0325 38.1195 37.0966 38.1195C42.1607 38.1195 46.8159 40.6653 49.5496 44.9292L58.2233 58.4607C60.055 61.319 59.8035 64.9719 57.5983 67.5506Z" fill="black"/>
<path d="M14.3585 42.381C16.939 41.3898 18.8995 39.3103 19.8791 36.5253C20.8105 33.8751 20.7342 30.8832 19.663 28.1C18.5913 25.3186 16.6418 23.0481 14.1741 21.7059C11.5808 20.2966 8.73224 20.0671 6.15595 21.0602C0.972844 23.053 -1.4057 29.458 0.854435 35.3412C2.65986 40.0238 6.87067 42.9797 11.1279 42.9797C12.2149 42.9797 13.305 42.7869 14.3585 42.381ZM5.23066 33.6566C3.89887 30.1898 5.06891 26.5021 7.84052 25.4364C8.34101 25.2435 8.87018 25.1477 9.41034 25.1477C10.2441 25.1477 11.1053 25.3754 11.9341 25.8264C13.4246 26.6363 14.6154 28.0426 15.2868 29.7851C15.9576 31.5289 16.0174 33.3697 15.4547 34.9695C14.9389 36.4355 13.952 37.5134 12.6763 38.0035L12.6739 38.0048C9.90595 39.0716 6.56672 37.1204 5.23066 33.6566Z" fill="black"/>
<path d="M31.1896 31.7792C37.6691 31.7792 42.9407 25.7733 42.9407 18.3911C42.9407 11.0071 37.6691 5 31.1896 5C24.7107 5 19.4397 11.0071 19.4397 18.3911C19.4397 25.7733 24.7107 31.7792 31.1896 31.7792ZM31.1896 9.68933C35.083 9.68933 38.2513 13.5931 38.2513 18.3911C38.2513 23.1873 35.083 27.0898 31.1896 27.0898C27.2961 27.0898 24.129 23.1873 24.129 18.3911C24.129 13.5931 27.2961 9.68933 31.1896 9.68933Z" fill="black"/>
<path d="M51.4838 35.0684H51.4844C52.4811 35.3992 53.4979 35.5572 54.5105 35.5572C59.2359 35.5572 63.841 32.1179 65.5982 26.8323C66.6101 23.7897 66.5436 20.5725 65.4108 17.774C64.2255 14.845 62.0288 12.7185 59.2249 11.7859C56.4209 10.8545 53.3869 11.2427 50.6836 12.8796C48.1012 14.444 46.1224 16.9806 45.1123 20.0232C42.9791 26.4416 45.8374 33.1909 51.4838 35.0684ZM49.5624 21.5021C50.2222 19.5154 51.4832 17.8784 53.1134 16.8909C54.6216 15.9772 56.2671 15.7446 57.746 16.236C59.2243 16.7279 60.4022 17.8986 61.0639 19.5331C61.7786 21.2994 61.8091 23.3661 61.1481 25.3528C59.8303 29.3176 56.1585 31.6797 52.9633 30.6183C49.7705 29.5563 48.2446 25.4669 49.5624 21.5021Z" fill="black"/>
<path d="M76.2305 33.5059L76.2286 33.504C71.7602 30.2033 65.0775 31.6339 61.3306 36.695C57.5873 41.7584 58.1726 48.5657 62.6343 51.8689C64.2615 53.0744 66.1841 53.6505 68.1518 53.6505C71.5814 53.6505 75.1495 51.9 77.5342 48.681C81.2774 43.6176 80.6927 36.8103 76.2305 33.5059ZM73.7652 45.8911C71.5527 48.8776 67.8119 49.8682 65.4248 48.1C63.0395 46.3342 62.8943 42.4683 65.1007 39.4837C66.5674 37.5025 68.7097 36.4002 70.6842 36.4002C71.6827 36.4002 72.6385 36.6821 73.4418 37.276C75.8252 39.0436 75.9698 42.9083 73.7652 45.8911Z" fill="black"/>
</g>
<defs>
<clipPath id="clip0">
<rect width="80" height="80" fill="white"/>
</clipPath>
</defs>
</svg>
