<svg width="20" height="20" viewBox="0 0 20 20" fill="none" xmlns="http://www.w3.org/2000/svg">
<path d="M1.90048 4.70609C1.35625 4.70609 0.915039 5.1473 0.915039 5.69153V19.0146C0.915039 19.5588 1.35625 20 1.90048 20C2.44471 20 2.88592 19.5588 2.88592 19.0146V5.69153C2.88592 5.14717 2.44471 4.70609 1.90048 4.70609Z" fill="white" fill-opacity="0.75"/>
<path d="M8.93612 15.1172C8.3919 15.1172 7.95068 15.5584 7.95068 16.1026V19.0145C7.95068 19.5588 8.3919 20 8.93612 20C9.48035 20 9.92157 19.5588 9.92157 19.0145V16.1026C9.92157 15.5584 9.48035 15.1172 8.93612 15.1172Z" fill="white" fill-opacity="0.75"/>
<path d="M13.5183 5.76681C12.148 5.76681 10.8927 6.26532 9.92157 7.08928V5.69153C9.92157 5.1473 9.48035 4.70609 8.93613 4.70609C8.3919 4.70609 7.95068 5.1473 7.95068 5.69153V11.3331C7.95068 11.3332 7.95068 11.3334 7.95068 11.3335C7.95068 11.3338 7.95068 11.3339 7.95068 11.3343C7.95068 11.8785 8.3919 12.3197 8.93613 12.3197C9.48035 12.3197 9.92157 11.8785 9.92157 11.3343C9.92157 9.35106 11.5351 7.7377 13.5183 7.7377C15.5014 7.7377 17.1148 9.35106 17.1148 11.3343V19.0146C17.1148 19.5588 17.556 20 18.1002 20C18.6446 20 19.0857 19.5588 19.0857 19.0146V11.3343C19.0857 8.26432 16.5883 5.76681 13.5183 5.76681Z" fill="white" fill-opacity="0.75"/>
<path d="M1.89975 1.97088C2.15859 1.97088 2.41349 1.86577 2.59744 1.68313C2.78008 1.49919 2.88519 1.2456 2.88519 0.986756C2.88519 0.726599 2.78008 0.473012 2.59744 0.289063C2.41349 0.106428 2.15859 0 1.89975 0C1.64091 0 1.38732 0.106428 1.20337 0.289063C1.01942 0.473012 0.914307 0.726599 0.914307 0.986756C0.914307 1.2456 1.01942 1.49919 1.20337 1.68313C1.38732 1.86577 1.64091 1.97088 1.89975 1.97088Z" fill="white" fill-opacity="0.75"/>
</svg>
