<svg width="14" height="11" viewBox="0 0 14 11" fill="none" xmlns="http://www.w3.org/2000/svg">
<mask id="path-1-outside-1" maskUnits="userSpaceOnUse" x="0" y="0" width="14" height="11" fill="black">
<rect fill="white" width="14" height="11"/>
<path d="M10.6672 5.40392C10.7635 5.43174 10.7635 5.56826 10.6672 5.59608L3.62773 7.62819C3.56379 7.64665 3.5 7.59866 3.5 7.53211L3.5 3.46789C3.5 3.40134 3.56379 3.35335 3.62774 3.37181L10.6672 5.40392Z"/>
</mask>
<path d="M3.62774 3.37181L4.45979 0.489504L3.62774 3.37181ZM3.62773 7.62819L4.45979 10.5105L3.62773 7.62819ZM10.6672 5.59608L9.83513 2.71377L10.6672 5.59608ZM9.83513 2.71377L2.79568 4.74588L4.45979 10.5105L11.4992 8.47838L9.83513 2.71377ZM6.5 7.53211L6.5 3.46789L0.5 3.46789V7.53211H6.5ZM2.79568 6.25412L9.83513 8.28623L11.4992 2.52162L4.45979 0.489504L2.79568 6.25412ZM6.5 3.46789C6.5 5.39789 4.64997 6.7894 2.79568 6.25412L4.45979 0.489504C2.47762 -0.0826979 0.5 1.40478 0.5 3.46789L6.5 3.46789ZM2.79568 4.74588C4.64998 4.2106 6.5 5.60212 6.5 7.53211H0.5C0.5 9.59521 2.47761 11.0827 4.45979 10.5105L2.79568 4.74588ZM11.4992 8.47838C14.4862 7.61611 14.4861 3.38386 11.4992 2.52162L9.83513 8.28623C7.04093 7.47961 7.04084 3.52041 9.83513 2.71377L11.4992 8.47838Z" fill="url(#paint0_linear)" mask="url(#path-1-outside-1)"/>
<defs>
<linearGradient id="paint0_linear" x1="11" y1="5.59549" x2="2.99266" y2="1.601" gradientUnits="userSpaceOnUse">
<stop stop-color="#D9E8EF"/>
<stop offset="1" stop-color="#EAF2F5"/>
</linearGradient>
</defs>
</svg>
