<svg width="70" height="70" viewBox="0 0 70 70" fill="none" xmlns="http://www.w3.org/2000/svg">
<g clip-path="url(#clip0)">
<path d="M41.3027 68.2965C39.5413 69.099 38.6538 70 35 70C31.3461 70 30.4553 69.0975 28.6973 68.2965C29.9332 66.094 31.2307 64.4588 35 64.4588C38.7693 64.4588 40.0668 66.094 41.3027 68.2965Z" fill="#FCA121"/>
<path d="M39.0099 51.115C39.0099 51.4951 37.588 52.6463 35 52.6463C32.4119 52.6463 30.99 51.4951 30.99 51.115C30.99 50.7336 32.4119 49.5838 35 49.5838C37.588 49.5838 39.0099 50.7336 39.0099 51.115Z" fill="#FCA121"/>
<path d="M52.6463 57.3125C52.6463 70 51.0508 70 48.635 70C47.3717 70 46.8836 69.408 45.6108 67.0551C44.2833 64.5982 42.3528 61.034 37.1875 60.2437V56.8258C40.484 56.2268 43.385 54.1652 43.385 51.115C43.385 47.2943 39.0333 45.2088 35 45.2088C30.8248 45.2088 26.6151 47.3957 26.6151 51.115C26.6151 54.224 29.5939 56.2409 32.8125 56.8258V60.2437C27.6473 61.034 25.7168 64.5982 24.3893 67.0551C23.1165 69.408 22.6284 70 21.3651 70C18.9493 70 17.3538 70 17.3538 57.3125C17.3538 50.8781 29.0197 44.7676 35 42.3131C40.9596 44.759 52.6463 50.8745 52.6463 57.3125Z" fill="#FCA121"/>
<path d="M58.9996 46.9683C56.2658 40.1314 59.2867 37.0581 58.8547 32.7387C58.1964 26.1473 50.8953 22.8168 44.4978 21.19C44.484 21.1881 39.2169 19.8338 35 19.8338C31.0198 19.8338 25.5177 21.1878 25.5021 21.19C19.1005 22.8179 11.8035 26.1492 11.1453 32.7387C10.712 37.0717 13.7376 40.1231 11.0004 46.9683C10.1992 48.9685 11.5596 50.8265 13.7758 53.3832C16.5166 46.6393 26.1062 41.309 32.8125 38.4822V33.7599C32.8125 32.5527 33.7914 31.5724 35 31.5724C36.2086 31.5724 37.1875 32.5527 37.1875 33.7599V38.4822C43.8963 41.3101 53.4838 46.6402 56.2242 53.3832C58.4404 50.8265 59.8008 48.9685 58.9996 46.9683ZM18.2656 44.9162C15.8689 44.9162 13.9275 42.9748 13.9275 40.5781C13.9275 38.1814 15.8689 36.24 18.2656 36.24C20.6623 36.24 22.6037 38.1814 22.6037 40.5781C22.6037 42.9748 20.6623 44.9162 18.2656 44.9162ZM51.7344 44.9162C49.3377 44.9162 47.3963 42.9748 47.3963 40.5781C47.3963 38.1814 49.3377 36.24 51.7344 36.24C54.131 36.24 56.0724 38.1814 56.0724 40.5781C56.0724 42.9748 54.131 44.9162 51.7344 44.9162Z" fill="#FCA121"/>
<path d="M61.1939 26.4469C58.2621 21.8002 52.8061 19.0902 47.5713 17.5041C48.0457 15.2264 48.9986 11.3203 50.5695 7.60293C51.7686 4.76328 54.2404 0 57.3125 0C58.8438 0 59.5451 0.55918 59.9389 0.980273C62.1182 3.30586 61.7121 9.55527 61.4687 13.2891C61.2463 16.736 61.215 17.3037 61.8379 20.5734C62.3369 23.1916 62.6609 24.9074 61.1939 26.4469Z" fill="#FCA121"/>
<path d="M22.4287 17.5041C17.1913 19.091 11.737 21.8016 8.80606 26.4469C6.48922 24.0156 8.67754 20.7527 8.67754 16.4062C8.67754 12.9397 7.30611 3.92027 10.0611 0.980273C10.4549 0.55918 11.1563 0 12.6875 0C15.7596 0 18.2314 4.76328 19.4305 7.60293C21.0014 11.3203 21.9543 15.2264 22.4287 17.5041Z" fill="#FCA121"/>
</g>
<defs>
<clipPath id="clip0">
<rect width="70" height="70" fill="white"/>
</clipPath>
</defs>
</svg>
