<svg width="34" height="36" viewBox="0 0 34 36" fill="none" xmlns="http://www.w3.org/2000/svg">
<path d="M19.8265 35.1239C18.9809 35.5367 18.5549 36 16.801 36C15.047 36 14.6194 35.5359 13.7755 35.1239C14.3688 33.9912 14.9916 33.1503 16.801 33.1503C18.6104 33.1503 19.2332 33.9912 19.8265 35.1239Z" fill="white"/>
<path d="M18.7259 26.2877C18.7259 26.4832 18.0434 27.0752 16.801 27.0752C15.5586 27.0752 14.8761 26.4832 14.8761 26.2877C14.8761 26.0916 15.5586 25.5002 16.801 25.5002C18.0434 25.5002 18.7259 26.0916 18.7259 26.2877Z" fill="white"/>
<path d="M25.2717 29.475C25.2717 36 24.5058 36 23.3462 36C22.7398 36 22.5055 35.6955 21.8945 34.4854C21.2572 33.2219 20.3305 31.3889 17.8511 30.9825V29.2247C19.4335 28.9166 20.826 27.8564 20.826 26.2877C20.826 24.3228 18.7371 23.2502 16.801 23.2502C14.7968 23.2502 12.776 24.3749 12.776 26.2877C12.776 27.8866 14.2059 28.9239 15.751 29.2247V30.9825C13.2715 31.3889 12.3448 33.2219 11.7076 34.4854C11.0966 35.6955 10.8623 36 10.2559 36C9.09621 36 8.33032 36 8.33032 29.475C8.33032 26.1659 13.9303 23.0233 16.801 21.761C19.6618 23.0189 25.2717 26.164 25.2717 29.475V29.475Z" fill="white"/>
<path d="M28.3215 24.1552C27.0092 20.6391 28.4593 19.0585 28.2519 16.837C27.9359 13.4472 24.4312 11.7344 21.3602 10.8978C21.3536 10.8968 18.8253 10.2003 16.801 10.2003C14.8904 10.2003 12.2493 10.8966 12.2418 10.8978C9.16884 11.735 5.66603 13.4482 5.35009 16.837C5.14212 19.0655 6.59448 20.6348 5.28053 24.1552C4.89594 25.1838 5.54895 26.1394 6.61279 27.4542C7.92845 23.9859 12.5317 21.2447 15.7509 19.7909V17.3623C15.7509 16.7414 16.2208 16.2373 16.801 16.2373C17.3812 16.2373 17.8511 16.7414 17.8511 17.3623V19.7909C21.0715 21.2452 25.6738 23.9864 26.9892 27.4542C28.0531 26.1394 28.7061 25.1838 28.3215 24.1552ZM8.76804 23.0998C7.61757 23.0998 6.68564 22.1013 6.68564 20.8688C6.68564 19.6362 7.61757 18.6378 8.76804 18.6378C9.91851 18.6378 10.8504 19.6362 10.8504 20.8688C10.8504 22.1013 9.91851 23.0998 8.76804 23.0998ZM24.834 23.0998C23.6835 23.0998 22.7516 22.1013 22.7516 20.8688C22.7516 19.6362 23.6835 18.6378 24.834 18.6378C25.9844 18.6378 26.9164 19.6362 26.9164 20.8688C26.9164 22.1013 25.9844 23.0998 24.834 23.0998Z" fill="white"/>
<path d="M29.3748 13.6013C27.9675 11.2115 25.3484 9.8178 22.8356 9.00211C23.0633 7.8307 23.5207 5.82188 24.2748 3.91008C24.8504 2.44969 26.0369 0 27.5116 0C28.2467 0 28.5833 0.287578 28.7724 0.504141C29.8185 1.70016 29.6236 4.91414 29.5067 6.83437C29.4 8.60709 29.3849 8.89903 29.6839 10.5806C29.9235 11.9271 30.079 12.8095 29.3748 13.6013V13.6013Z" fill="white"/>
<path d="M10.7664 9.00211C8.25232 9.81823 5.63412 11.2122 4.22717 13.6013C3.11503 12.3509 4.16548 10.6728 4.16548 8.4375C4.16548 6.65473 3.50716 2.01614 4.82965 0.504141C5.01866 0.287578 5.35533 0 6.09037 0C7.56505 0 8.75162 2.44969 9.32719 3.91008C10.0813 5.82188 10.5387 7.8307 10.7664 9.00211Z" fill="white"/>
</svg>
