<svg width="1440" height="101" viewBox="0 0 1440 101" fill="none" xmlns="http://www.w3.org/2000/svg">
<rect width="1440" height="101" fill="#04101C"/>
<path d="M35.5841 67.212C36.3981 67.212 37.1094 67.377 37.7181 67.707C38.3341 68.037 38.8071 68.4953 39.1371 69.082C39.4671 69.6687 39.6321 70.336 39.6321 71.084C39.6321 71.8247 39.4671 72.492 39.1371 73.086C38.8071 73.68 38.3341 74.1493 37.7181 74.494C37.1094 74.8313 36.3981 75 35.5841 75H32.3391V67.212H35.5841ZM35.3641 72.822C35.9141 72.822 36.3504 72.6717 36.6731 72.371C36.9957 72.0703 37.1571 71.6413 37.1571 71.084C37.1571 70.5267 36.9957 70.0977 36.6731 69.797C36.3504 69.4963 35.9141 69.346 35.3641 69.346H34.7811V72.822H35.3641ZM45.3089 75.077C44.5755 75.077 43.9009 74.9047 43.2849 74.56C42.6762 74.2153 42.1922 73.7387 41.8329 73.13C41.4735 72.5213 41.2939 71.8357 41.2939 71.073C41.2939 70.3103 41.4735 69.6247 41.8329 69.016C42.1922 68.4073 42.6762 67.9343 43.2849 67.597C43.9009 67.2523 44.5755 67.08 45.3089 67.08C46.0422 67.08 46.7132 67.2523 47.3219 67.597C47.9305 67.9343 48.4109 68.4073 48.7629 69.016C49.1222 69.6247 49.3019 70.3103 49.3019 71.073C49.3019 71.8357 49.1222 72.5213 48.7629 73.13C48.4109 73.7387 47.9269 74.2153 47.3109 74.56C46.7022 74.9047 46.0349 75.077 45.3089 75.077ZM45.3089 72.8C45.7929 72.8 46.1669 72.646 46.4309 72.338C46.6949 72.0227 46.8269 71.601 46.8269 71.073C46.8269 70.5377 46.6949 70.116 46.4309 69.808C46.1669 69.4927 45.7929 69.335 45.3089 69.335C44.8175 69.335 44.4399 69.4927 44.1759 69.808C43.9119 70.116 43.7799 70.5377 43.7799 71.073C43.7799 71.601 43.9119 72.0227 44.1759 72.338C44.4399 72.646 44.8175 72.8 45.3089 72.8ZM55.9568 69.874C55.8615 69.72 55.7258 69.6027 55.5498 69.522C55.3738 69.434 55.1611 69.39 54.9118 69.39C54.4425 69.39 54.0795 69.544 53.8228 69.852C53.5661 70.1527 53.4378 70.567 53.4378 71.095C53.4378 71.7037 53.5808 72.1583 53.8668 72.459C54.1528 72.7597 54.5928 72.91 55.1868 72.91C55.7515 72.91 56.2061 72.6827 56.5508 72.228H54.6038V70.501H58.5748V72.943C58.2375 73.5223 57.7718 74.021 57.1778 74.439C56.5838 74.8497 55.8321 75.055 54.9228 75.055C54.1161 75.055 53.4121 74.89 52.8108 74.56C52.2168 74.2227 51.7585 73.7533 51.4358 73.152C51.1205 72.5507 50.9628 71.865 50.9628 71.095C50.9628 70.325 51.1205 69.6393 51.4358 69.038C51.7585 68.4367 52.2168 67.971 52.8108 67.641C53.4048 67.3037 54.1015 67.135 54.9008 67.135C55.9201 67.135 56.7488 67.3807 57.3868 67.872C58.0321 68.3633 58.4135 69.0307 58.5308 69.874H55.9568ZM65.2283 69.874C65.133 69.72 64.9973 69.6027 64.8213 69.522C64.6453 69.434 64.4326 69.39 64.1833 69.39C63.714 69.39 63.351 69.544 63.0943 69.852C62.8376 70.1527 62.7093 70.567 62.7093 71.095C62.7093 71.7037 62.8523 72.1583 63.1383 72.459C63.4243 72.7597 63.8643 72.91 64.4583 72.91C65.023 72.91 65.4776 72.6827 65.8223 72.228H63.8753V70.501H67.8463V72.943C67.509 73.5223 67.0433 74.021 66.4493 74.439C65.8553 74.8497 65.1036 75.055 64.1943 75.055C63.3876 75.055 62.6836 74.89 62.0823 74.56C61.4883 74.2227 61.03 73.7533 60.7073 73.152C60.392 72.5507 60.2343 71.865 60.2343 71.095C60.2343 70.325 60.392 69.6393 60.7073 69.038C61.03 68.4367 61.4883 67.971 62.0823 67.641C62.6763 67.3037 63.373 67.135 64.1723 67.135C65.1916 67.135 66.0203 67.3807 66.6583 67.872C67.3036 68.3633 67.685 69.0307 67.8023 69.874H65.2283ZM77.2058 67.212L74.4118 72.635V75H71.9698V72.635L69.1758 67.212H71.9698L73.2128 69.973L74.4558 67.212H77.2058ZM37.9997 77.212V79.148H34.9417V80.226H37.1417V82.063H34.9417V85H32.4997V77.212H37.9997ZM43.7429 85L42.2799 82.206H42.2689V85H39.8269V77.212H43.4569C44.0875 77.212 44.6265 77.3257 45.0739 77.553C45.5212 77.773 45.8549 78.0773 46.0749 78.466C46.3022 78.8473 46.4159 79.28 46.4159 79.764C46.4159 80.2847 46.2692 80.7467 45.9759 81.15C45.6899 81.5533 45.2755 81.843 44.7329 82.019L46.4269 85H43.7429ZM42.2689 80.578H43.2369C43.4715 80.578 43.6475 80.5267 43.7649 80.424C43.8822 80.314 43.9409 80.1453 43.9409 79.918C43.9409 79.7127 43.8785 79.5513 43.7539 79.434C43.6365 79.3167 43.4642 79.258 43.2369 79.258H42.2689V80.578ZM50.638 77.212V85H48.196V77.212H50.638ZM55.1829 79.159V80.116H57.6029V81.953H55.1829V83.053H57.9329V85H52.7409V77.212H57.9329V79.159H55.1829ZM67.3222 85H64.8802L62.2952 81.084V85H59.8532V77.212H62.2952L64.8802 81.194V77.212H67.3222V85ZM72.6705 77.212C73.4845 77.212 74.1958 77.377 74.8045 77.707C75.4205 78.037 75.8935 78.4953 76.2235 79.082C76.5535 79.6687 76.7185 80.336 76.7185 81.084C76.7185 81.8247 76.5535 82.492 76.2235 83.086C75.8935 83.68 75.4205 84.1493 74.8045 84.494C74.1958 84.8313 73.4845 85 72.6705 85H69.4255V77.212H72.6705ZM72.4505 82.822C73.0005 82.822 73.4368 82.6717 73.7595 82.371C74.0822 82.0703 74.2435 81.6413 74.2435 81.084C74.2435 80.5267 74.0822 80.0977 73.7595 79.797C73.4368 79.4963 73.0005 79.346 72.4505 79.346H71.8675V82.822H72.4505Z" fill="white"/>
<g clip-path="url(#clip0)">
<path d="M58.7277 61.8467C57.5452 62.3855 56.9494 62.9903 54.4965 62.9903C52.0435 62.9903 51.4456 62.3844 50.2653 61.8467C51.095 60.3682 51.9661 59.2705 54.4965 59.2705C57.027 59.2705 57.898 60.3682 58.7277 61.8467Z" fill="white"/>
<path d="M57.1885 50.313C57.1885 50.5681 56.234 51.3409 54.4965 51.3409C52.7591 51.3409 51.8045 50.5681 51.8045 50.313C51.8045 50.0569 52.7591 49.2851 54.4965 49.2851C56.234 49.2851 57.1885 50.0569 57.1885 50.313Z" fill="white"/>
<path d="M66.343 54.4733C66.343 62.9903 65.2719 62.9903 63.6501 62.9903C62.802 62.9903 62.4743 62.5929 61.6198 61.0134C60.7286 59.3642 59.4326 56.9715 55.9651 56.441V54.1466C58.1781 53.7445 60.1256 52.3606 60.1256 50.313C60.1256 47.7482 57.2041 46.3482 54.4965 46.3482C51.6936 46.3482 48.8675 47.8163 48.8675 50.313C48.8675 52.4001 50.8673 53.754 53.028 54.1466V56.441C49.5604 56.9715 48.2645 59.3642 47.3732 61.0134C46.5187 62.5929 46.1911 62.9903 45.343 62.9903C43.7212 62.9903 42.6501 62.9903 42.6501 54.4733C42.6501 50.154 50.4818 46.052 54.4965 44.4044C58.4974 46.0463 66.343 50.1516 66.343 54.4733V54.4733Z" fill="white"/>
<path d="M70.6082 47.5294C68.7729 42.9398 70.8009 40.8768 70.5109 37.9771C70.069 33.5524 65.1676 31.3167 60.8727 30.2246C60.8635 30.2234 57.3275 29.3142 54.4966 29.3142C51.8246 29.3142 48.1308 30.2232 48.1204 30.2246C43.8228 31.3174 38.9241 33.5537 38.4822 37.9771C38.1914 40.8858 40.2225 42.9342 38.3849 47.5294C37.8471 48.8721 38.7603 50.1193 40.2481 51.8356C42.0881 47.3085 48.5259 43.7303 53.028 41.8327V38.6627C53.028 37.8523 53.6852 37.1943 54.4966 37.1943C55.3079 37.1943 55.9651 37.8523 55.9651 38.6627V41.8327C60.4689 43.7311 66.9053 47.3091 68.745 51.8356C70.2328 50.1193 71.146 48.8721 70.6082 47.5294ZM43.2623 46.1518C41.6533 46.1518 40.35 44.8485 40.35 43.2397C40.35 41.6308 41.6533 40.3276 43.2623 40.3276C44.8713 40.3276 46.1746 41.6308 46.1746 43.2397C46.1746 44.8485 44.8713 46.1518 43.2623 46.1518ZM65.7308 46.1518C64.1219 46.1518 62.8185 44.8485 62.8185 43.2397C62.8185 41.6308 64.1219 40.3276 65.7308 40.3276C67.3398 40.3276 68.6431 41.6308 68.6431 43.2397C68.6431 44.8485 67.3398 46.1518 65.7308 46.1518Z" fill="white"/>
<path d="M72.0813 33.7535C70.1131 30.6343 66.4503 28.815 62.936 27.7503C63.2545 26.2213 63.8942 23.5992 64.9488 21.1038C65.7537 19.1975 67.4132 16 69.4755 16C70.5035 16 70.9743 16.3754 71.2387 16.658C72.7017 18.2192 72.4291 22.4144 72.2657 24.9208C72.1164 27.2347 72.0954 27.6158 72.5136 29.8107C72.8486 31.5683 73.0661 32.7201 72.0813 33.7535V33.7535Z" fill="white"/>
<path d="M46.0571 27.7503C42.5411 28.8156 38.8795 30.6352 36.9118 33.7535C35.3565 32.1214 36.8255 29.9311 36.8255 27.0133C36.8255 24.6863 35.9049 18.6316 37.7544 16.658C38.0187 16.3754 38.4896 16 39.5175 16C41.5799 16 43.2394 19.1975 44.0443 21.1038C45.0989 23.5992 45.7386 26.2213 46.0571 27.7503Z" fill="white"/>
</g>
<rect x="404.5" y="31.5" width="631" height="48" rx="7.5" fill="white"/>
<path d="M431 62.5C435.418 62.5 439 58.9183 439 54.5C439 50.0817 435.418 46.5 431 46.5C426.582 46.5 423 50.0817 423 54.5C423 58.9183 426.582 62.5 431 62.5Z" stroke="#B9B9B9" stroke-width="2" stroke-linecap="round" stroke-linejoin="round"/>
<path d="M441 64.5L436.65 60.15" stroke="#B9B9B9" stroke-width="2" stroke-linecap="round" stroke-linejoin="round"/>
<path d="M458.556 63.154C457.544 63.154 456.635 62.978 455.828 62.626C455.036 62.2593 454.413 61.7607 453.958 61.13C453.503 60.4847 453.269 59.744 453.254 58.908H455.388C455.461 59.6267 455.755 60.2353 456.268 60.734C456.796 61.218 457.559 61.46 458.556 61.46C459.509 61.46 460.257 61.2253 460.8 60.756C461.357 60.272 461.636 59.656 461.636 58.908C461.636 58.3213 461.475 57.8447 461.152 57.478C460.829 57.1113 460.426 56.8327 459.942 56.642C459.458 56.4513 458.805 56.246 457.984 56.026C456.972 55.762 456.158 55.498 455.542 55.234C454.941 54.97 454.42 54.5593 453.98 54.002C453.555 53.43 453.342 52.6673 453.342 51.714C453.342 50.878 453.555 50.1373 453.98 49.492C454.405 48.8467 454.999 48.348 455.762 47.996C456.539 47.644 457.427 47.468 458.424 47.468C459.861 47.468 461.035 47.8273 461.944 48.546C462.868 49.2647 463.389 50.218 463.506 51.406H461.306C461.233 50.8193 460.925 50.306 460.382 49.866C459.839 49.4113 459.121 49.184 458.226 49.184C457.39 49.184 456.708 49.404 456.18 49.844C455.652 50.2693 455.388 50.8707 455.388 51.648C455.388 52.2053 455.542 52.66 455.85 53.012C456.173 53.364 456.561 53.6353 457.016 53.826C457.485 54.002 458.138 54.2073 458.974 54.442C459.986 54.7207 460.8 54.9993 461.416 55.278C462.032 55.542 462.56 55.96 463 56.532C463.44 57.0893 463.66 57.852 463.66 58.82C463.66 59.568 463.462 60.272 463.066 60.932C462.67 61.592 462.083 62.1273 461.306 62.538C460.529 62.9487 459.612 63.154 458.556 63.154ZM477.606 56.51C477.606 56.8913 477.584 57.2947 477.54 57.72H467.904C467.977 58.908 468.381 59.8393 469.114 60.514C469.862 61.174 470.764 61.504 471.82 61.504C472.685 61.504 473.404 61.306 473.976 60.91C474.563 60.4993 474.973 59.9567 475.208 59.282H477.364C477.041 60.4407 476.396 61.3867 475.428 62.12C474.46 62.8387 473.257 63.198 471.82 63.198C470.676 63.198 469.649 62.9413 468.74 62.428C467.845 61.9147 467.141 61.1887 466.628 60.25C466.115 59.2967 465.858 58.1967 465.858 56.95C465.858 55.7033 466.107 54.6107 466.606 53.672C467.105 52.7333 467.801 52.0147 468.696 51.516C469.605 51.0027 470.647 50.746 471.82 50.746C472.964 50.746 473.976 50.9953 474.856 51.494C475.736 51.9927 476.411 52.682 476.88 53.562C477.364 54.4273 477.606 55.41 477.606 56.51ZM475.538 56.092C475.538 55.3293 475.369 54.6767 475.032 54.134C474.695 53.5767 474.233 53.1587 473.646 52.88C473.074 52.5867 472.436 52.44 471.732 52.44C470.72 52.44 469.855 52.7627 469.136 53.408C468.432 54.0533 468.029 54.948 467.926 56.092H475.538ZM479.501 56.928C479.501 55.696 479.75 54.618 480.249 53.694C480.747 52.7553 481.429 52.0293 482.295 51.516C483.175 51.0027 484.15 50.746 485.221 50.746C486.277 50.746 487.193 50.9733 487.971 51.428C488.748 51.8827 489.327 52.4547 489.709 53.144V50.944H491.733V63H489.709V60.756C489.313 61.46 488.719 62.0467 487.927 62.516C487.149 62.9707 486.24 63.198 485.199 63.198C484.128 63.198 483.16 62.934 482.295 62.406C481.429 61.878 480.747 61.1373 480.249 60.184C479.75 59.2307 479.501 58.1453 479.501 56.928ZM489.709 56.95C489.709 56.0407 489.525 55.2487 489.159 54.574C488.792 53.8993 488.293 53.386 487.663 53.034C487.047 52.6673 486.365 52.484 485.617 52.484C484.869 52.484 484.187 52.66 483.571 53.012C482.955 53.364 482.463 53.8773 482.097 54.552C481.73 55.2267 481.547 56.0187 481.547 56.928C481.547 57.852 481.73 58.6587 482.097 59.348C482.463 60.0227 482.955 60.5433 483.571 60.91C484.187 61.262 484.869 61.438 485.617 61.438C486.365 61.438 487.047 61.262 487.663 60.91C488.293 60.5433 488.792 60.0227 489.159 59.348C489.525 58.6587 489.709 57.8593 489.709 56.95ZM497.118 52.902C497.47 52.2127 497.969 51.6773 498.614 51.296C499.274 50.9147 500.073 50.724 501.012 50.724V52.792H500.484C498.24 52.792 497.118 54.0093 497.118 56.444V63H495.116V50.944H497.118V52.902ZM502.575 56.95C502.575 55.7033 502.824 54.618 503.323 53.694C503.822 52.7553 504.511 52.0293 505.391 51.516C506.286 51.0027 507.305 50.746 508.449 50.746C509.93 50.746 511.148 51.1053 512.101 51.824C513.069 52.5427 513.707 53.54 514.015 54.816H511.859C511.654 54.0827 511.25 53.5033 510.649 53.078C510.062 52.6527 509.329 52.44 508.449 52.44C507.305 52.44 506.381 52.836 505.677 53.628C504.973 54.4053 504.621 55.5127 504.621 56.95C504.621 58.402 504.973 59.524 505.677 60.316C506.381 61.108 507.305 61.504 508.449 61.504C509.329 61.504 510.062 61.2987 510.649 60.888C511.236 60.4773 511.639 59.8907 511.859 59.128H514.015C513.692 60.36 513.047 61.35 512.079 62.098C511.111 62.8313 509.901 63.198 508.449 63.198C507.305 63.198 506.286 62.9413 505.391 62.428C504.511 61.9147 503.822 61.1887 503.323 60.25C502.824 59.3113 502.575 58.2113 502.575 56.95ZM522.67 50.724C523.58 50.724 524.401 50.922 525.134 51.318C525.868 51.6993 526.44 52.2787 526.85 53.056C527.276 53.8333 527.488 54.7793 527.488 55.894V63H525.508V56.18C525.508 54.9773 525.208 54.0607 524.606 53.43C524.005 52.7847 523.184 52.462 522.142 52.462C521.086 52.462 520.243 52.792 519.612 53.452C518.996 54.112 518.688 55.0727 518.688 56.334V63H516.686V46.72H518.688V52.66C519.084 52.044 519.627 51.5673 520.316 51.23C521.02 50.8927 521.805 50.724 522.67 50.724Z" fill="#B9B9B9"/>
<rect x="404.5" y="31.5" width="631" height="48" rx="7.5" stroke="#DBDBDB"/>
<rect x="1242" y="24" width="175" height="53" rx="16" fill="#5D5FEF"/>
<path d="M1298.37 58.154C1297.3 58.154 1296.33 57.9707 1295.47 57.604C1294.62 57.2373 1293.94 56.7093 1293.44 56.02C1292.95 55.3307 1292.69 54.5167 1292.67 53.578H1295.97C1296.02 54.2087 1296.24 54.7073 1296.63 55.074C1297.05 55.4407 1297.6 55.624 1298.31 55.624C1299.03 55.624 1299.59 55.4553 1300 55.118C1300.41 54.766 1300.62 54.3113 1300.62 53.754C1300.62 53.2993 1300.48 52.9253 1300.2 52.632C1299.92 52.3387 1299.57 52.1113 1299.14 51.95C1298.73 51.774 1298.16 51.5833 1297.43 51.378C1296.43 51.0847 1295.62 50.7987 1294.98 50.52C1294.37 50.2267 1293.83 49.794 1293.38 49.222C1292.94 48.6353 1292.72 47.858 1292.72 46.89C1292.72 45.9807 1292.95 45.1887 1293.4 44.514C1293.86 43.8393 1294.49 43.326 1295.31 42.974C1296.14 42.6073 1297.07 42.424 1298.13 42.424C1299.71 42.424 1301 42.8127 1301.98 43.59C1302.98 44.3527 1303.53 45.4233 1303.63 46.802H1300.24C1300.21 46.274 1299.99 45.8413 1299.56 45.504C1299.15 45.152 1298.6 44.976 1297.91 44.976C1297.31 44.976 1296.83 45.13 1296.46 45.438C1296.11 45.746 1295.93 46.1933 1295.93 46.78C1295.93 47.1907 1296.06 47.5353 1296.33 47.814C1296.61 48.078 1296.94 48.298 1297.34 48.474C1297.75 48.6353 1298.32 48.826 1299.05 49.046C1300.05 49.3393 1300.87 49.6327 1301.5 49.926C1302.13 50.2193 1302.67 50.6593 1303.12 51.246C1303.58 51.8327 1303.81 52.6027 1303.81 53.556C1303.81 54.3773 1303.59 55.14 1303.17 55.844C1302.74 56.548 1302.12 57.1127 1301.3 57.538C1300.48 57.9487 1299.5 58.154 1298.37 58.154ZM1308.04 44.36C1307.5 44.36 1307.04 44.1913 1306.67 43.854C1306.32 43.502 1306.15 43.0693 1306.15 42.556C1306.15 42.0427 1306.32 41.6173 1306.67 41.28C1307.04 40.928 1307.5 40.752 1308.04 40.752C1308.58 40.752 1309.03 40.928 1309.38 41.28C1309.75 41.6173 1309.93 42.0427 1309.93 42.556C1309.93 43.0693 1309.75 43.502 1309.38 43.854C1309.03 44.1913 1308.58 44.36 1308.04 44.36ZM1309.56 45.812V58H1306.48V45.812H1309.56ZM1317.37 45.614C1318.28 45.614 1319.08 45.7973 1319.77 46.164C1320.46 46.516 1321 46.978 1321.4 47.55V45.812H1324.5V58.088C1324.5 59.2173 1324.27 60.222 1323.82 61.102C1323.37 61.9967 1322.68 62.7007 1321.77 63.214C1320.86 63.742 1319.76 64.006 1318.47 64.006C1316.74 64.006 1315.32 63.6027 1314.21 62.796C1313.11 61.9893 1312.48 60.8893 1312.34 59.496H1315.39C1315.56 60.0533 1315.9 60.4933 1316.43 60.816C1316.97 61.1533 1317.62 61.322 1318.39 61.322C1319.28 61.322 1320.01 61.0507 1320.56 60.508C1321.12 59.98 1321.4 59.1733 1321.4 58.088V56.196C1321 56.768 1320.45 57.2447 1319.75 57.626C1319.06 58.0073 1318.27 58.198 1317.37 58.198C1316.35 58.198 1315.41 57.934 1314.56 57.406C1313.71 56.878 1313.03 56.1373 1312.53 55.184C1312.05 54.216 1311.81 53.1087 1311.81 51.862C1311.81 50.63 1312.05 49.5373 1312.53 48.584C1313.03 47.6307 1313.7 46.8973 1314.54 46.384C1315.39 45.8707 1316.33 45.614 1317.37 45.614ZM1321.4 51.906C1321.4 51.158 1321.25 50.52 1320.96 49.992C1320.67 49.4493 1320.27 49.0387 1319.77 48.76C1319.27 48.4667 1318.74 48.32 1318.17 48.32C1317.59 48.32 1317.07 48.4593 1316.58 48.738C1316.1 49.0167 1315.7 49.4273 1315.39 49.97C1315.1 50.498 1314.95 51.1287 1314.95 51.862C1314.95 52.5953 1315.1 53.2407 1315.39 53.798C1315.7 54.3407 1316.1 54.7587 1316.58 55.052C1317.08 55.3453 1317.61 55.492 1318.17 55.492C1318.74 55.492 1319.27 55.3527 1319.77 55.074C1320.27 54.7807 1320.67 54.37 1320.96 53.842C1321.25 53.2993 1321.4 52.654 1321.4 51.906ZM1334.26 45.636C1335.72 45.636 1336.89 46.098 1337.78 47.022C1338.68 47.9313 1339.13 49.2073 1339.13 50.85V58H1336.05V51.268C1336.05 50.3 1335.8 49.5593 1335.32 49.046C1334.84 48.518 1334.18 48.254 1333.34 48.254C1332.49 48.254 1331.81 48.518 1331.32 49.046C1330.83 49.5593 1330.59 50.3 1330.59 51.268V58H1327.51V45.812H1330.59V47.33C1331 46.802 1331.52 46.3913 1332.15 46.098C1332.8 45.79 1333.5 45.636 1334.26 45.636ZM1348.86 44.36C1348.32 44.36 1347.86 44.1913 1347.5 43.854C1347.14 43.502 1346.97 43.0693 1346.97 42.556C1346.97 42.0427 1347.14 41.6173 1347.5 41.28C1347.86 40.928 1348.32 40.752 1348.86 40.752C1349.4 40.752 1349.85 40.928 1350.2 41.28C1350.57 41.6173 1350.75 42.0427 1350.75 42.556C1350.75 43.0693 1350.57 43.502 1350.2 43.854C1349.85 44.1913 1349.4 44.36 1348.86 44.36ZM1350.38 45.812V58H1347.3V45.812H1350.38ZM1360.17 45.636C1361.63 45.636 1362.8 46.098 1363.69 47.022C1364.59 47.9313 1365.04 49.2073 1365.04 50.85V58H1361.96V51.268C1361.96 50.3 1361.71 49.5593 1361.23 49.046C1360.75 48.518 1360.09 48.254 1359.25 48.254C1358.4 48.254 1357.73 48.518 1357.23 49.046C1356.74 49.5593 1356.5 50.3 1356.5 51.268V58H1353.42V45.812H1356.5V47.33C1356.91 46.802 1357.43 46.3913 1358.06 46.098C1358.71 45.79 1359.41 45.636 1360.17 45.636Z" fill="white"/>
<defs>
<clipPath id="clip0">
<rect width="46.993" height="46.9903" fill="white" transform="translate(31 16)"/>
</clipPath>
</defs>
</svg>
