<svg width="16" height="13" viewBox="0 0 16 13" fill="none" xmlns="http://www.w3.org/2000/svg">
<path d="M0.292893 10.2071L3 12.9142L5.70711 10.2071C6.09763 9.81658 6.09763 9.18342 5.70711 8.7929C5.31658 8.40237 4.68342 8.40237 4.29289 8.7929L4 9.08579L4 1.5C4 0.947715 3.55229 0.5 3 0.5C2.44772 0.5 2 0.947715 2 1.5L2 9.08579L1.70711 8.7929C1.31658 8.40237 0.683417 8.40237 0.292893 8.7929C-0.0976309 9.18342 -0.097631 9.81658 0.292893 10.2071Z" fill="#666666"/>
<path d="M9 1.5C8.44771 1.5 8 1.94772 8 2.5C8 3.05228 8.44771 3.5 9 3.5H15C15.5523 3.5 16 3.05228 16 2.5C16 1.94772 15.5523 1.5 15 1.5H9Z" fill="#666666"/>
<path d="M8 6.5C8 5.94772 8.44771 5.5 9 5.5H13C13.5523 5.5 14 5.94772 14 6.5C14 7.05228 13.5523 7.5 13 7.5H9C8.44771 7.5 8 7.05228 8 6.5Z" fill="#666666"/>
<path d="M9 9.5C8.44771 9.5 8 9.94771 8 10.5C8 11.0523 8.44771 11.5 9 11.5H10C10.5523 11.5 11 11.0523 11 10.5C11 9.94771 10.5523 9.5 10 9.5H9Z" fill="#666666"/>
</svg>
