<?xml version="1.0" encoding="UTF-8" standalone="no"?>
<svg
   xmlns:dc="http://purl.org/dc/elements/1.1/"
   xmlns:cc="http://creativecommons.org/ns#"
   xmlns:rdf="http://www.w3.org/1999/02/22-rdf-syntax-ns#"
   xmlns:svg="http://www.w3.org/2000/svg"
   xmlns="http://www.w3.org/2000/svg"
   xmlns:sodipodi="http://sodipodi.sourceforge.net/DTD/sodipodi-0.dtd"
   xmlns:inkscape="http://www.inkscape.org/namespaces/inkscape"
   width="16"
   height="13"
   viewBox="0 0 16 13"
   fill="none"
   version="1.1"
   id="svg34"
   sodipodi:docname="orderA.svg"
   inkscape:version="1.0.2-2 (e86c870879, 2021-01-15)">
  <metadata
     id="metadata40">
    <rdf:RDF>
      <cc:Work
         rdf:about="">
        <dc:format>image/svg+xml</dc:format>
        <dc:type
           rdf:resource="http://purl.org/dc/dcmitype/StillImage" />
        <dc:title></dc:title>
      </cc:Work>
    </rdf:RDF>
  </metadata>
  <defs
     id="defs38" />
  <sodipodi:namedview
     pagecolor="#ffffff"
     bordercolor="#666666"
     borderopacity="1"
     objecttolerance="10"
     gridtolerance="10"
     guidetolerance="10"
     inkscape:pageopacity="0"
     inkscape:pageshadow="2"
     inkscape:window-width="1366"
     inkscape:window-height="745"
     id="namedview36"
     showgrid="false"
     inkscape:zoom="29.317735"
     inkscape:cx="11.282267"
     inkscape:cy="7.2334044"
     inkscape:window-x="-8"
     inkscape:window-y="-8"
     inkscape:window-maximized="1"
     inkscape:current-layer="svg34" />
  <path
     d="M 5.707107,3.2071 3,0.5 0.29289,3.2071 c -0.39052,0.39052 -0.39052,1.02368 0,1.4142 0.39053,0.39053 1.02369,0.39053 1.41422,0 L 2,4.32841 v 7.58579 c 0,0.552285 0.44771,1 1,1 0.55228,0 1,-0.447715 1,-1 V 4.32841 L 4.29289,4.6213 c 0.39053,0.39053 1.023693,0.39053 1.414217,0 0.390524,-0.39052 0.390524,-1.02368 0,-1.4142 z"
     fill="#666666"
     id="path26" />
  <path
     d="m 15,3.5 c 0.55229,0 1,-0.44772 1,-1 0,-0.55228 -0.44771,-1 -1,-1 H 9 c -0.5523,0 -1,0.44772 -1,1 0,0.55228 0.4477,1 1,1 z"
     fill="#666666"
     id="path28" />
  <path
     d="m 14,6.5 c 0,0.55228 -0.44771,1 -1,1 H 9 c -0.5523,0 -1,-0.44772 -1,-1 0,-0.55228 0.4477,-1 1,-1 h 4 c 0.55229,0 1,0.44772 1,1 z"
     fill="#666666"
     id="path30" />
  <path
     d="m 10,11.5 c 0.55229,0 1,-0.44771 1,-1 0,-0.5523 -0.44771,-1 -1,-1 H 9 c -0.5523,0 -1,0.4477 -1,1 0,0.55229 0.4477,1 1,1 z"
     fill="#666666"
     id="path32" />
</svg>
