<svg width="363" height="476" viewBox="0 0 363 476" fill="none" xmlns="http://www.w3.org/2000/svg">
<path d="M49.7501 21.7551C91.5859 29.1824 120.11 47.0079 135.323 61.8625C148.635 84.1444 102.996 128.708 83.9794 119.796C64.9631 110.883 64.9631 94.5428 53.5534 84.1445C34.5371 93.0573 8.54813 100.98 0.307739 98.9991C-3.49551 73.7463 28.8322 36.6097 49.7501 21.7551Z" fill="black"/>
<path d="M225.186 63.2958C209.919 79.8642 187.019 64.802 169.844 63.2958C80.151 43.7149 68.7009 108.482 72.5176 113.001C76.3344 117.52 74.426 159.694 68.7009 182.287C62.9758 204.88 87.7845 225.967 68.7009 236.511C24.427 275.07 22.2642 412.237 0 476H311.062C311.062 271.154 219.461 266.635 225.186 248.561C230.911 230.486 246.178 188.312 248.087 146.138C326.329 132.582 326.329 85.889 332.054 67.8144C337.779 49.7397 372.13 39.1962 360.68 0.0345206C297.704 -1.4717 240.453 46.7273 225.186 63.2958Z" fill="black"/>
<path d="M277.77 207.163C277.77 207.163 228.918 208.751 219.434 237.734C215.544 247.188 215.151 262.415 224.172 263.089C245.279 264.774 278.414 245.579 277.77 207.163Z" fill="#FCA121"/>
<path d="M318.642 283.725C318.642 283.725 291.104 242.977 253.289 249.564C240.536 251.065 223.073 258.375 227.025 266.407C236.279 285.195 275.486 303.656 318.642 283.725Z" fill="#FCA121"/>
<path d="M244.535 288.887C242.12 276.446 228.506 248.051 228.506 248.051C228.506 248.051 124.252 304.612 69.127 218.192C58.0244 223.491 67.8613 235.928 57.5719 234.112C50.501 232.873 37.5152 241.249 29.6912 252.38C7.77427 283.533 27.9252 328.119 6.75175 356.599C6.75175 356.599 65.3811 395.762 129.331 393.174C183.727 390.996 257.397 353.007 244.535 288.887Z" fill="#FCA121"/>
<path d="M128.183 246.619C87.0942 232.333 85.6992 200.983 90.1378 187.093L209.98 201.975C199.834 222.809 169.271 260.906 128.183 246.619Z" fill="white"/>
<path d="M161.608 241.44C178.315 236.571 193.884 215.063 201.478 204.917L87.5623 183.612C88.8281 187.671 93.2581 200.352 100.852 218.614C110.345 241.44 140.723 247.528 161.608 241.44Z" fill="black"/>
<path d="M195.907 86.319C201.937 75.638 209.039 75.8151 209.039 71.3134C209.039 65.1265 151.259 58.1085 145.256 59.3089C137.752 60.8095 145.256 66.8118 150.884 75.8151C156.512 84.8185 156.512 102.825 122.744 126.834C88.9772 150.843 72.5204 160.939 81.4733 183.855C90.8532 207.864 139.628 201.862 150.884 201.862C162.14 201.862 184.651 227.371 214.667 201.862C244.682 176.352 169.644 132.836 195.907 86.319Z" fill="white"/>
<path d="M186.762 169.259C195.739 147.698 171.8 146.5 158.334 142.907C147.861 140.519 122.425 136.917 117.937 156.083C113.448 175.248 134.395 186.028 146.365 187.226C158.334 188.424 177.785 190.82 186.762 169.259Z" fill="black"/>
<ellipse rx="9.77635" ry="6.52651" transform="matrix(-1 0 0 1 132.194 162.292)" fill="white"/>
<ellipse rx="9.35129" ry="6.96161" transform="matrix(-1 0 0 1 171.724 167.079)" fill="white"/>
<path d="M174.765 224.026C178.7 209.724 149.185 216.875 143.282 216.875C129.508 211.154 111.799 208.293 109.831 216.875C107.864 225.456 105.896 275.514 133.444 274.083C160.991 272.653 170.829 238.328 174.765 224.026Z" fill="#E8AB94"/>
<ellipse rx="7.65105" ry="5.22121" transform="matrix(-1 0 0 1 116.467 109.645)" fill="#235180"/>
<ellipse rx="8.50117" ry="6.96161" transform="matrix(-1 0 0 1 215.929 121.828)" fill="#235180"/>
</svg>
