<svg width="921" height="1024" viewBox="0 0 921 1024" fill="none" xmlns="http://www.w3.org/2000/svg">
<rect width="895" height="1024" transform="translate(26)" fill="#FDF1DD"/>
<path fill-rule="evenodd" clip-rule="evenodd" d="M627.216 -34.7126C628.141 -38.1635 630.837 -40.859 634.287 -41.7837L719.727 -64.677C723.177 -65.6016 726.859 -64.615 729.386 -62.0888L791.931 0.456924C794.458 2.98318 795.444 6.66526 794.52 10.1162L771.626 95.5552C770.702 99.0061 768.006 101.702 764.555 102.626L679.116 125.52C675.665 126.444 671.983 125.458 669.457 122.931L606.911 60.3857C604.385 57.8594 603.398 54.1774 604.323 50.7264L627.216 -34.7126ZM410.861 78.9321C411.786 75.4812 414.481 72.7857 417.932 71.8611L455.075 61.9087C458.526 60.984 462.208 61.9706 464.734 64.4969L491.924 91.6872C494.451 94.2135 495.437 97.8956 494.513 101.346L484.56 138.489C483.636 141.94 480.94 144.636 477.489 145.56L440.346 155.513C436.896 156.437 433.214 155.451 430.687 152.924L403.497 125.734C400.971 123.208 399.984 119.526 400.909 116.075L410.861 78.9321ZM355.797 354.964C357.877 362.375 351.154 369.26 343.695 367.355L293.349 354.503C285.89 352.599 283.289 343.334 288.668 337.827L324.972 300.652C330.35 295.144 339.674 297.524 341.754 304.936L355.797 354.964ZM584 503C653.036 503 709 447.036 709 378C709 308.964 653.036 253 584 253C514.964 253 459 308.964 459 378C459 447.036 514.964 503 584 503ZM218.73 551.593C211.486 548.989 204.139 555.204 205.507 562.78L237.811 741.753C239.178 749.329 248.233 752.583 254.11 747.611L392.954 630.149C398.831 625.177 397.122 615.707 389.877 613.104L218.73 551.593ZM793.249 213.339C791.881 205.763 799.227 199.548 806.472 202.152L855.371 219.727C862.615 222.33 864.325 231.8 858.448 236.772L818.778 270.332C812.901 275.304 803.846 272.05 802.478 264.474L793.249 213.339ZM88.0001 529C107.33 529 123 513.33 123 494C123 474.67 107.33 459 88.0001 459C68.6701 459 53.0001 474.67 53.0001 494C53.0001 513.33 68.6701 529 88.0001 529ZM871.378 428.726C873.696 426.008 877.288 424.733 880.802 425.381L967.785 441.437C971.299 442.086 974.199 444.56 975.394 447.926L1004.98 531.284C1006.18 534.651 1005.48 538.4 1003.17 541.118L945.768 608.42C943.45 611.138 939.858 612.414 936.344 611.765L849.361 595.709C845.848 595.06 842.947 592.587 841.752 589.22L812.166 505.862C810.971 502.495 811.663 498.746 813.981 496.028L871.378 428.726ZM326.071 469.214C322.166 473.119 322.166 479.45 326.071 483.356L340.213 497.498C344.118 501.403 350.45 501.403 354.355 497.498L368.498 483.356C372.403 479.45 372.403 473.119 368.498 469.214L354.355 455.071C350.45 451.166 344.118 451.166 340.213 455.071L326.071 469.214ZM24.2165 806.146C25.1411 802.695 27.8366 799.999 31.2875 799.075L116.727 776.181C120.177 775.257 123.86 776.243 126.386 778.769L188.932 841.315C191.458 843.841 192.444 847.523 191.52 850.974L168.626 936.413C167.702 939.864 165.006 942.56 161.555 943.484L76.1163 966.378C72.6654 967.302 68.9833 966.316 66.4571 963.79L3.91133 901.244C1.38508 898.718 0.398478 895.036 1.32315 891.585L24.2165 806.146ZM67.0711 197.351C63.1658 201.256 63.1658 207.587 67.0711 211.493L194.35 338.772C198.256 342.677 204.587 342.677 208.492 338.772L335.772 211.493C339.677 207.587 339.677 201.256 335.772 197.351L208.492 70.0714C204.587 66.1661 198.256 66.1661 194.35 70.0714L67.0711 197.351ZM288.071 804.355C284.166 800.45 284.166 794.118 288.071 790.213L323.426 754.858C327.332 750.953 333.663 750.953 337.569 754.858L372.924 790.213C376.829 794.118 376.829 800.45 372.924 804.355L337.569 839.711C333.663 843.616 327.332 843.616 323.426 839.711L288.071 804.355ZM69.3553 44.3554C63.8325 44.3554 59.3553 48.8325 59.3553 54.3554V84.3554C59.3553 89.8782 63.8325 94.3554 69.3553 94.3554H99.3553C104.878 94.3554 109.355 89.8782 109.355 84.3554V54.3554C109.355 48.8325 104.878 44.3554 99.3553 44.3554H69.3553ZM842 682C842 693.046 833.046 702 822 702C810.954 702 802 693.046 802 682C802 670.954 810.954 662 822 662C833.046 662 842 670.954 842 682ZM247.829 995.931C241.569 1000.41 242.506 1009.99 249.516 1013.17L375.696 1070.43C382.706 1073.61 390.531 1068.01 389.781 1060.35L376.279 922.444C375.529 914.782 366.767 910.806 360.507 915.286L247.829 995.931ZM269.648 75.932C270.573 72.4811 273.268 69.7856 276.719 68.8609L284.884 66.6731C288.335 65.7485 292.017 66.7351 294.543 69.2613L300.52 75.2385C303.047 77.7647 304.033 81.4468 303.109 84.8978L300.921 93.0627C299.996 96.5136 297.301 99.2091 293.85 100.134L285.685 102.322C282.234 103.246 278.552 102.26 276.025 99.7334L270.048 93.7562C267.522 91.23 266.535 87.5479 267.46 84.097L269.648 75.932ZM559 980C578.33 980 594 964.33 594 945C594 925.67 578.33 910 559 910C539.67 910 524 925.67 524 945C524 964.33 539.67 980 559 980ZM98.797 650.651C97.4296 643.075 104.776 636.86 112.02 639.464L136.47 648.251C143.714 650.855 145.423 660.324 139.546 665.296L119.712 682.077C113.835 687.049 104.779 683.794 103.412 676.218L98.797 650.651ZM834 976C875.421 976 909 942.421 909 901C909 859.579 875.421 826 834 826C792.579 826 759 859.579 759 901C759 942.421 792.579 976 834 976Z" fill="#F5D9A8" fill-opacity="0.2"/>
<path d="M634.287 -41.7837L634.417 -41.3007L634.287 -41.7837ZM627.216 -34.7126L626.733 -34.842V-34.842L627.216 -34.7126ZM719.727 -64.677L719.597 -65.1599V-65.1599L719.727 -64.677ZM729.386 -62.0888L729.032 -61.7352V-61.7352L729.386 -62.0888ZM791.931 0.456924L792.285 0.103371L791.931 0.456924ZM794.52 10.1162L794.037 9.98677L794.52 10.1162ZM771.626 95.5552L772.109 95.6846L771.626 95.5552ZM764.555 102.626L764.426 102.143L764.555 102.626ZM679.116 125.52L679.246 126.003L679.116 125.52ZM669.457 122.931L669.103 123.285L669.457 122.931ZM606.911 60.3857L607.265 60.0321L606.911 60.3857ZM604.323 50.7264L604.806 50.8559L604.323 50.7264ZM417.932 71.8611L417.803 71.3781L417.932 71.8611ZM410.861 78.9321L411.344 79.0615L410.861 78.9321ZM455.075 61.9087L455.204 62.3916L455.075 61.9087ZM464.734 64.4969L464.381 64.8504V64.8504L464.734 64.4969ZM491.924 91.6872L491.571 92.0408L491.924 91.6872ZM494.513 101.346L494.03 101.217L494.513 101.346ZM484.56 138.489L484.077 138.36L484.56 138.489ZM477.489 145.56L477.36 145.077L477.489 145.56ZM440.346 155.513L440.476 155.996L440.346 155.513ZM430.687 152.924L431.041 152.571L430.687 152.924ZM403.497 125.734L403.143 126.088L403.497 125.734ZM400.909 116.075L401.392 116.204L400.909 116.075ZM343.695 367.355L343.572 367.84H343.572L343.695 367.355ZM355.797 354.964L355.315 355.099L355.797 354.964ZM293.349 354.503L293.225 354.987L293.349 354.503ZM288.668 337.827L289.025 338.176L288.668 337.827ZM324.972 300.652L325.329 301.001L324.972 300.652ZM341.754 304.936L342.235 304.801L341.754 304.936ZM205.507 562.78L205.015 562.869L205.507 562.78ZM218.73 551.593L218.899 551.122L218.73 551.593ZM237.811 741.753L238.303 741.664L237.811 741.753ZM254.11 747.611L253.787 747.23L254.11 747.611ZM392.954 630.149L392.631 629.767L392.954 630.149ZM389.877 613.104L389.708 613.574L389.877 613.104ZM806.472 202.152L806.303 202.623L806.472 202.152ZM793.249 213.339L792.757 213.428L793.249 213.339ZM855.371 219.727L855.202 220.197L855.371 219.727ZM858.448 236.772L858.125 236.39L858.448 236.772ZM818.778 270.332L818.455 269.951L818.778 270.332ZM802.478 264.474L801.986 264.563L802.478 264.474ZM880.802 425.381L880.893 424.889L880.802 425.381ZM871.378 428.726L870.997 428.402L871.378 428.726ZM967.785 441.437L967.694 441.929L967.785 441.437ZM975.394 447.926L974.923 448.094L975.394 447.926ZM1004.98 531.284L1005.45 531.117L1004.98 531.284ZM1003.17 541.118L1002.78 540.794L1003.17 541.118ZM945.768 608.42L946.149 608.745L945.768 608.42ZM936.344 611.765L936.254 612.257L936.344 611.765ZM849.361 595.709L849.452 595.217L849.361 595.709ZM841.752 589.22L842.223 589.052L841.752 589.22ZM812.166 505.862L812.637 505.694L812.166 505.862ZM813.981 496.028L813.6 495.703L813.981 496.028ZM326.071 483.356L326.425 483.002L326.071 483.356ZM326.071 469.214L326.425 469.567L326.071 469.214ZM340.213 497.498L340.567 497.144L340.213 497.498ZM354.355 497.498L354.002 497.144L354.355 497.498ZM368.498 483.356L368.144 483.002L368.498 483.356ZM368.498 469.214L368.144 469.567L368.498 469.214ZM354.355 455.071L354.002 455.425L354.355 455.071ZM340.213 455.071L340.567 455.425L340.213 455.071ZM31.2875 799.075L31.1581 798.592H31.1581L31.2875 799.075ZM24.2165 806.146L24.6994 806.275L24.2165 806.146ZM116.727 776.181L116.856 776.664L116.727 776.181ZM188.932 841.315L188.578 841.669L188.932 841.315ZM191.52 850.974L192.003 851.104L191.52 850.974ZM168.626 936.413L168.143 936.284L168.626 936.413ZM161.555 943.484L161.685 943.967L161.555 943.484ZM76.1163 966.378L75.9869 965.895L76.1163 966.378ZM66.4571 963.79L66.8106 963.436L66.4571 963.79ZM3.91133 901.244L4.26489 900.89H4.26489L3.91133 901.244ZM1.32315 891.585L0.840184 891.455H0.840184L1.32315 891.585ZM67.0711 211.493L66.7175 211.846L67.0711 211.493ZM67.0711 197.351L66.7175 196.997L67.0711 197.351ZM194.35 338.772L194.704 338.418L194.35 338.772ZM208.492 338.772L208.139 338.418L208.492 338.772ZM335.772 211.493L336.125 211.846L335.772 211.493ZM335.772 197.351L336.125 196.997L335.772 197.351ZM208.492 70.0714L208.139 70.4249L208.492 70.0714ZM194.35 70.0714L194.704 70.4249L194.35 70.0714ZM288.071 790.213L288.425 790.567L288.071 790.213ZM288.071 804.355L288.425 804.002L288.071 804.355ZM323.426 754.858L323.78 755.211L323.426 754.858ZM337.569 754.858L337.215 755.211L337.569 754.858ZM372.924 790.213L372.57 790.567L372.924 790.213ZM372.924 804.355L372.57 804.002L372.924 804.355ZM337.569 839.711L337.215 839.357L337.569 839.711ZM323.426 839.711L323.78 839.357L323.426 839.711ZM249.516 1013.17L249.723 1012.71L249.516 1013.17ZM247.829 995.931L248.12 996.338L247.829 995.931ZM375.696 1070.43L375.903 1069.97L375.696 1070.43ZM389.781 1060.35L389.283 1060.4L389.781 1060.35ZM376.279 922.444L376.777 922.395L376.279 922.444ZM360.507 915.286L360.798 915.693L360.507 915.286ZM276.719 68.8609L276.848 69.3439L276.719 68.8609ZM269.648 75.932L270.131 76.0614L269.648 75.932ZM284.884 66.6731L285.013 67.1561V67.1561L284.884 66.6731ZM294.543 69.2613L294.897 68.9078V68.9078L294.543 69.2613ZM300.52 75.2385L300.167 75.592V75.5921L300.52 75.2385ZM303.109 84.8978L302.626 84.7683L303.109 84.8978ZM300.921 93.0627L300.438 92.9333L300.921 93.0627ZM293.85 100.134L293.979 100.617L293.85 100.134ZM285.685 102.322L285.555 101.839L285.685 102.322ZM270.048 93.7562L270.402 93.4027V93.4027L270.048 93.7562ZM267.46 84.097L267.943 84.2264L267.46 84.097ZM112.02 639.464L111.851 639.934H111.851L112.02 639.464ZM98.797 650.651L99.2891 650.562L98.797 650.651ZM136.47 648.251L136.639 647.781L136.47 648.251ZM139.546 665.296L139.869 665.678L139.546 665.296ZM119.712 682.077L120.035 682.458L119.712 682.077ZM103.412 676.218L102.92 676.307L103.412 676.218ZM634.158 -42.2666C630.535 -41.2957 627.704 -38.4655 626.733 -34.842L627.699 -34.5832C628.578 -37.8616 631.138 -40.4223 634.417 -41.3007L634.158 -42.2666ZM719.597 -65.1599L634.158 -42.2666L634.417 -41.3007L719.856 -64.194L719.597 -65.1599ZM729.739 -62.4423C727.087 -65.0949 723.221 -66.1308 719.597 -65.1599L719.856 -64.194C723.134 -65.0724 726.632 -64.1352 729.032 -61.7352L729.739 -62.4423ZM792.285 0.103371L729.739 -62.4423L729.032 -61.7352L791.578 0.810478L792.285 0.103371ZM795.003 10.2456C795.974 6.62212 794.938 2.75594 792.285 0.103371L791.578 0.810478C793.978 3.21043 794.915 6.7084 794.037 9.98677L795.003 10.2456ZM772.109 95.6846L795.003 10.2456L794.037 9.98677L771.143 95.4258L772.109 95.6846ZM764.685 103.109C768.308 102.138 771.138 99.3081 772.109 95.6846L771.143 95.4258C770.265 98.7042 767.704 101.265 764.426 102.143L764.685 103.109ZM679.246 126.003L764.685 103.109L764.426 102.143L678.987 125.037L679.246 126.003ZM669.103 123.285C671.756 125.938 675.622 126.973 679.246 126.003L678.987 125.037C675.708 125.915 672.21 124.978 669.811 122.578L669.103 123.285ZM606.558 60.7392L669.103 123.285L669.811 122.578L607.265 60.0321L606.558 60.7392ZM603.84 50.597C602.869 54.2205 603.905 58.0867 606.558 60.7392L607.265 60.0321C604.865 57.6322 603.928 54.1342 604.806 50.8559L603.84 50.597ZM626.733 -34.842L603.84 50.597L604.806 50.8559L627.699 -34.5832L626.733 -34.842ZM417.803 71.3781C414.179 72.349 411.349 75.1792 410.378 78.8027L411.344 79.0615C412.222 75.7832 414.783 73.2225 418.062 72.344L417.803 71.3781ZM454.945 61.4257L417.803 71.3781L418.062 72.344L455.204 62.3916L454.945 61.4257ZM465.088 64.1433C462.435 61.4908 458.569 60.4548 454.945 61.4257L455.204 62.3916C458.483 61.5132 461.981 62.4505 464.381 64.8504L465.088 64.1433ZM492.278 91.3337L465.088 64.1433L464.381 64.8504L491.571 92.0408L492.278 91.3337ZM494.996 101.476C495.967 97.8524 494.931 93.9863 492.278 91.3337L491.571 92.0408C493.971 94.4407 494.908 97.9387 494.03 101.217L494.996 101.476ZM485.043 138.619L494.996 101.476L494.03 101.217L484.077 138.36L485.043 138.619ZM477.619 146.043C481.242 145.072 484.072 142.242 485.043 138.619L484.077 138.36C483.199 141.638 480.638 144.199 477.36 145.077L477.619 146.043ZM440.476 155.996L477.619 146.043L477.36 145.077L440.217 155.03L440.476 155.996ZM430.334 153.278C432.986 155.931 436.852 156.967 440.476 155.996L440.217 155.03C436.939 155.908 433.441 154.971 431.041 152.571L430.334 153.278ZM403.143 126.088L430.334 153.278L431.041 152.571L403.85 125.381L403.143 126.088ZM400.426 115.945C399.455 119.569 400.491 123.435 403.143 126.088L403.85 125.381C401.45 122.981 400.513 119.483 401.392 116.204L400.426 115.945ZM410.378 78.8027L400.426 115.945L401.392 116.204L411.344 79.0615L410.378 78.8027ZM343.572 367.84C351.404 369.839 358.463 362.611 356.278 354.829L355.315 355.099C357.292 362.14 350.905 368.68 343.819 366.871L343.572 367.84ZM293.225 354.987L343.572 367.84L343.819 366.871L293.472 354.018L293.225 354.987ZM288.31 337.478C282.663 343.26 285.393 352.988 293.225 354.987L293.472 354.018C286.386 352.21 283.916 343.408 289.025 338.176L288.31 337.478ZM324.614 300.302L288.31 337.478L289.025 338.176L325.329 301.001L324.614 300.302ZM342.235 304.801C340.051 297.018 330.261 294.519 324.614 300.302L325.329 301.001C330.439 295.769 339.296 298.03 341.273 305.071L342.235 304.801ZM356.278 354.829L342.235 304.801L341.273 305.071L355.315 355.099L356.278 354.829ZM708.5 378C708.5 446.759 652.759 502.5 584 502.5V503.5C653.312 503.5 709.5 447.312 709.5 378H708.5ZM584 253.5C652.759 253.5 708.5 309.241 708.5 378H709.5C709.5 308.688 653.312 252.5 584 252.5V253.5ZM459.5 378C459.5 309.241 515.241 253.5 584 253.5V252.5C514.688 252.5 458.5 308.688 458.5 378H459.5ZM584 502.5C515.241 502.5 459.5 446.759 459.5 378H458.5C458.5 447.312 514.688 503.5 584 503.5V502.5ZM205.999 562.691C204.7 555.494 211.679 549.59 218.561 552.063L218.899 551.122C211.292 548.389 203.579 554.914 205.015 562.869L205.999 562.691ZM238.303 741.664L205.999 562.691L205.015 562.869L237.319 741.842L238.303 741.664ZM253.787 747.23C248.204 751.953 239.602 748.861 238.303 741.664L237.319 741.842C238.754 749.796 248.263 753.214 254.433 747.993L253.787 747.23ZM392.631 629.767L253.787 747.23L254.433 747.993L393.277 630.53L392.631 629.767ZM389.708 613.574C396.59 616.047 398.214 625.044 392.631 629.767L393.277 630.53C399.448 625.31 397.653 615.367 390.046 612.633L389.708 613.574ZM218.561 552.063L389.708 613.574L390.046 612.633L218.899 551.122L218.561 552.063ZM806.641 201.682C799.034 198.948 791.321 205.473 792.757 213.428L793.741 213.25C792.442 206.053 799.421 200.149 806.303 202.623L806.641 201.682ZM855.54 219.256L806.641 201.682L806.303 202.623L855.202 220.197L855.54 219.256ZM858.771 237.153C864.941 231.933 863.147 221.99 855.54 219.256L855.202 220.197C862.084 222.67 863.708 231.667 858.125 236.39L858.771 237.153ZM819.101 270.714L858.771 237.153L858.125 236.39L818.455 269.951L819.101 270.714ZM801.986 264.563C803.422 272.517 812.93 275.935 819.101 270.714L818.455 269.951C812.872 274.674 804.269 271.582 802.97 264.385L801.986 264.563ZM792.757 213.428L801.986 264.563L802.97 264.385L793.741 213.25L792.757 213.428ZM122.5 494C122.5 513.054 107.054 528.5 88.0001 528.5V529.5C107.606 529.5 123.5 513.606 123.5 494H122.5ZM88.0001 459.5C107.054 459.5 122.5 474.946 122.5 494H123.5C123.5 474.394 107.606 458.5 88.0001 458.5V459.5ZM53.5001 494C53.5001 474.946 68.9463 459.5 88.0001 459.5V458.5C68.394 458.5 52.5001 474.394 52.5001 494H53.5001ZM88.0001 528.5C68.9463 528.5 53.5001 513.054 53.5001 494H52.5001C52.5001 513.606 68.394 529.5 88.0001 529.5V528.5ZM880.893 424.889C877.204 424.209 873.432 425.547 870.997 428.402L871.758 429.051C873.961 426.468 877.373 425.257 880.711 425.873L880.893 424.889ZM967.876 440.946L880.893 424.889L880.711 425.873L967.694 441.929L967.876 440.946ZM975.865 447.759C974.61 444.224 971.565 441.627 967.876 440.946L967.694 441.929C971.032 442.545 973.788 444.895 974.923 448.094L975.865 447.759ZM1005.45 531.117L975.865 447.759L974.923 448.094L1004.51 531.452L1005.45 531.117ZM1003.55 541.443C1005.98 538.589 1006.71 534.652 1005.45 531.117L1004.51 531.452C1005.64 534.65 1004.99 538.211 1002.78 540.794L1003.55 541.443ZM946.149 608.745L1003.55 541.443L1002.78 540.794L945.388 608.096L946.149 608.745ZM936.254 612.257C939.943 612.938 943.715 611.599 946.149 608.745L945.388 608.096C943.186 610.678 939.773 611.889 936.435 611.273L936.254 612.257ZM849.27 596.2L936.254 612.257L936.435 611.273L849.452 595.217L849.27 596.2ZM841.281 589.387C842.536 592.922 845.581 595.519 849.27 596.2L849.452 595.217C846.114 594.601 843.359 592.251 842.223 589.052L841.281 589.387ZM811.694 506.029L841.281 589.387L842.223 589.052L812.637 505.694L811.694 506.029ZM813.6 495.703C811.166 498.558 810.44 502.494 811.694 506.029L812.637 505.694C811.502 502.496 812.159 498.935 814.361 496.352L813.6 495.703ZM870.997 428.402L813.6 495.703L814.361 496.352L871.758 429.051L870.997 428.402ZM326.425 483.002C322.715 479.292 322.715 473.277 326.425 469.567L325.718 468.86C321.617 472.961 321.617 479.609 325.718 483.709L326.425 483.002ZM340.567 497.144L326.425 483.002L325.718 483.709L339.86 497.851L340.567 497.144ZM354.002 497.144C350.292 500.854 344.277 500.854 340.567 497.144L339.86 497.851C343.96 501.952 350.608 501.952 354.709 497.851L354.002 497.144ZM368.144 483.002L354.002 497.144L354.709 497.851L368.851 483.709L368.144 483.002ZM368.144 469.567C371.854 473.277 371.854 479.292 368.144 483.002L368.851 483.709C372.952 479.609 372.952 472.961 368.851 468.86L368.144 469.567ZM354.002 455.425L368.144 469.567L368.851 468.86L354.709 454.718L354.002 455.425ZM340.567 455.425C344.277 451.715 350.292 451.715 354.002 455.425L354.709 454.718C350.608 450.617 343.96 450.617 339.86 454.718L340.567 455.425ZM326.425 469.567L340.567 455.425L339.86 454.718L325.718 468.86L326.425 469.567ZM31.1581 798.592C27.5347 799.562 24.7044 802.393 23.7335 806.016L24.6994 806.275C25.5779 802.997 28.1386 800.436 31.4169 799.557L31.1581 798.592ZM116.597 775.698L31.1581 798.592L31.4169 799.557L116.856 776.664L116.597 775.698ZM126.739 778.416C124.087 775.763 120.221 774.727 116.597 775.698L116.856 776.664C120.134 775.786 123.632 776.723 126.032 779.123L126.739 778.416ZM189.285 840.962L126.739 778.416L126.032 779.123L188.578 841.669L189.285 840.962ZM192.003 851.104C192.974 847.48 191.938 843.614 189.285 840.962L188.578 841.669C190.978 844.069 191.915 847.567 191.037 850.845L192.003 851.104ZM169.109 936.543L192.003 851.104L191.037 850.845L168.143 936.284L169.109 936.543ZM161.685 943.967C165.308 942.996 168.138 940.166 169.109 936.543L168.143 936.284C167.265 939.562 164.704 942.123 161.426 943.001L161.685 943.967ZM76.2457 966.861L161.685 943.967L161.426 943.001L75.9869 965.895L76.2457 966.861ZM66.1035 964.143C68.756 966.796 72.6222 967.832 76.2457 966.861L75.9869 965.895C72.7085 966.773 69.2105 965.836 66.8106 963.436L66.1035 964.143ZM3.55778 901.597L66.1035 964.143L66.8106 963.436L4.26489 900.89L3.55778 901.597ZM0.840184 891.455C-0.130718 895.079 0.905218 898.945 3.55778 901.597L4.26489 900.89C1.86495 898.49 0.927674 894.992 1.80611 891.714L0.840184 891.455ZM23.7335 806.016L0.840184 891.455L1.80611 891.714L24.6994 806.275L23.7335 806.016ZM67.4246 211.139C63.7146 207.429 63.7146 201.414 67.4246 197.704L66.7175 196.997C62.617 201.098 62.617 207.746 66.7175 211.846L67.4246 211.139ZM194.704 338.418L67.4246 211.139L66.7175 211.846L193.997 339.125L194.704 338.418ZM208.139 338.418C204.429 342.128 198.414 342.128 194.704 338.418L193.997 339.125C198.097 343.226 204.745 343.226 208.846 339.125L208.139 338.418ZM335.418 211.139L208.139 338.418L208.846 339.125L336.125 211.846L335.418 211.139ZM335.418 197.704C339.128 201.414 339.128 207.429 335.418 211.139L336.125 211.846C340.226 207.746 340.226 201.098 336.125 196.997L335.418 197.704ZM208.139 70.4249L335.418 197.704L336.125 196.997L208.846 69.7178L208.139 70.4249ZM194.704 70.4249C198.414 66.7149 204.429 66.7149 208.139 70.4249L208.846 69.7178C204.745 65.6173 198.097 65.6173 193.997 69.7178L194.704 70.4249ZM67.4246 197.704L194.704 70.4249L193.997 69.7178L66.7175 196.997L67.4246 197.704ZM287.718 789.86C283.617 793.96 283.617 800.608 287.718 804.709L288.425 804.002C284.715 800.292 284.715 794.277 288.425 790.567L287.718 789.86ZM323.073 754.504L287.718 789.86L288.425 790.567L323.78 755.211L323.073 754.504ZM337.922 754.504C333.822 750.404 327.173 750.404 323.073 754.504L323.78 755.211C327.49 751.501 333.505 751.501 337.215 755.211L337.922 754.504ZM373.277 789.86L337.922 754.504L337.215 755.211L372.57 790.567L373.277 789.86ZM373.277 804.709C377.378 800.608 377.378 793.96 373.277 789.86L372.57 790.567C376.28 794.277 376.28 800.292 372.57 804.002L373.277 804.709ZM337.922 840.064L373.277 804.709L372.57 804.002L337.215 839.357L337.922 840.064ZM323.073 840.064C327.173 844.165 333.822 844.165 337.922 840.064L337.215 839.357C333.505 843.067 327.49 843.067 323.78 839.357L323.073 840.064ZM287.718 804.709L323.073 840.064L323.78 839.357L288.425 804.002L287.718 804.709ZM59.8553 54.3554C59.8553 49.1087 64.1086 44.8554 69.3553 44.8554V43.8554C63.5563 43.8554 58.8553 48.5564 58.8553 54.3554H59.8553ZM59.8553 84.3554V54.3554H58.8553V84.3554H59.8553ZM69.3553 93.8554C64.1086 93.8554 59.8553 89.6021 59.8553 84.3554H58.8553C58.8553 90.1544 63.5563 94.8554 69.3553 94.8554V93.8554ZM99.3553 93.8554H69.3553V94.8554H99.3553V93.8554ZM108.855 84.3554C108.855 89.6021 104.602 93.8554 99.3553 93.8554V94.8554C105.154 94.8554 109.855 90.1544 109.855 84.3554H108.855ZM108.855 54.3554V84.3554H109.855V54.3554H108.855ZM99.3553 44.8554C104.602 44.8554 108.855 49.1087 108.855 54.3554H109.855C109.855 48.5564 105.154 43.8554 99.3553 43.8554V44.8554ZM69.3553 44.8554H99.3553V43.8554H69.3553V44.8554ZM822 702.5C833.322 702.5 842.5 693.322 842.5 682H841.5C841.5 692.77 832.77 701.5 822 701.5V702.5ZM801.5 682C801.5 693.322 810.678 702.5 822 702.5V701.5C811.23 701.5 802.5 692.77 802.5 682H801.5ZM822 661.5C810.678 661.5 801.5 670.678 801.5 682H802.5C802.5 671.23 811.23 662.5 822 662.5V661.5ZM842.5 682C842.5 670.678 833.322 661.5 822 661.5V662.5C832.77 662.5 841.5 671.23 841.5 682H842.5ZM249.723 1012.71C243.064 1009.69 242.173 1000.59 248.12 996.338L247.538 995.525C240.965 1000.23 241.949 1010.28 249.31 1013.62L249.723 1012.71ZM375.903 1069.97L249.723 1012.71L249.31 1013.62L375.49 1070.88L375.903 1069.97ZM389.283 1060.4C389.996 1067.68 382.562 1073 375.903 1069.97L375.49 1070.88C382.85 1074.22 391.066 1068.34 390.279 1060.3L389.283 1060.4ZM375.782 922.492L389.283 1060.4L390.279 1060.3L376.777 922.395L375.782 922.492ZM360.798 915.693C366.745 911.437 375.069 915.214 375.782 922.492L376.777 922.395C375.989 914.351 366.789 910.175 360.216 914.88L360.798 915.693ZM248.12 996.338L360.798 915.693L360.216 914.88L247.538 995.525L248.12 996.338ZM276.59 68.378C272.966 69.3489 270.136 72.1791 269.165 75.8026L270.131 76.0614C271.009 72.783 273.57 70.2223 276.848 69.3439L276.59 68.378ZM284.755 66.1902L276.59 68.378L276.848 69.3439L285.013 67.1561L284.755 66.1902ZM294.897 68.9078C292.244 66.2552 288.378 65.2193 284.755 66.1902L285.013 67.1561C288.292 66.2777 291.79 67.2149 294.19 69.6149L294.897 68.9078ZM300.874 74.8849L294.897 68.9078L294.19 69.6149L300.167 75.592L300.874 74.8849ZM303.592 85.0272C304.562 81.4037 303.526 77.5375 300.874 74.8849L300.167 75.5921C302.567 77.992 303.504 81.49 302.626 84.7683L303.592 85.0272ZM301.404 93.1921L303.592 85.0272L302.626 84.7683L300.438 92.9333L301.404 93.1921ZM293.979 100.617C297.603 99.6459 300.433 96.8156 301.404 93.1921L300.438 92.9333C299.559 96.2117 296.999 98.7724 293.72 99.6508L293.979 100.617ZM285.814 102.805L293.979 100.617L293.72 99.6508L285.555 101.839L285.814 102.805ZM275.672 100.087C278.324 102.74 282.191 103.775 285.814 102.805L285.555 101.839C282.277 102.717 278.779 101.78 276.379 99.3799L275.672 100.087ZM269.695 94.1098L275.672 100.087L276.379 99.3799L270.402 93.4027L269.695 94.1098ZM266.977 83.9676C266.006 87.591 267.042 91.4572 269.695 94.1098L270.402 93.4027C268.002 91.0027 267.065 87.5047 267.943 84.2264L266.977 83.9676ZM269.165 75.8026L266.977 83.9676L267.943 84.2264L270.131 76.0614L269.165 75.8026ZM593.5 945C593.5 964.054 578.054 979.5 559 979.5V980.5C578.606 980.5 594.5 964.606 594.5 945H593.5ZM559 910.5C578.054 910.5 593.5 925.946 593.5 945H594.5C594.5 925.394 578.606 909.5 559 909.5V910.5ZM524.5 945C524.5 925.946 539.946 910.5 559 910.5V909.5C539.394 909.5 523.5 925.394 523.5 945H524.5ZM559 979.5C539.946 979.5 524.5 964.054 524.5 945H523.5C523.5 964.606 539.394 980.5 559 980.5V979.5ZM112.189 638.993C104.583 636.26 96.8692 642.785 98.305 650.74L99.2891 650.562C97.9901 643.365 104.969 637.461 111.851 639.934L112.189 638.993ZM136.639 647.781L112.189 638.993L111.851 639.934L136.301 648.722L136.639 647.781ZM139.869 665.678C146.04 660.457 144.245 650.514 136.639 647.781L136.301 648.722C143.183 651.195 144.807 660.191 139.223 664.914L139.869 665.678ZM120.035 682.458L139.869 665.678L139.223 664.914L119.389 681.695L120.035 682.458ZM102.92 676.307C104.356 684.262 113.864 687.679 120.035 682.458L119.389 681.695C113.806 686.418 105.203 683.326 103.904 676.13L102.92 676.307ZM98.305 650.74L102.92 676.307L103.904 676.13L99.2891 650.562L98.305 650.74ZM908.5 901C908.5 942.145 875.145 975.5 834 975.5V976.5C875.698 976.5 909.5 942.698 909.5 901H908.5ZM834 826.5C875.145 826.5 908.5 859.855 908.5 901H909.5C909.5 859.302 875.698 825.5 834 825.5V826.5ZM759.5 901C759.5 859.855 792.855 826.5 834 826.5V825.5C792.302 825.5 758.5 859.302 758.5 901H759.5ZM834 975.5C792.855 975.5 759.5 942.145 759.5 901H758.5C758.5 942.698 792.302 976.5 834 976.5V975.5Z" fill="#04101C" fill-opacity="0.2"/>
<path d="M508.75 459.755C550.586 467.182 579.11 485.008 594.323 499.863C607.635 522.144 561.996 566.708 542.979 557.796C523.963 548.883 523.963 532.543 512.553 522.145C493.537 531.057 467.548 538.98 459.308 536.999C455.504 511.746 487.832 474.61 508.75 459.755Z" fill="black"/>
<path d="M684.186 501.296C668.919 517.864 646.019 502.802 628.844 501.296C539.151 481.715 527.701 546.482 531.518 551.001C535.334 555.52 533.426 597.694 527.701 620.287C521.976 642.88 546.784 663.967 527.701 674.511C483.427 713.07 481.264 850.237 459 914H770.062C770.062 709.154 678.461 704.635 684.186 686.561C689.911 668.486 705.178 626.312 707.087 584.138C785.329 570.582 785.329 523.889 791.054 505.814C796.779 487.74 831.13 477.196 819.68 438.035C756.704 436.528 699.453 484.727 684.186 501.296Z" fill="black"/>
<path d="M740.763 645.163C740.763 645.163 691.637 646.751 682.099 675.734C678.187 685.188 677.792 700.415 686.864 701.089C708.09 702.774 741.411 683.579 740.763 645.163Z" fill="#FCA121"/>
<path d="M781.865 721.725C781.865 721.725 754.171 680.977 716.144 687.564C703.32 689.065 685.759 696.375 689.733 704.407C699.039 723.195 738.466 741.656 781.865 721.725Z" fill="#FCA121"/>
<path d="M707.342 726.887C704.912 714.446 691.223 686.051 691.223 686.051C691.223 686.051 586.382 742.612 530.948 656.192C519.783 661.491 529.675 673.928 519.328 672.112C512.217 670.873 499.159 679.249 491.291 690.38C469.251 721.533 489.515 766.119 468.222 794.599C468.222 794.599 527.181 833.762 591.49 831.174C646.191 828.996 720.276 791.007 707.342 726.887Z" fill="#FCA121"/>
<path d="M587.183 684.619C546.094 670.333 544.699 638.983 549.138 625.093L668.98 639.975C658.834 660.809 628.271 698.906 587.183 684.619Z" fill="white"/>
<path d="M620.608 679.44C637.315 674.571 652.884 653.063 660.478 642.917L546.562 621.612C547.828 625.671 552.258 638.352 559.852 656.614C569.345 679.44 599.723 685.528 620.608 679.44Z" fill="black"/>
<path d="M654.907 524.319C660.937 513.638 668.039 513.815 668.039 509.313C668.039 503.126 610.259 496.108 604.256 497.309C596.752 498.809 604.256 504.812 609.884 513.815C615.512 522.818 615.512 540.825 581.744 564.834C547.977 588.843 531.52 598.939 540.473 621.855C549.853 645.864 598.628 639.862 609.884 639.862C621.14 639.862 643.651 665.371 673.667 639.862C703.682 614.352 628.644 570.836 654.907 524.319Z" fill="white"/>
<path d="M645.762 607.259C654.739 585.698 630.8 584.5 617.334 580.907C606.861 578.519 581.425 574.917 576.937 594.083C572.448 613.248 593.395 624.028 605.365 625.226C617.334 626.424 636.785 628.82 645.762 607.259Z" fill="black"/>
<ellipse rx="9.77635" ry="6.52651" transform="matrix(-1 0 0 1 591.194 600.292)" fill="white"/>
<ellipse rx="9.35129" ry="6.96161" transform="matrix(-1 0 0 1 630.724 605.079)" fill="white"/>
<path d="M633.765 662.026C637.7 647.724 608.185 654.875 602.282 654.875C588.508 649.154 570.799 646.293 568.831 654.875C566.864 663.456 564.896 713.514 592.444 712.083C619.991 710.653 629.829 676.328 633.765 662.026Z" fill="#E8AB94"/>
<ellipse rx="7.65105" ry="5.22121" transform="matrix(-1 0 0 1 575.467 547.645)" fill="#235180"/>
<ellipse rx="8.50117" ry="6.96161" transform="matrix(-1 0 0 1 674.929 559.828)" fill="#235180"/>
</svg>
