<svg width="982" height="1024" viewBox="0 0 982 1024" fill="none" xmlns="http://www.w3.org/2000/svg">
<rect width="895" height="1024" transform="translate(87)" fill="#FDF1DD"/>
<rect y="59.4213" width="200" height="200" rx="10" transform="rotate(-45 0 59.4213)" fill="#F5D9A8"/>
<path d="M166.216 459.287C167.141 455.837 169.837 453.141 173.287 452.216L258.726 429.323C262.177 428.398 265.859 429.385 268.386 431.911L330.931 494.457C333.458 496.983 334.444 500.665 333.52 504.116L310.626 589.555C309.702 593.006 307.006 595.702 303.555 596.626L218.116 619.52C214.665 620.444 210.983 619.458 208.457 616.931L145.911 554.386C143.385 551.86 142.398 548.177 143.323 544.727L166.216 459.287Z" fill="#F5D9A8"/>
<path d="M360.516 164.763C358.523 157.328 365.328 150.524 372.763 152.516L464.78 177.172C472.216 179.164 474.706 188.459 469.263 193.902L401.902 261.263C396.459 266.706 387.164 264.216 385.172 256.78L360.516 164.763Z" fill="#F5D9A8"/>
<rect x="760" y="776.421" width="200" height="200" rx="10" transform="rotate(-45 760 776.421)" fill="#F5D9A8"/>
<ellipse cx="634" cy="477" rx="209" ry="222" fill="#F5D9A8"/>
<path d="M844.216 30.2875C845.141 26.8366 847.837 24.1411 851.287 23.2164L936.726 0.323097C940.177 -0.601574 943.859 0.38504 946.386 2.91129L1008.93 65.457C1011.46 67.9833 1012.44 71.6653 1011.52 75.1163L988.626 160.555C987.702 164.006 985.006 166.702 981.555 167.626L896.116 190.52C892.665 191.444 888.983 190.458 886.457 187.931L823.911 125.386C821.385 122.86 820.398 119.177 821.323 115.727L844.216 30.2875Z" fill="#F5D9A8"/>
<path d="M153.871 776.119C151.879 768.683 158.683 761.879 166.119 763.871L341.787 810.941C349.223 812.934 351.713 822.228 346.27 827.672L217.672 956.27C212.228 961.713 202.934 959.223 200.941 951.787L153.871 776.119Z" fill="#F5D9A8"/>
</svg>
